# Blender 4.0.0
# www.blender.org
o Sphere
v 0.000000 0.941100 -0.555570
v 0.000000 0.665200 -0.831470
v 0.034291 0.304720 -0.980785
v 0.034291 0.109630 -1.000000
v 0.002809 1.090415 -0.191342
v 0.005511 1.033509 -0.375330
v 0.008001 0.941100 -0.544895
v 0.010183 0.816737 -0.693520
v 0.011974 0.665200 -0.815493
v 0.013305 0.492313 -0.906127
v 0.048415 0.304720 -0.961940
v 0.014401 0.109630 -0.980785
v 0.005511 1.090415 -0.180240
v 0.010810 1.033509 -0.353553
v 0.015694 0.941100 -0.513280
v 0.019974 0.816737 -0.653281
v 0.023487 0.665200 -0.768178
v 0.026098 0.492313 -0.853553
v 0.027705 0.304720 -0.906127
v 0.028248 0.109630 -0.923879
v 0.008001 1.090415 -0.162212
v 0.015694 1.033509 -0.318190
v 0.022784 0.941100 -0.461940
v 0.028998 0.816737 -0.587938
v 0.034098 0.665200 -0.691342
v 0.037888 0.492313 -0.768178
v 0.040222 0.304720 -0.815493
v 0.041010 0.109630 -0.831469
v 0.010183 1.090415 -0.137950
v 0.019974 1.033509 -0.270598
v 0.028998 0.941100 -0.392847
v 0.036908 0.816737 -0.500000
v 0.043399 0.665200 -0.587938
v 0.048222 0.492313 -0.653281
v 0.051193 0.304720 -0.693520
v 0.052196 0.109630 -0.707107
v 0.011974 1.090415 -0.108386
v 0.023487 1.033509 -0.212608
v 0.034098 0.941100 -0.308658
v 0.043399 0.816737 -0.392847
v 0.051032 0.665200 -0.461940
v 0.057653 0.492515 -0.513683
v 0.068751 0.306539 -0.548526
v 0.066187 0.110653 -0.557612
v 0.000000 1.109630 0.000000
v 0.013305 1.090415 -0.074658
v 0.026098 1.033509 -0.146447
v 0.037888 0.941100 -0.212607
v 0.048222 0.816737 -0.270598
v 0.056704 0.665200 -0.318190
v 0.065250 0.492791 -0.354506
v 0.079954 0.307498 -0.380877
v 0.076172 0.111325 -0.386068
v 0.014124 1.090415 -0.038060
v 0.027705 1.033509 -0.074658
v 0.040222 0.941100 -0.108386
v 0.051193 0.816737 -0.137950
v 0.060196 0.665200 -0.162212
v 0.066886 0.492313 -0.180240
v 0.073207 0.305188 -0.192276
v 0.073050 0.109769 -0.195367
v 0.014401 1.090415 0.000000
v 0.028248 1.033509 0.000000
v 0.041010 0.941100 0.000000
v 0.052196 0.816737 -0.000000
v 0.061375 0.665200 0.000000
v 0.068197 0.492313 -0.000000
v 0.072397 0.304720 0.000000
v 0.073816 0.109630 0.000000
v 0.014124 1.090415 0.038060
v 0.027705 1.033509 0.074658
v 0.040222 0.941100 0.108386
v 0.051193 0.816737 0.137950
v 0.060196 0.665200 0.162212
v 0.066886 0.492313 0.180240
v 0.071006 0.304720 0.191342
v 0.072397 0.109630 0.195090
v 0.013305 1.090415 0.074658
v 0.026098 1.033509 0.146447
v 0.037888 0.941100 0.212608
v 0.048222 0.816737 0.270598
v 0.056704 0.665200 0.318190
v 0.063006 0.492313 0.353553
v 0.066886 0.304720 0.375330
v 0.068197 0.109630 0.382683
v 0.011974 1.090415 0.108386
v 0.023487 1.033509 0.212608
v 0.034098 0.941100 0.308658
v 0.043399 0.816737 0.392847
v 0.051032 0.665200 0.461940
v 0.056704 0.492313 0.513280
v 0.060196 0.304720 0.544895
v 0.061375 0.109630 0.555570
v 0.010183 1.090415 0.137950
v 0.019974 1.033509 0.270598
v 0.028998 0.941100 0.392847
v 0.036908 0.816737 0.500000
v 0.043399 0.665200 0.587938
v 0.048222 0.492313 0.653281
v 0.051193 0.304720 0.693520
v 0.052196 0.109630 0.707107
v 0.008001 1.090415 0.162212
v 0.015694 1.033509 0.318190
v 0.022784 0.941100 0.461940
v 0.028998 0.816737 0.587938
v 0.034098 0.665200 0.691342
v 0.037888 0.492313 0.768178
v 0.040222 0.304720 0.815493
v 0.041010 0.109630 0.831469
v 0.005511 1.090415 0.180240
v 0.010810 1.033509 0.353553
v 0.015694 0.941100 0.513280
v 0.019974 0.816737 0.653281
v 0.023487 0.665200 0.768178
v 0.026098 0.492313 0.853553
v 0.027705 0.304720 0.906127
v 0.028248 0.109630 0.923879
v 0.002809 1.090415 0.191342
v 0.005511 1.033509 0.375330
v 0.008001 0.941100 0.544895
v 0.010183 0.816737 0.693520
v 0.011974 0.665200 0.815493
v 0.013305 0.492313 0.906127
v 0.014124 0.304720 0.961939
v 0.014401 0.109630 0.980785
v -0.000000 1.090415 0.195090
v -0.000000 1.033509 0.382683
v -0.000000 0.941100 0.555570
v -0.000000 0.816737 0.707107
v -0.000000 0.665200 0.831469
v 0.000000 0.492313 0.923879
v -0.000000 0.304720 0.980785
v -0.000000 0.109630 0.999999
v -0.002809 1.090415 0.191342
v -0.005511 1.033509 0.375330
v -0.008001 0.941100 0.544895
v -0.010183 0.816737 0.693520
v -0.011974 0.665200 0.815493
v -0.013305 0.492313 0.906127
v -0.014124 0.304720 0.961939
v -0.014401 0.109630 0.980785
v -0.005511 1.090415 0.180240
v -0.010810 1.033509 0.353553
v -0.015694 0.941100 0.513280
v -0.019974 0.816737 0.653281
v -0.023487 0.665200 0.768177
v -0.026098 0.492313 0.853553
v -0.027705 0.304720 0.906127
v -0.028248 0.109630 0.923879
v -0.008001 1.090415 0.162212
v -0.015694 1.033509 0.318190
v -0.022784 0.941100 0.461939
v -0.028998 0.816737 0.587938
v -0.034098 0.665200 0.691341
v -0.037888 0.492313 0.768178
v -0.040222 0.304720 0.815493
v -0.041010 0.109630 0.831469
v -0.010183 1.090415 0.137950
v -0.019974 1.033509 0.270598
v -0.028998 0.941100 0.392847
v -0.036908 0.816737 0.500000
v -0.043399 0.665200 0.587937
v -0.048222 0.492313 0.653281
v -0.051193 0.304720 0.693520
v -0.052196 0.109630 0.707106
v -0.011974 1.090415 0.108386
v -0.023487 1.033509 0.212607
v -0.034098 0.941100 0.308658
v -0.043399 0.816737 0.392847
v -0.051032 0.665200 0.461939
v -0.056704 0.492313 0.513280
v -0.060196 0.304720 0.544895
v -0.061375 0.109630 0.555569
v -0.013305 1.090415 0.074658
v -0.026098 1.033509 0.146447
v -0.037888 0.941100 0.212607
v -0.048222 0.816737 0.270598
v -0.056704 0.665200 0.318189
v -0.063006 0.492313 0.353553
v -0.066886 0.304720 0.375330
v -0.068197 0.109630 0.382683
v -0.014124 1.090415 0.038060
v -0.027705 1.033509 0.074658
v -0.040222 0.941100 0.108386
v -0.051193 0.816737 0.137950
v -0.060196 0.665200 0.162211
v -0.066886 0.492313 0.180240
v -0.071006 0.304720 0.191341
v -0.072397 0.109630 0.195090
v -0.014401 1.090415 -0.000000
v -0.028248 1.033509 -0.000000
v -0.041010 0.941100 -0.000000
v -0.052196 0.816737 -0.000000
v -0.061375 0.665200 -0.000000
v -0.068197 0.492313 -0.000000
v -0.072397 0.304720 -0.000000
v -0.073816 0.109630 -0.000000
v -0.014124 1.090415 -0.038060
v -0.027705 1.033509 -0.074658
v -0.040222 0.941100 -0.108386
v -0.051193 0.816737 -0.137950
v -0.060196 0.665200 -0.162212
v -0.066886 0.492313 -0.180240
v -0.071006 0.304720 -0.191342
v -0.072397 0.109630 -0.195091
v -0.013305 1.090415 -0.074658
v -0.026098 1.033509 -0.146447
v -0.037888 0.941100 -0.212607
v -0.048222 0.816737 -0.270598
v -0.056704 0.665200 -0.318190
v -0.063006 0.492313 -0.353553
v -0.066886 0.304720 -0.375330
v -0.068197 0.109630 -0.382683
v -0.011974 1.090415 -0.108386
v -0.023487 1.033509 -0.212607
v -0.034098 0.941100 -0.308658
v -0.043399 0.816737 -0.392847
v -0.051032 0.665200 -0.461940
v -0.056704 0.492313 -0.513280
v -0.060196 0.304720 -0.544895
v -0.061375 0.109630 -0.555570
v -0.010183 1.090415 -0.137950
v -0.019974 1.033509 -0.270598
v -0.028998 0.941100 -0.392847
v -0.036908 0.816737 -0.500000
v -0.043399 0.665200 -0.587938
v -0.048222 0.492313 -0.653281
v -0.051193 0.304720 -0.693520
v -0.052196 0.109630 -0.707106
v -0.008001 1.090415 -0.162212
v -0.015694 1.033509 -0.318190
v -0.022784 0.941100 -0.461939
v -0.028998 0.816737 -0.587938
v -0.034098 0.665200 -0.691341
v -0.037888 0.492313 -0.768177
v -0.040222 0.304720 -0.815493
v -0.041010 0.109630 -0.831469
v -0.005511 1.090415 -0.180240
v -0.010810 1.033509 -0.353553
v -0.015694 0.941100 -0.513279
v -0.019974 0.816737 -0.653281
v -0.023487 0.665200 -0.768177
v -0.026098 0.492313 -0.853553
v -0.027705 0.304720 -0.906127
v -0.028248 0.109630 -0.923879
v -0.002809 1.090415 -0.191342
v -0.005511 1.033509 -0.375330
v -0.008001 0.941100 -0.544895
v -0.010183 0.816737 -0.693520
v -0.011974 0.665200 -0.815493
v -0.013305 0.492313 -0.906127
v -0.014124 0.304720 -0.961939
v -0.014401 0.109630 -0.980784
v 0.000000 1.090415 -0.195090
v 0.000000 1.033509 -0.382683
v 0.000000 0.816737 -0.707107
v 0.000000 0.492313 -0.923879
v 0.000000 0.599925 1.012052
v 0.000000 0.324026 0.898778
v -0.004715 0.714871 1.222845
v -0.009249 0.692335 1.108644
v -0.013427 0.599925 1.017773
v -0.017090 0.475563 1.036727
v -0.020095 0.324026 0.914754
v -0.022329 0.151139 0.824120
v -0.009249 0.714871 1.227787
v -0.018142 0.692335 1.120315
v -0.026339 0.599925 1.034716
v -0.033523 0.475563 0.959687
v -0.039419 0.324026 0.962069
v -0.043800 0.151139 0.876694
v -0.013427 0.714871 1.235811
v -0.026339 0.692335 1.139267
v -0.038238 0.599925 1.062229
v -0.048668 0.475563 0.994705
v -0.057227 0.324026 1.038906
v -0.063587 0.151139 0.962069
v -0.017090 0.714871 1.246610
v -0.033523 0.692335 1.164772
v -0.048668 0.599925 1.099257
v -0.061942 0.475563 1.041832
v -0.072836 0.324026 0.994706
v -0.080931 0.151139 0.959687
v -0.020095 0.714871 1.259768
v -0.039419 0.670768 1.213380
v -0.057227 0.599925 1.144375
v -0.072836 0.475563 1.099257
v -0.085646 0.324026 1.062229
v -0.095165 0.151139 1.034716
v 0.000000 0.729762 1.308010
v -0.022329 0.714871 1.274780
v -0.043800 0.670768 1.242828
v -0.063587 0.599149 1.213380
v -0.080931 0.502766 1.187569
v -0.095165 0.385323 1.166386
v -0.105742 0.251333 1.150646
v -0.023704 0.714871 1.291070
v -0.046497 0.670768 1.274780
v -0.067504 0.599149 1.259768
v -0.085916 0.502766 1.246610
v -0.101027 0.385323 1.235811
v -0.112255 0.251333 1.227786
v -0.024169 0.714871 1.308010
v -0.047408 0.670768 1.308010
v -0.068826 0.599149 1.308010
v -0.087599 0.502766 1.308010
v -0.103006 0.385323 1.308010
v -0.114454 0.251333 1.308010
v -0.023704 0.714871 1.324950
v -0.046497 0.670768 1.341240
v -0.067504 0.599149 1.356252
v -0.085916 0.502766 1.369411
v -0.101027 0.385323 1.380209
v -0.112255 0.251333 1.388234
v -0.022329 0.714871 1.341240
v -0.043800 0.670768 1.373192
v -0.063587 0.599149 1.402640
v -0.032913 0.468412 1.556524
v -0.038702 0.339162 1.564281
v -0.043004 0.191703 1.570044
v -0.020095 0.714871 1.356252
v -0.039419 0.670768 1.402640
v -0.023273 0.574484 1.562727
v -0.029621 0.468412 1.576448
v -0.034831 0.339162 1.587709
v -0.038702 0.191703 1.596076
v -0.017090 0.714871 1.369411
v -0.013633 0.653303 1.556524
v -0.019792 0.574484 1.576448
v -0.025191 0.468412 1.593912
v -0.029621 0.339162 1.608244
v -0.032913 0.191703 1.618894
v -0.013427 0.714871 1.380209
v -0.010711 0.653303 1.564281
v -0.015551 0.574484 1.587709
v -0.019792 0.468412 1.608244
v -0.023273 0.339162 1.625096
v -0.025860 0.191703 1.637619
v -0.009249 0.714871 1.388234
v -0.007378 0.653303 1.570044
v -0.010711 0.574484 1.596076
v -0.013633 0.468412 1.618894
v -0.016031 0.339162 1.637619
v -0.017813 0.191703 1.651533
v -0.004715 0.714871 1.393175
v -0.003761 0.653303 1.573593
v -0.005461 0.574484 1.601229
v -0.006950 0.468412 1.625451
v -0.008172 0.339162 1.645331
v -0.009081 0.191703 1.660102
v 0.000000 0.714871 1.394843
v 0.000000 0.653303 1.574792
v 0.000000 0.574484 1.602968
v 0.000000 0.468412 1.627666
v 0.000000 0.339162 1.647934
v 0.000000 0.191703 1.662995
v 0.004715 0.714871 1.393175
v 0.003761 0.653303 1.573593
v 0.005461 0.574484 1.601229
v 0.006950 0.468412 1.625451
v 0.008173 0.339162 1.645331
v 0.009081 0.191703 1.660102
v 0.009249 0.714871 1.388234
v 0.007378 0.653303 1.570044
v 0.010712 0.574484 1.596076
v 0.013633 0.468412 1.618894
v 0.016031 0.339162 1.637619
v 0.017813 0.191703 1.651533
v 0.013427 0.714871 1.380209
v 0.010712 0.653303 1.564281
v 0.015551 0.574484 1.587709
v 0.019792 0.468412 1.608244
v 0.023273 0.339162 1.625096
v 0.025860 0.191703 1.637619
v 0.017090 0.714871 1.369410
v 0.013633 0.653303 1.556524
v 0.019792 0.574484 1.576448
v 0.025191 0.468412 1.593912
v 0.029621 0.339162 1.608244
v 0.032914 0.191703 1.618894
v 0.020096 0.714871 1.356252
v 0.039419 0.670768 1.402640
v 0.023273 0.574484 1.562727
v 0.029621 0.468412 1.576448
v 0.034831 0.339162 1.587709
v 0.038702 0.191703 1.596076
v 0.022329 0.714871 1.341240
v 0.043800 0.670768 1.373192
v 0.063587 0.599149 1.402640
v 0.032914 0.468412 1.556524
v 0.038702 0.339162 1.564281
v 0.043004 0.191703 1.570044
v 0.023704 0.714871 1.324950
v 0.046498 0.670768 1.341240
v 0.067504 0.599149 1.356252
v 0.085916 0.502766 1.369411
v 0.101027 0.385323 1.380209
v 0.112255 0.251333 1.388234
v 0.024169 0.714871 1.308010
v 0.047408 0.670768 1.308010
v 0.068826 0.599149 1.308010
v 0.087599 0.502766 1.308010
v 0.103006 0.385323 1.308010
v 0.114454 0.251333 1.308010
v 0.023704 0.714871 1.291070
v 0.046498 0.670768 1.274780
v 0.067504 0.599149 1.259768
v 0.085916 0.502766 1.246610
v 0.101027 0.385323 1.235811
v 0.112255 0.251333 1.227787
v 0.022329 0.714871 1.274780
v 0.043800 0.670768 1.242828
v 0.063587 0.599149 1.213380
v 0.080931 0.502766 1.187569
v 0.095165 0.324026 1.139267
v 0.105742 0.251333 1.150646
v 0.020096 0.714871 1.259768
v 0.039419 0.670768 1.213380
v 0.057227 0.599925 1.144375
v 0.072836 0.475563 1.099257
v 0.085646 0.324026 1.062229
v 0.095165 0.382683 1.114655
v 0.017090 0.714871 1.246610
v 0.033523 0.692335 1.164772
v 0.048668 0.599925 1.099257
v 0.061942 0.475563 1.041832
v 0.072836 0.324026 0.994706
v 0.080931 0.151139 0.959687
v 0.013427 0.714871 1.235811
v 0.026339 0.692335 1.139267
v 0.038238 0.599925 1.062230
v 0.048668 0.475563 0.994706
v 0.057227 0.324026 1.038906
v 0.063587 0.151139 0.962070
v 0.009249 0.714871 1.227787
v 0.018142 0.692335 1.120315
v 0.026339 0.599925 1.034716
v 0.033523 0.475563 0.959687
v 0.039419 0.324026 0.962070
v 0.043800 0.151139 0.876694
v 0.004715 0.714871 1.222845
v 0.009249 0.692335 1.108644
v 0.013427 0.599925 1.017773
v 0.017090 0.475563 1.036727
v 0.020095 0.324026 0.914754
v 0.022329 0.151139 0.824120
v 0.000000 0.714871 1.221177
v 0.000000 0.692335 1.104704
v 0.000000 0.475563 1.023141
v 0.000000 0.151139 0.806368
v -0.033929 0.091556 -0.865468
v -0.026909 0.114786 -0.865468
v -0.033572 0.091545 -0.880545
v 0.002127 0.414233 -0.896223
v -0.002166 0.337053 -0.896223
v -0.007408 0.265964 -0.896223
v -0.013396 0.203699 -0.896223
v -0.019901 0.152650 -0.896223
v -0.026673 0.114779 -0.896223
v -0.033451 0.091541 -0.896223
v 0.035813 0.414252 -0.975045
v 0.031555 0.337071 -0.970472
v -0.007921 0.265980 -0.963045
v -0.013833 0.203713 -0.953051
v -0.020244 0.152661 -0.940872
v -0.026909 0.114786 -0.926978
v -0.033572 0.091545 -0.911902
v 0.034019 0.414309 -1.050838
v 0.029864 0.337125 -1.041867
v 0.024849 0.266029 -1.027299
v 0.019165 0.203754 -1.007694
v -0.021261 0.152693 -0.983806
v -0.027609 0.114809 -0.956551
v -0.033929 0.091556 -0.926978
v 0.031105 0.414402 -1.120689
v 0.027120 0.337212 -1.107666
v 0.022379 0.266108 -1.086516
v 0.017064 0.203821 -1.058054
v 0.011380 0.152746 -1.023373
v -0.028746 0.114845 -0.983806
v -0.034508 0.091575 -0.940872
v 0.027184 0.414527 -1.181914
v 0.023426 0.337330 -1.165338
v 0.019055 0.266214 -1.138420
v 0.014237 0.203911 -1.102195
v 0.009159 0.152816 -1.058054
v 0.004015 0.114894 -1.007694
v -0.035288 0.091600 -0.953051
v 0.022406 0.414680 -1.232161
v 0.018925 0.337474 -1.212669
v 0.015004 0.266343 -1.181017
v 0.010792 0.204021 -1.138421
v 0.006452 0.152903 -1.086516
v 0.002151 0.114953 -1.027299
v -0.036238 0.091630 -0.963045
v 0.016955 0.414854 -1.269497
v 0.013791 0.337638 -1.247839
v 0.010383 0.266490 -1.212669
v 0.006862 0.204147 -1.165338
v 0.003365 0.153001 -1.107666
v 0.000024 0.115021 -1.041867
v -0.037323 0.091665 -0.970472
v 0.011040 0.415042 -1.292488
v 0.008219 0.337815 -1.269497
v 0.005369 0.266650 -1.232160
v 0.002598 0.204283 -1.181914
v 0.000014 0.153108 -1.120689
v -0.002284 0.115095 -1.050838
v -0.038499 0.091702 -0.975045
v 0.004889 0.415239 -1.300251
v 0.002425 0.338000 -1.276809
v 0.000154 0.266817 -1.238742
v -0.001837 0.204424 -1.187511
v -0.003470 0.153219 -1.125087
v -0.004684 0.115171 -1.053867
v -0.039723 0.091741 -0.976590
v -0.001262 0.415435 -1.292488
v -0.003370 0.338185 -1.269497
v -0.005061 0.266983 -1.232160
v -0.006271 0.204566 -1.181914
v -0.006955 0.153331 -1.120689
v -0.007084 0.115248 -1.050838
v -0.040946 0.091780 -0.975045
v -0.007177 0.415624 -1.269497
v -0.008941 0.338363 -1.247839
v -0.010075 0.267143 -1.212669
v -0.010536 0.204702 -1.165338
v -0.010305 0.153437 -1.107666
v -0.009392 0.115321 -1.041867
v -0.042123 0.091818 -0.970472
v -0.012628 0.415797 -1.232160
v -0.014076 0.338527 -1.212669
v -0.014697 0.267290 -1.181017
v -0.014466 0.204827 -1.138420
v -0.013393 0.153536 -1.086516
v -0.011519 0.115389 -1.027299
v -0.043207 0.091852 -0.963045
v -0.017406 0.415950 -1.181914
v -0.018577 0.338670 -1.165338
v -0.018747 0.267420 -1.138420
v -0.017911 0.204937 -1.102195
v -0.016099 0.153622 -1.058054
v -0.013383 0.115449 -1.007694
v -0.044158 0.091883 -0.953051
v -0.039975 0.083830 -0.896223
v -0.021327 0.416075 -1.120689
v -0.022270 0.338788 -1.107666
v -0.022071 0.267526 -1.086516
v -0.020738 0.205027 -1.058054
v -0.018320 0.153693 -1.023373
v -0.049204 0.115498 -0.983805
v -0.044938 0.091908 -0.940872
v -0.024241 0.416168 -1.050838
v -0.025015 0.338876 -1.041867
v -0.024541 0.267605 -1.027299
v -0.022838 0.205094 -1.007694
v -0.054262 0.153746 -0.983805
v -0.050341 0.115534 -0.956551
v -0.045517 0.091926 -0.926978
v -0.026035 0.416225 -0.975045
v -0.026705 0.338929 -0.970472
v -0.060354 0.267653 -0.963045
v -0.058423 0.205135 -0.953051
v -0.055279 0.153778 -0.940872
v -0.051041 0.115556 -0.926978
v -0.045874 0.091937 -0.911902
v -0.060933 0.416245 -0.896223
v -0.061567 0.338948 -0.896223
v -0.060867 0.267669 -0.896223
v -0.058860 0.205149 -0.896223
v -0.055622 0.153789 -0.896223
v -0.051278 0.115564 -0.896223
v -0.045995 0.091941 -0.896223
v -0.045874 0.091937 -0.880545
v -0.045517 0.091926 -0.865469
v -0.040074 -0.207529 0.526909
v -0.040074 0.173195 0.526909
v -0.040074 -0.207529 0.829783
v -0.040074 0.173195 0.829783
v 0.041406 -0.207529 0.526909
v 0.041406 0.173195 0.526909
v 0.041406 -0.207529 0.829783
v 0.041406 0.173195 0.829783
v -0.007706 -0.216186 -0.563227
v -0.007706 0.163837 -0.563227
v -0.007706 -0.216186 -0.851099
v -0.007706 0.163837 -0.851099
v 0.009805 -0.216186 -0.563227
v 0.009805 0.163837 -0.563227
v 0.009805 -0.216186 -0.851099
v 0.009805 0.163837 -0.851099
v 0.005980 0.693598 1.084060
v 0.000438 0.693857 1.087162
v -0.004892 0.694624 1.096351
v -0.009803 0.695870 1.111272
v -0.014108 0.697546 1.131352
v -0.017641 0.699589 1.155821
v -0.020266 0.701919 1.183736
v -0.021883 0.704448 1.214026
v -0.022429 0.707078 1.245527
v -0.021883 0.709707 1.277027
v -0.020266 0.712236 1.307317
v -0.017641 0.714567 1.335233
v -0.014108 0.716609 1.359701
v -0.009803 0.718286 1.379781
v -0.004892 0.719531 1.394703
v 0.000438 0.720298 1.403891
v 0.005980 0.720557 1.406993
v 0.011522 0.720298 1.403891
v 0.016851 0.719531 1.394702
v 0.021763 0.718286 1.379781
v 0.026067 0.716609 1.359701
v 0.029600 0.714567 1.335232
v 0.032226 0.712236 1.307317
v 0.033842 0.709707 1.277027
v 0.034388 0.707078 1.245527
v 0.033842 0.704448 1.214026
v 0.032226 0.701919 1.183736
v 0.029600 0.699589 1.155821
v 0.026067 0.697546 1.131352
v 0.021762 0.695870 1.111272
v 0.016851 0.694624 1.096351
v 0.011522 0.693857 1.087163
vn 0.6825 -0.1872 0.7065
vn 0.1297 0.9868 -0.0972
vn 0.3612 0.8923 -0.2707
vn 0.5324 0.7465 -0.3990
vn 0.6461 0.5900 -0.4842
vn 0.7180 0.4416 -0.5381
vn 0.7620 0.3053 -0.5711
vn 0.7603 0.3118 -0.5698
vn 0.9338 -0.0891 0.3465
vn 0.9714 0.0242 -0.2364
vn 0.3613 0.9283 -0.0879
vn 0.7548 0.6297 -0.1837
vn 0.8827 0.4179 -0.2148
vn 0.9308 0.2870 -0.2265
vn 0.9524 0.1978 -0.2318
vn 0.9634 0.1303 -0.2344
vn 0.9735 0.1849 -0.1344
vn 0.9827 0.1257 -0.1357
vn 0.9872 0.0822 -0.1363
vn 0.9895 0.0468 -0.1367
vn 0.9905 0.0152 -0.1368
vn 0.5328 0.8430 -0.0736
vn 0.8829 0.4535 -0.1219
vn 0.9517 0.2775 -0.1314
vn 0.9959 0.0114 -0.0896
vn 0.6468 0.7604 -0.0582
vn 0.9310 0.3554 -0.0837
vn 0.9736 0.2109 -0.0876
vn 0.9863 0.1392 -0.0887
vn 0.9915 0.0942 -0.0892
vn 0.9941 0.0615 -0.0894
vn 0.9954 0.0350 -0.0895
vn 0.9916 0.1148 -0.0601
vn 0.9952 0.0776 -0.0603
vn 0.9960 0.0584 -0.0674
vn 0.9893 0.0817 -0.1208
vn 0.9956 0.0116 -0.0933
vn 0.7189 0.6937 -0.0436
vn 0.9527 0.2985 -0.0577
vn 0.9828 0.1747 -0.0595
vn 0.9983 -0.0104 -0.0581
vn 0.7632 0.6455 -0.0301
vn 0.9636 0.2646 -0.0380
vn 0.9873 0.1539 -0.0390
vn 0.9941 0.1009 -0.0392
vn 0.9969 0.0681 -0.0393
vn 0.9971 0.0595 -0.0477
vn 0.9938 0.0884 -0.0669
vn 0.9978 0.0629 -0.0223
vn 0.9986 0.0514 -0.0092
vn 0.9966 0.0739 0.0366
vn 0.9999 -0.0011 0.0164
vn 0.7886 0.6147 -0.0177
vn 0.9692 0.2453 -0.0217
vn 0.9896 0.1421 -0.0222
vn 0.9954 0.0931 -0.0223
vn 0.8002 0.5997 -0.0058
vn 0.9716 0.2364 -0.0071
vn 0.9906 0.1368 -0.0072
vn 0.9960 0.0896 -0.0072
vn 0.9981 0.0605 -0.0073
vn 0.9992 0.0394 -0.0073
vn 0.9994 0.0335 0.0043
vn 1.0000 -0.0007 -0.0039
vn 0.9981 0.0605 0.0073
vn 0.9992 0.0394 0.0073
vn 0.9997 0.0224 0.0073
vn 0.9999 0.0073 0.0073
vn 0.8002 0.5997 0.0058
vn 0.9716 0.2364 0.0071
vn 0.9906 0.1368 0.0072
vn 0.9960 0.0896 0.0072
vn 0.9692 0.2453 0.0217
vn 0.9896 0.1421 0.0222
vn 0.9954 0.0931 0.0223
vn 0.9978 0.0629 0.0223
vn 0.9989 0.0410 0.0224
vn 0.9995 0.0233 0.0224
vn 0.9997 0.0076 0.0224
vn 0.7886 0.6147 0.0177
vn 0.9982 0.0444 0.0394
vn 0.9989 0.0252 0.0394
vn 0.9992 0.0082 0.0394
vn 0.7632 0.6455 0.0301
vn 0.9636 0.2646 0.0380
vn 0.9873 0.1539 0.0390
vn 0.9941 0.1009 0.0392
vn 0.9969 0.0681 0.0393
vn 0.9828 0.1747 0.0595
vn 0.9916 0.1148 0.0601
vn 0.9952 0.0776 0.0603
vn 0.9969 0.0506 0.0604
vn 0.9978 0.0288 0.0604
vn 0.9981 0.0093 0.0605
vn 0.7189 0.6937 0.0436
vn 0.9527 0.2985 0.0577
vn 0.9954 0.0350 0.0895
vn 0.9959 0.0114 0.0896
vn 0.6468 0.7604 0.0582
vn 0.9310 0.3554 0.0837
vn 0.9736 0.2109 0.0876
vn 0.9863 0.1392 0.0887
vn 0.9915 0.0942 0.0892
vn 0.9941 0.0615 0.0894
vn 0.9517 0.2775 0.1314
vn 0.9735 0.1849 0.1344
vn 0.9827 0.1257 0.1357
vn 0.9872 0.0822 0.1363
vn 0.9895 0.0468 0.1367
vn 0.9905 0.0152 0.1368
vn 0.5328 0.8430 0.0736
vn 0.8829 0.4535 0.1219
vn 0.9690 0.0744 0.2358
vn 0.9714 0.0242 0.2364
vn 0.3613 0.9283 0.0879
vn 0.7548 0.6297 0.1837
vn 0.8827 0.4179 0.2148
vn 0.9308 0.2870 0.2265
vn 0.9524 0.1978 0.2318
vn 0.9634 0.1303 0.2344
vn 0.6461 0.5900 0.4842
vn 0.7180 0.4416 0.5381
vn 0.7620 0.3053 0.5711
vn 0.7873 0.1790 0.5900
vn 0.7988 0.0590 0.5987
vn 0.1297 0.9868 0.0972
vn 0.3612 0.8923 0.2707
vn 0.5324 0.7465 0.3990
vn -0.7988 0.0590 0.5987
vn -0.1297 0.9868 0.0972
vn -0.3612 0.8923 0.2707
vn -0.5324 0.7465 0.3990
vn -0.6461 0.5900 0.4842
vn -0.7180 0.4416 0.5381
vn -0.7620 0.3053 0.5711
vn -0.7873 0.1790 0.5900
vn -0.9308 0.2870 0.2265
vn -0.9524 0.1978 0.2318
vn -0.9634 0.1303 0.2344
vn -0.9690 0.0744 0.2358
vn -0.9714 0.0242 0.2364
vn -0.3613 0.9283 0.0879
vn -0.7548 0.6297 0.1837
vn -0.8827 0.4179 0.2148
vn -0.9905 0.0152 0.1368
vn -0.5328 0.8430 0.0736
vn -0.8829 0.4535 0.1219
vn -0.9517 0.2775 0.1314
vn -0.9735 0.1849 0.1344
vn -0.9827 0.1257 0.1357
vn -0.9872 0.0822 0.1363
vn -0.9895 0.0468 0.1367
vn -0.9915 0.0942 0.0892
vn -0.9941 0.0615 0.0894
vn -0.9954 0.0350 0.0895
vn -0.9959 0.0114 0.0896
vn -0.6468 0.7604 0.0582
vn -0.9310 0.3554 0.0837
vn -0.9736 0.2109 0.0876
vn -0.9863 0.1392 0.0887
vn -0.9527 0.2985 0.0577
vn -0.9828 0.1747 0.0595
vn -0.9916 0.1148 0.0601
vn -0.9952 0.0776 0.0603
vn -0.9969 0.0506 0.0604
vn -0.9978 0.0288 0.0604
vn -0.9981 0.0093 0.0605
vn -0.7189 0.6937 0.0436
vn -0.9982 0.0444 0.0394
vn -0.9989 0.0252 0.0394
vn -0.9992 0.0082 0.0394
vn -0.7632 0.6455 0.0301
vn -0.9636 0.2646 0.0380
vn -0.9873 0.1539 0.0390
vn -0.9941 0.1009 0.0392
vn -0.9969 0.0681 0.0393
vn -0.9692 0.2453 0.0217
vn -0.9896 0.1421 0.0222
vn -0.9954 0.0931 0.0223
vn -0.9978 0.0629 0.0223
vn -0.9989 0.0410 0.0224
vn -0.9995 0.0233 0.0224
vn -0.9997 0.0076 0.0224
vn -0.7886 0.6147 0.0177
vn -0.9992 0.0394 0.0073
vn -0.9997 0.0224 0.0073
vn -0.9999 0.0073 0.0073
vn -0.8002 0.5997 0.0058
vn -0.9716 0.2364 0.0071
vn -0.9906 0.1368 0.0072
vn -0.9960 0.0896 0.0072
vn -0.9981 0.0605 0.0073
vn -0.9906 0.1368 -0.0072
vn -0.9960 0.0896 -0.0072
vn -0.9981 0.0605 -0.0073
vn -0.9992 0.0394 -0.0073
vn -0.9997 0.0224 -0.0073
vn -0.9999 0.0073 -0.0073
vn -0.8002 0.5997 -0.0058
vn -0.9716 0.2364 -0.0071
vn -0.9995 0.0233 -0.0224
vn -0.9997 0.0076 -0.0224
vn -0.7886 0.6146 -0.0177
vn -0.9692 0.2453 -0.0217
vn -0.9896 0.1421 -0.0222
vn -0.9954 0.0931 -0.0223
vn -0.9978 0.0629 -0.0223
vn -0.9989 0.0410 -0.0224
vn -0.9873 0.1539 -0.0390
vn -0.9941 0.1009 -0.0392
vn -0.9969 0.0681 -0.0393
vn -0.9982 0.0444 -0.0394
vn -0.9989 0.0252 -0.0394
vn -0.9992 0.0082 -0.0394
vn -0.7632 0.6455 -0.0301
vn -0.9636 0.2646 -0.0380
vn -0.9978 0.0288 -0.0604
vn -0.9981 0.0093 -0.0605
vn -0.7189 0.6937 -0.0436
vn -0.9527 0.2985 -0.0577
vn -0.9828 0.1747 -0.0595
vn -0.9916 0.1148 -0.0601
vn -0.9952 0.0776 -0.0603
vn -0.9969 0.0506 -0.0604
vn -0.9863 0.1392 -0.0887
vn -0.9915 0.0942 -0.0892
vn -0.9941 0.0615 -0.0894
vn -0.9954 0.0350 -0.0895
vn -0.9959 0.0114 -0.0896
vn -0.6468 0.7604 -0.0582
vn -0.9310 0.3554 -0.0837
vn -0.9736 0.2109 -0.0876
vn -0.9905 0.0152 -0.1368
vn -0.5328 0.8430 -0.0736
vn -0.8829 0.4535 -0.1219
vn -0.9517 0.2775 -0.1314
vn -0.9735 0.1849 -0.1344
vn -0.9827 0.1257 -0.1357
vn -0.9872 0.0822 -0.1363
vn -0.9895 0.0468 -0.1367
vn -0.9524 0.1978 -0.2318
vn -0.9634 0.1303 -0.2344
vn -0.9690 0.0744 -0.2358
vn -0.9714 0.0242 -0.2364
vn -0.3613 0.9283 -0.0879
vn -0.7548 0.6297 -0.1837
vn -0.8827 0.4179 -0.2148
vn -0.9308 0.2870 -0.2265
vn -0.1297 0.9868 -0.0972
vn -0.3612 0.8923 -0.2707
vn -0.5324 0.7465 -0.3990
vn -0.6461 0.5900 -0.4842
vn -0.7180 0.4416 -0.5381
vn -0.7620 0.3053 -0.5711
vn -0.3545 0.2115 -0.9108
vn -0.3656 0.0900 -0.9264
vn 0.0597 -0.9839 0.1687
vn 0.0809 -0.9785 0.1899
vn 0.2881 -0.6780 0.6762
vn 0.6192 0.1005 0.7788
vn 0.5236 -0.5405 0.6586
vn 0.5741 -0.3860 0.7221
vn 0.9060 -0.2057 0.3700
vn 0.1746 -0.9715 0.1602
vn 0.2369 -0.9546 0.1806
vn 0.6724 -0.5342 0.5124
vn -0.9757 -0.0692 0.2081
vn 0.9254 -0.0301 0.3779
vn 0.8373 -0.4097 0.3621
vn 0.8809 -0.2807 0.3810
vn 0.9741 0.0108 0.2258
vn 0.9653 -0.1349 0.2237
vn 0.2772 -0.9499 0.1444
vn 0.3761 -0.9122 0.1626
vn 0.3628 -0.9237 0.1230
vn 0.4909 -0.8602 0.1383
vn 0.9085 -0.3303 0.2559
vn 0.9385 -0.2222 0.2643
vn -0.9423 -0.0357 0.3328
vn -0.1336 -0.1907 0.9725
vn 0.9031 -0.3939 0.1713
vn 0.9650 -0.1875 0.1831
vn 0.9745 -0.1275 0.1849
vn 0.9790 -0.0835 0.1857
vn 0.4296 -0.8977 0.0981
vn 0.9320 -0.3595 -0.0465
vn 0.4780 -0.8755 0.0711
vn 0.8526 -0.5070 0.1268
vn 0.9510 -0.2974 0.0843
vn 0.9643 -0.2149 0.1546
vn 0.9727 -0.1498 0.1771
vn 0.9799 -0.0978 0.1739
vn 0.9768 -0.1979 0.0825
vn 0.9874 -0.1347 0.0834
vn 0.9926 -0.0882 0.0838
vn 0.5093 -0.8595 0.0430
vn 0.8746 -0.4793 0.0738
vn 0.9518 -0.2960 0.0804
vn 0.5245 -0.8513 0.0144
vn 0.8844 -0.4660 0.0242
vn 0.9577 -0.2864 0.0263
vn 0.9812 -0.1911 0.0269
vn 0.9911 -0.1300 0.0272
vn 0.9960 -0.0851 0.0273
vn 0.9812 -0.1911 -0.0269
vn 0.9911 -0.1300 -0.0272
vn 0.9960 -0.0851 -0.0273
vn 0.5245 -0.8513 -0.0144
vn 0.8844 -0.4660 -0.0242
vn 0.9577 -0.2864 -0.0263
vn 0.5093 -0.8595 -0.0430
vn 0.8746 -0.4793 -0.0738
vn 0.9518 -0.2960 -0.0804
vn 0.9493 -0.1196 -0.2909
vn 0.9242 -0.1512 -0.3508
vn 0.9185 -0.0999 -0.3826
vn 0.9852 -0.0539 -0.1628
vn 0.9860 -0.0351 -0.1629
vn 0.4780 -0.8755 -0.0711
vn 0.8526 -0.5070 -0.1268
vn 0.9105 -0.3073 -0.2766
vn 0.9835 -0.0799 -0.1625
vn 0.8038 -0.5608 -0.1983
vn 0.9602 -0.1366 -0.2436
vn 0.9654 -0.0895 -0.2449
vn 0.9675 -0.0604 -0.2455
vn 0.9685 -0.0394 -0.2457
vn 0.4296 -0.8977 -0.0981
vn 0.9348 -0.0463 -0.3521
vn 0.3628 -0.9237 -0.1230
vn 0.6576 -0.7115 -0.2477
vn 0.9237 -0.1601 -0.3480
vn 0.9306 -0.1051 -0.3506
vn 0.9335 -0.0710 -0.3516
vn 0.4910 -0.8236 -0.2840
vn 0.8485 -0.1980 -0.4907
vn 0.8583 -0.1304 -0.4964
vn 0.8623 -0.0882 -0.4987
vn 0.8642 -0.0576 -0.4998
vn 0.2896 0.9543 -0.0735
vn 0.2772 -0.9499 -0.1444
vn 0.6984 -0.0756 -0.7117
vn 0.1746 -0.9715 -0.1602
vn 0.3034 -0.9013 -0.3092
vn 0.6770 -0.2565 -0.6899
vn 0.6902 -0.1703 -0.7033
vn 0.6957 -0.1156 -0.7090
vn 0.2873 -0.3224 -0.9019
vn 0.2963 -0.2166 -0.9302
vn 0.3002 -0.1478 -0.9424
vn 0.3021 -0.0969 -0.9483
vn 0.0597 -0.9839 -0.1687
vn 0.1026 -0.9412 -0.3220
vn -0.0597 -0.9839 -0.1687
vn -0.1026 -0.9412 -0.3220
vn -0.2873 -0.3224 -0.9019
vn -0.2963 -0.2166 -0.9302
vn -0.3002 -0.1478 -0.9424
vn -0.3021 -0.0969 -0.9483
vn -0.6770 -0.2565 -0.6899
vn -0.6902 -0.1703 -0.7033
vn -0.6957 -0.1156 -0.7090
vn -0.6984 -0.0756 -0.7117
vn -0.1746 -0.9715 -0.1602
vn -0.3034 -0.9013 -0.3092
vn -0.2772 -0.9499 -0.1444
vn -0.4910 -0.8236 -0.2840
vn -0.8485 -0.1980 -0.4907
vn -0.8583 -0.1304 -0.4964
vn -0.8623 -0.0882 -0.4987
vn -0.8642 -0.0576 -0.4998
vn -0.9306 -0.1051 -0.3506
vn -0.9335 -0.0710 -0.3516
vn -0.9348 -0.0463 -0.3521
vn -0.3628 -0.9237 -0.1230
vn -0.6576 -0.7115 -0.2477
vn -0.9237 -0.1601 -0.3480
vn -0.4296 -0.8977 -0.0981
vn -0.8038 -0.5608 -0.1983
vn -0.9602 -0.1366 -0.2436
vn -0.9654 -0.0895 -0.2449
vn -0.9675 -0.0604 -0.2455
vn -0.9685 -0.0394 -0.2457
vn -0.9852 -0.0539 -0.1628
vn -0.9860 -0.0351 -0.1629
vn -0.4780 -0.8755 -0.0711
vn -0.8526 -0.5070 -0.1268
vn -0.9105 -0.3073 -0.2766
vn -0.9835 -0.0799 -0.1625
vn -0.5093 -0.8595 -0.0430
vn -0.8746 -0.4793 -0.0738
vn -0.9518 -0.2960 -0.0804
vn -0.9493 -0.1196 -0.2909
vn -0.9242 -0.1512 -0.3508
vn -0.9185 -0.0999 -0.3826
vn -0.9911 -0.1300 -0.0272
vn -0.9960 -0.0851 -0.0273
vn -0.5245 -0.8513 -0.0144
vn -0.8844 -0.4660 -0.0242
vn -0.9577 -0.2864 -0.0263
vn -0.9812 -0.1911 -0.0269
vn -0.8844 -0.4660 0.0242
vn -0.9577 -0.2864 0.0263
vn -0.9812 -0.1911 0.0269
vn -0.9911 -0.1300 0.0272
vn -0.9960 -0.0851 0.0273
vn -0.5245 -0.8513 0.0144
vn -0.9926 -0.0882 0.0838
vn -0.5093 -0.8595 0.0430
vn -0.8746 -0.4793 0.0738
vn -0.9518 -0.2960 0.0804
vn -0.9768 -0.1979 0.0825
vn -0.9791 -0.1396 0.1481
vn -0.8526 -0.5070 0.1268
vn -0.9510 -0.2974 0.0843
vn -0.9643 -0.2149 0.1546
vn -0.9863 -0.1115 0.1219
vn -0.8576 -0.1990 -0.4743
vn -0.4780 -0.8755 0.0711
vn -0.8913 -0.2131 0.4002
vn -0.4296 -0.8977 0.0981
vn -0.9320 -0.3595 -0.0465
vn -0.9031 -0.3939 0.1713
vn -0.9650 -0.1875 0.1831
vn -0.9745 -0.1275 0.1849
vn -0.9085 -0.3303 0.2559
vn -0.9385 -0.2222 0.2643
vn 0.9423 -0.0357 0.3328
vn 0.1336 -0.1907 0.9725
vn -0.3628 -0.9237 0.1230
vn -0.4909 -0.8602 0.1383
vn -0.2772 -0.9499 0.1444
vn -0.3761 -0.9122 0.1626
vn -0.8373 -0.4097 0.3621
vn -0.8809 -0.2807 0.3810
vn -0.9741 0.0108 0.2258
vn -0.9653 -0.1349 0.2237
vn 0.9757 -0.0692 0.2081
vn -0.9254 -0.0301 0.3779
vn -0.9060 -0.2057 0.3700
vn -0.1746 -0.9715 0.1602
vn -0.2369 -0.9546 0.1806
vn -0.6724 -0.5342 0.5124
vn -0.0597 -0.9839 0.1687
vn -0.0809 -0.9785 0.1899
vn -0.2881 -0.6780 0.6762
vn -0.6192 0.1005 0.7788
vn -0.5236 -0.5405 0.6586
vn -0.5741 -0.3860 0.7221
vn -0.7508 0.6603 -0.0183
vn -0.9600 0.2800 -0.0074
vn -0.7634 0.6459 -0.0060
vn -0.9973 0.0735 0.0077
vn -0.9954 0.0957 0.0077
vn -0.9919 0.1264 0.0077
vn -0.9844 0.1760 0.0076
vn -0.9600 0.2800 0.0074
vn -0.7634 0.6459 0.0060
vn -0.9093 0.0506 -0.4130
vn -0.9570 0.2892 0.0229
vn -0.7508 0.6603 0.0183
vn -0.9981 0.0565 0.0237
vn -0.8133 0.4083 -0.4145
vn -0.8560 -0.0017 -0.5169
vn -0.9912 0.1301 0.0236
vn -0.9831 0.1816 0.0234
vn -0.9937 0.1038 0.0416
vn -0.7363 0.2990 -0.6070
vn -0.9802 0.1939 0.0411
vn -0.9502 0.3092 0.0400
vn -0.7233 0.6898 0.0311
vn -0.9974 0.0585 0.0417
vn -0.9960 0.0788 0.0417
vn -0.6761 0.7355 0.0448
vn -0.9960 0.0622 0.0639
vn -0.9943 0.0853 0.0639
vn -0.9915 0.1137 0.0637
vn -0.9862 0.1529 0.0635
vn -0.4171 -0.7050 -0.5735
vn -0.4760 0.8789 0.0323
vn -0.9869 0.1311 0.0942
vn -0.9795 0.1783 0.0937
vn -0.9630 0.2532 0.0923
vn -0.4607 0.8864 0.0465
vn -0.6004 0.7975 0.0595
vn -0.9931 0.0687 0.0946
vn -0.9908 0.0967 0.0945
vn -0.4839 0.8719 0.0747
vn -0.9862 0.0809 0.1444
vn -0.9825 0.1182 0.1440
vn -0.9760 0.1639 0.1433
vn -0.9638 0.2258 0.1418
vn -0.9366 0.3219 0.1382
vn -0.4332 0.8988 0.0674
vn -0.9134 0.3305 0.2377
vn -0.8570 0.4639 0.2243
vn -0.3763 0.9206 0.1044
vn -0.3140 0.9453 0.0885
vn -0.9625 0.1091 0.2485
vn -0.9544 0.1678 0.2469
vn -0.9401 0.2382 0.2438
vn -0.7638 0.2096 0.6105
vn -0.7333 0.3387 0.5896
vn -0.6833 0.4762 0.5534
vn -0.6052 0.6232 0.4953
vn -0.4866 0.7740 0.4052
vn -0.2136 0.9576 0.1935
vn -0.0911 0.9911 0.0973
vn 0.6437 0.5833 0.4953
vn 0.5350 0.7414 0.4052
vn 0.6141 0.6336 0.4706
vn 0.1541 0.9832 0.0973
vn 0.7756 0.1605 0.6105
vn 0.7534 0.2913 0.5896
vn 0.7123 0.4317 0.5534
vn 0.9675 0.0476 0.2485
vn 0.9632 0.1066 0.2469
vn 0.9534 0.1778 0.2438
vn 0.9326 0.2716 0.2377
vn 0.8848 0.4084 0.2243
vn 0.8379 -0.4997 0.2197
vn 0.3736 0.9234 0.0885
vn 0.9552 0.2615 0.1382
vn 0.7258 -0.6792 0.1091
vn 0.5385 0.8393 0.0747
vn 0.9894 0.0179 0.1444
vn 0.9880 0.0554 0.1440
vn 0.9845 0.1013 0.1433
vn 0.9762 0.1639 0.1418
vn 0.9950 0.0333 0.0945
vn 0.9932 0.0679 0.0942
vn 0.9889 0.1155 0.0937
vn 0.9772 0.1913 0.0923
vn 0.6786 -0.7314 0.0667
vn 0.6500 0.7576 0.0595
vn 0.9955 0.0052 0.0946
vn 0.9570 0.2836 0.0607
vn 0.7216 0.6909 0.0448
vn 0.9980 -0.0014 0.0639
vn 0.9977 0.0217 0.0639
vn 0.9967 0.0503 0.0637
vn 0.9939 0.0897 0.0635
vn 0.5132 0.3814 0.7688
vn 0.9990 0.0152 0.0417
vn 0.9983 0.0402 0.0416
vn 0.7330 -0.1387 0.6660
vn 0.9905 0.1310 0.0411
vn 0.9679 0.2480 0.0400
vn 0.7658 0.6423 0.0311
vn 0.9991 -0.0052 0.0417
vn 0.9735 0.2276 0.0229
vn 0.7913 0.6111 0.0183
vn 0.9997 -0.0073 0.0237
vn 0.8213 -0.3400 0.4580
vn 0.8227 0.1904 0.5356
vn 0.9975 0.0667 0.0236
vn 0.9927 0.1186 0.0234
vn 0.9995 0.0321 0.0077
vn 0.9980 0.0629 0.0077
vn 0.9936 0.1129 0.0076
vn 0.9759 0.2183 0.0074
vn 0.8030 0.5959 0.0060
vn 0.9052 -0.0074 0.4250
vn 0.9999 0.0098 0.0077
vn 0.8030 0.5959 -0.0060
vn 0.7913 0.6111 -0.0183
vn 1.0000 -0.0000 -0.0000
vn -0.0000 -0.0000 -1.0000
vn -1.0000 -0.0000 -0.0000
vn -0.0000 -0.0000 1.0000
vn -0.0000 1.0000 -0.0000
vn -0.0000 -1.0000 -0.0000
vn 0.7988 0.0590 -0.5987
vn 0.9421 0.2445 -0.2293
vn 0.9198 -0.1933 0.3413
vn 0.9969 0.0506 -0.0604
vn 0.9973 0.0303 -0.0674
vn 0.9927 -0.0074 -0.1201
vn 0.9976 -0.0175 -0.0666
vn 0.9980 0.0501 -0.0394
vn 0.9965 0.0684 -0.0477
vn 0.9989 0.0410 -0.0224
vn 0.9994 0.0344 -0.0093
vn 0.9992 -0.0202 0.0355
vn 0.9997 0.0224 -0.0073
vn 1.0000 0.0073 0.0042
vn -0.7873 0.1790 -0.5900
vn -0.3612 0.0914 -0.9280
vn 0.0670 -0.9796 0.1895
vn 0.3907 0.0818 0.9169
vn 0.1985 -0.9630 0.1822
vn 0.7935 0.0688 0.6047
vn -0.9674 -0.1469 0.2063
vn 0.9174 -0.0295 0.3968
vn 0.3235 -0.9311 0.1685
vn 0.4377 -0.8868 0.1485
vn 0.9623 0.0247 0.2710
vn -0.9369 -0.1126 0.3309
vn 0.9818 -0.1866 0.0363
vn 0.5359 -0.8354 0.1224
vn 0.9209 -0.3649 0.1370
vn 0.9838 -0.1557 0.0889
vn 0.9855 -0.1140 0.1254
vn 0.9879 -0.0759 0.1349
vn 0.9768 -0.1979 -0.0825
vn 0.9575 -0.0598 -0.2822
vn 0.9433 -0.0404 -0.3295
vn 0.9382 -0.3166 -0.1396
vn 0.9644 -0.0728 -0.2541
vn 0.8278 -0.5282 -0.1891
vn 0.9749 -0.1333 -0.1785
vn 0.6959 -0.6782 -0.2360
vn 0.9237 -0.1601 -0.3479
vn 0.9306 -0.1051 -0.3505
vn 0.9334 -0.0710 -0.3516
vn 0.5300 -0.8018 -0.2760
vn 0.9964 0.0078 0.0841
vn 0.6525 0.7578 -0.0000
vn -0.7823 0.5218 -0.3401
vn -0.1521 0.9873 -0.0455
vn 0.8177 0.5718 -0.0658
vn 0.0865 0.9942 -0.0645
vn 0.3330 -0.8921 -0.3055
vn 0.2964 -0.2166 -0.9302
vn 0.1138 -0.9401 -0.3214
vn -0.1138 -0.9401 -0.3214
vn -0.2964 -0.2166 -0.9302
vn -0.3330 -0.8921 -0.3055
vn -0.5300 -0.8018 -0.2760
vn -0.9306 -0.1051 -0.3505
vn -0.6959 -0.6782 -0.2360
vn -0.9237 -0.1601 -0.3479
vn -0.8278 -0.5282 -0.1891
vn -0.9749 -0.1333 -0.1785
vn -0.9382 -0.3166 -0.1396
vn -0.9644 -0.0728 -0.2541
vn -0.9768 -0.1979 -0.0825
vn -0.9575 -0.0598 -0.2822
vn -0.9433 -0.0404 -0.3295
vn -0.9831 -0.1216 0.1369
vn -0.9913 -0.1016 0.0837
vn -0.9209 -0.3649 0.1370
vn -0.9838 -0.1557 0.0889
vn -0.9855 -0.1140 0.1254
vn 0.9911 -0.0514 -0.1225
vn -0.9790 -0.0835 0.1857
vn -0.5359 -0.8354 0.1224
vn -0.9818 -0.1866 0.0363
vn -0.9623 0.0247 0.2710
vn 0.9369 -0.1126 0.3309
vn -0.4377 -0.8868 0.1485
vn -0.3235 -0.9311 0.1685
vn -0.9174 -0.0295 0.3968
vn -0.7935 0.0688 0.6047
vn 0.9674 -0.1469 0.2063
vn -0.1985 -0.9630 0.1822
vn -0.0671 -0.9796 0.1895
vn -0.3907 0.0818 0.9169
vn -0.8265 0.4197 -0.3752
vn -0.9192 0.0274 -0.3928
vn -0.9969 0.0752 0.0237
vn -0.8891 -0.0616 -0.4535
vn -0.7848 0.3998 -0.4736
vn -0.9895 0.1383 0.0415
vn -0.7627 0.1508 -0.6290
vn -0.6627 0.7476 0.0440
vn -0.3504 -0.8029 -0.4822
vn -0.4607 0.8863 0.0465
vn -0.3763 0.9206 0.1043
vn -0.6053 0.6232 0.4953
vn -0.4867 0.7739 0.4052
vn 0.5350 0.7413 0.4052
vn 0.6140 0.6337 0.4705
vn 0.8379 -0.4996 0.2197
vn 0.6786 -0.7314 0.0668
vn 0.3557 0.7686 0.5318
vn 0.9862 0.1531 0.0628
vn 0.9963 0.0749 0.0415
vn 0.7367 0.0974 0.6691
vn 0.9997 0.0115 0.0237
vn 0.8688 0.1042 0.4841
vn 0.8112 -0.2506 0.5284
vn 0.9143 0.0160 0.4048
vn 0.8453 -0.3577 0.3970
vt 0.750000 0.500000
vt 0.718750 0.562500
vt 0.718750 0.500000
vt 0.750000 0.937500
vt 0.734375 1.000000
vt 0.718750 0.937500
vt 0.750000 0.875000
vt 0.718750 0.875000
vt 0.750000 0.812500
vt 0.718750 0.812500
vt 0.750000 0.750000
vt 0.718750 0.750000
vt 0.750000 0.687500
vt 0.718750 0.687500
vt 0.750000 0.625000
vt 0.718750 0.625000
vt 0.750000 0.562500
vt 0.687500 0.625000
vt 0.687500 0.562500
vt 0.687500 0.500000
vt 0.703125 1.000000
vt 0.687500 0.937500
vt 0.687500 0.875000
vt 0.687500 0.812500
vt 0.687500 0.750000
vt 0.687500 0.687500
vt 0.656250 0.750000
vt 0.656250 0.687500
vt 0.656250 0.625000
vt 0.656250 0.562500
vt 0.656250 0.500000
vt 0.671875 1.000000
vt 0.656250 0.937500
vt 0.656250 0.875000
vt 0.656250 0.812500
vt 0.625000 0.562500
vt 0.625000 0.500000
vt 0.640625 1.000000
vt 0.625000 0.937500
vt 0.625000 0.875000
vt 0.625000 0.812500
vt 0.625000 0.750000
vt 0.625000 0.687500
vt 0.625000 0.625000
vt 0.593750 0.750000
vt 0.593750 0.687500
vt 0.593750 0.625000
vt 0.593750 0.562500
vt 0.593750 0.500000
vt 0.609375 1.000000
vt 0.593750 0.937500
vt 0.593750 0.875000
vt 0.593750 0.812500
vt 0.562500 0.500000
vt 0.578125 1.000000
vt 0.562500 0.937500
vt 0.562500 0.875000
vt 0.562500 0.812500
vt 0.562500 0.750000
vt 0.562500 0.687500
vt 0.562500 0.625000
vt 0.562500 0.562500
vt 0.531250 0.750000
vt 0.531250 0.687500
vt 0.531250 0.625000
vt 0.531250 0.562500
vt 0.531250 0.500000
vt 0.546875 1.000000
vt 0.531250 0.937500
vt 0.531250 0.875000
vt 0.531250 0.812500
vt 0.515625 1.000000
vt 0.500000 0.937500
vt 0.500000 0.875000
vt 0.500000 0.812500
vt 0.500000 0.750000
vt 0.500000 0.687500
vt 0.500000 0.625000
vt 0.500000 0.562500
vt 0.500000 0.500000
vt 0.468750 0.750000
vt 0.468750 0.687500
vt 0.468750 0.625000
vt 0.468750 0.562500
vt 0.468750 0.500000
vt 0.484375 1.000000
vt 0.468750 0.937500
vt 0.468750 0.875000
vt 0.468750 0.812500
vt 0.437500 0.875000
vt 0.437500 0.812500
vt 0.437500 0.750000
vt 0.437500 0.687500
vt 0.437500 0.625000
vt 0.437500 0.562500
vt 0.437500 0.500000
vt 0.453125 1.000000
vt 0.437500 0.937500
vt 0.406250 0.625000
vt 0.406250 0.562500
vt 0.406250 0.500000
vt 0.421875 1.000000
vt 0.406250 0.937500
vt 0.406250 0.875000
vt 0.406250 0.812500
vt 0.406250 0.750000
vt 0.406250 0.687500
vt 0.375000 0.812500
vt 0.375000 0.750000
vt 0.375000 0.687500
vt 0.375000 0.625000
vt 0.375000 0.562500
vt 0.375000 0.500000
vt 0.390625 1.000000
vt 0.375000 0.937500
vt 0.375000 0.875000
vt 0.343750 0.625000
vt 0.343750 0.562500
vt 0.343750 0.500000
vt 0.359375 1.000000
vt 0.343750 0.937500
vt 0.343750 0.875000
vt 0.343750 0.812500
vt 0.343750 0.750000
vt 0.343750 0.687500
vt 0.312500 0.812500
vt 0.312500 0.750000
vt 0.312500 0.687500
vt 0.312500 0.625000
vt 0.312500 0.562500
vt 0.312500 0.500000
vt 0.328125 1.000000
vt 0.312500 0.937500
vt 0.312500 0.875000
vt 0.281250 0.625000
vt 0.281250 0.562500
vt 0.281250 0.500000
vt 0.296875 1.000000
vt 0.281250 0.937500
vt 0.281250 0.875000
vt 0.281250 0.812500
vt 0.281250 0.750000
vt 0.281250 0.687500
vt 0.250000 0.750000
vt 0.250000 0.687500
vt 0.250000 0.625000
vt 0.250000 0.562500
vt 0.250000 0.500000
vt 0.265625 1.000000
vt 0.250000 0.937500
vt 0.250000 0.875000
vt 0.250000 0.812500
vt 0.218750 0.562500
vt 0.218750 0.500000
vt 0.234375 1.000000
vt 0.218750 0.937500
vt 0.218750 0.875000
vt 0.218750 0.812500
vt 0.218750 0.750000
vt 0.218750 0.687500
vt 0.218750 0.625000
vt 0.187500 0.750000
vt 0.187500 0.687500
vt 0.187500 0.625000
vt 0.187500 0.562500
vt 0.187500 0.500000
vt 0.203125 1.000000
vt 0.187500 0.937500
vt 0.187500 0.875000
vt 0.187500 0.812500
vt 0.156250 0.562500
vt 0.156250 0.500000
vt 0.171875 1.000000
vt 0.156250 0.937500
vt 0.156250 0.875000
vt 0.156250 0.812500
vt 0.156250 0.750000
vt 0.156250 0.687500
vt 0.156250 0.625000
vt 0.125000 0.750000
vt 0.125000 0.687500
vt 0.125000 0.625000
vt 0.125000 0.562500
vt 0.125000 0.500000
vt 0.140625 1.000000
vt 0.125000 0.937500
vt 0.125000 0.875000
vt 0.125000 0.812500
vt 0.093750 0.875000
vt 0.093750 0.812500
vt 0.093750 0.750000
vt 0.093750 0.687500
vt 0.093750 0.625000
vt 0.093750 0.562500
vt 0.093750 0.500000
vt 0.109375 1.000000
vt 0.093750 0.937500
vt 0.062500 0.625000
vt 0.062500 0.562500
vt 0.062500 0.500000
vt 0.078125 1.000000
vt 0.062500 0.937500
vt 0.062500 0.875000
vt 0.062500 0.812500
vt 0.062500 0.750000
vt 0.062500 0.687500
vt 0.031250 0.875000
vt 0.031250 0.812500
vt 0.031250 0.750000
vt 0.031250 0.687500
vt 0.031250 0.625000
vt 0.031250 0.562500
vt 0.031250 0.500000
vt 0.046875 1.000000
vt 0.031250 0.937500
vt 0.000000 0.625000
vt 0.000000 0.562500
vt 0.000000 0.500000
vt 0.015625 1.000000
vt 0.000000 0.937500
vt 0.000000 0.875000
vt 0.000000 0.812500
vt 0.000000 0.750000
vt 0.000000 0.687500
vt 1.000000 0.812500
vt 0.968750 0.875000
vt 0.968750 0.812500
vt 0.968750 0.750000
vt 1.000000 0.750000
vt 1.000000 0.687500
vt 0.968750 0.687500
vt 0.968750 0.625000
vt 1.000000 0.625000
vt 1.000000 0.562500
vt 0.968750 0.562500
vt 1.000000 0.500000
vt 0.968750 0.500000
vt 1.000000 0.937500
vt 0.984375 1.000000
vt 0.968750 0.937500
vt 1.000000 0.875000
vt 0.937500 0.625000
vt 0.937500 0.562500
vt 0.937500 0.500000
vt 0.953125 1.000000
vt 0.937500 0.937500
vt 0.937500 0.875000
vt 0.937500 0.812500
vt 0.937500 0.750000
vt 0.937500 0.687500
vt 0.906250 0.812500
vt 0.906250 0.750000
vt 0.906250 0.687500
vt 0.906250 0.625000
vt 0.906250 0.562500
vt 0.906250 0.500000
vt 0.921875 1.000000
vt 0.906250 0.937500
vt 0.906250 0.875000
vt 0.875000 0.625000
vt 0.875000 0.562500
vt 0.875000 0.500000
vt 0.890625 1.000000
vt 0.875000 0.937500
vt 0.875000 0.875000
vt 0.875000 0.812500
vt 0.875000 0.750000
vt 0.875000 0.687500
vt 0.843750 0.750000
vt 0.843750 0.687500
vt 0.843750 0.625000
vt 0.843750 0.562500
vt 0.843750 0.500000
vt 0.859375 1.000000
vt 0.843750 0.937500
vt 0.843750 0.875000
vt 0.843750 0.812500
vt 0.812500 0.562500
vt 0.812500 0.500000
vt 0.828125 1.000000
vt 0.812500 0.937500
vt 0.812500 0.875000
vt 0.812500 0.812500
vt 0.812500 0.750000
vt 0.812500 0.687500
vt 0.812500 0.625000
vt 0.781250 0.750000
vt 0.781250 0.687500
vt 0.781250 0.625000
vt 0.781250 0.562500
vt 0.781250 0.500000
vt 0.796875 1.000000
vt 0.781250 0.937500
vt 0.781250 0.875000
vt 0.781250 0.812500
vt 0.765625 1.000000
vt 0.546875 0.000000
vt 0.562500 0.062500
vt 0.531250 0.062500
vt 0.531250 0.125000
vt 0.500000 0.062500
vt 0.515625 0.000000
vt 0.500000 0.375000
vt 0.468750 0.312500
vt 0.500000 0.312500
vt 0.500000 0.250000
vt 0.468750 0.250000
vt 0.500000 0.187500
vt 0.468750 0.187500
vt 0.500000 0.125000
vt 0.468750 0.125000
vt 0.468750 0.062500
vt 0.484375 0.000000
vt 0.500000 0.437500
vt 0.468750 0.375000
vt 0.437500 0.125000
vt 0.437500 0.062500
vt 0.453125 0.000000
vt 0.437500 0.437500
vt 0.437500 0.375000
vt 0.437500 0.312500
vt 0.437500 0.250000
vt 0.437500 0.187500
vt 0.406250 0.312500
vt 0.406250 0.250000
vt 0.406250 0.187500
vt 0.406250 0.125000
vt 0.406250 0.062500
vt 0.421875 0.000000
vt 0.406250 0.437500
vt 0.406250 0.375000
vt 0.390625 0.000000
vt 0.375000 0.062500
vt 0.375000 0.437500
vt 0.375000 0.375000
vt 0.375000 0.312500
vt 0.375000 0.250000
vt 0.375000 0.187500
vt 0.375000 0.125000
vt 0.343750 0.312500
vt 0.343750 0.250000
vt 0.343750 0.187500
vt 0.343750 0.125000
vt 0.343750 0.062500
vt 0.359375 0.000000
vt 0.343750 0.437500
vt 0.343750 0.375000
vt 0.328125 0.000000
vt 0.312500 0.062500
vt 0.312500 0.437500
vt 0.312500 0.375000
vt 0.312500 0.312500
vt 0.312500 0.250000
vt 0.312500 0.187500
vt 0.312500 0.125000
vt 0.281250 0.250000
vt 0.281250 0.187500
vt 0.281250 0.125000
vt 0.281250 0.062500
vt 0.296875 0.000000
vt 0.281250 0.437500
vt 0.281250 0.375000
vt 0.281250 0.312500
vt 0.250000 0.437500
vt 0.250000 0.375000
vt 0.250000 0.312500
vt 0.250000 0.250000
vt 0.250000 0.187500
vt 0.250000 0.125000
vt 0.250000 0.062500
vt 0.265625 0.000000
vt 0.218750 0.250000
vt 0.218750 0.187500
vt 0.218750 0.125000
vt 0.218750 0.062500
vt 0.234375 0.000000
vt 0.218750 0.437500
vt 0.218750 0.375000
vt 0.218750 0.312500
vt 0.187500 0.437500
vt 0.187500 0.375000
vt 0.187500 0.312500
vt 0.187500 0.250000
vt 0.187500 0.187500
vt 0.187500 0.125000
vt 0.187500 0.062500
vt 0.203125 0.000000
vt 0.156250 0.187500
vt 0.156250 0.125000
vt 0.156250 0.062500
vt 0.171875 0.000000
vt 0.156250 0.437500
vt 0.156250 0.375000
vt 0.156250 0.312500
vt 0.156250 0.250000
vt 0.125000 0.375000
vt 0.125000 0.312500
vt 0.125000 0.250000
vt 0.125000 0.187500
vt 0.125000 0.125000
vt 0.125000 0.062500
vt 0.140625 0.000000
vt 0.125000 0.437500
vt 0.093750 0.125000
vt 0.093750 0.062500
vt 0.109375 0.000000
vt 0.093750 0.437500
vt 0.093750 0.375000
vt 0.093750 0.312500
vt 0.093750 0.250000
vt 0.093750 0.187500
vt 0.062500 0.375000
vt 0.062500 0.312500
vt 0.062500 0.250000
vt 0.062500 0.187500
vt 0.062500 0.125000
vt 0.062500 0.062500
vt 0.078125 0.000000
vt 0.062500 0.437500
vt 0.031250 0.125000
vt 0.031250 0.062500
vt 0.046875 0.000000
vt 0.031250 0.437500
vt 0.031250 0.375000
vt 0.031250 0.312500
vt 0.031250 0.250000
vt 0.031250 0.187500
vt 0.000000 0.312500
vt 0.000000 0.250000
vt 0.000000 0.187500
vt 0.000000 0.125000
vt 0.000000 0.062500
vt 0.015625 0.000000
vt 0.000000 0.437500
vt 0.000000 0.375000
vt 0.984375 0.000000
vt 1.000000 0.062500
vt 0.968750 0.062500
vt 0.953125 0.000000
vt 0.937500 0.062500
vt 0.625000 0.000000
vt 0.375000 0.000000
vt 0.625000 0.250000
vt 0.375000 0.500000
vt 0.375000 0.750000
vt 0.375000 1.000000
vt 0.125000 0.750000
vt 0.125000 0.500000
vt 0.875000 0.500000
vt 0.468750 0.437500
vt 0.625000 1.000000
vt 0.875000 0.750000
s 0
f 4/1/1 11/2/1 12/3/1
f 254/4/2 45/5/2 5/6/2
f 255/7/3 5/6/3 6/8/3
f 1/9/4 6/8/4 7/10/4
f 256/11/5 7/10/5 8/12/5
f 2/13/6 8/12/6 9/14/6
f 257/15/7 9/14/7 10/16/7
f 3/17/8 10/16/8 11/2/8
f 11/2/9 18/18/9 19/19/9
f 12/3/10 19/19/10 20/20/10
f 5/6/11 45/21/11 13/22/11
f 5/6/12 14/23/12 6/8/12
f 6/8/13 15/24/13 7/10/13
f 7/10/14 16/25/14 8/12/14
f 8/12/15 17/26/15 9/14/15
f 9/14/16 18/18/16 10/16/16
f 15/24/17 24/27/17 16/25/17
f 16/25/18 25/28/18 17/26/18
f 17/26/19 26/29/19 18/18/19
f 18/18/20 27/30/20 19/19/20
f 19/19/21 28/31/21 20/20/21
f 13/22/22 45/32/22 21/33/22
f 13/22/23 22/34/23 14/23/23
f 14/23/24 23/35/24 15/24/24
f 28/31/25 35/36/25 36/37/25
f 21/33/26 45/38/26 29/39/26
f 21/33/27 30/40/27 22/34/27
f 22/34/28 31/41/28 23/35/28
f 23/35/29 32/42/29 24/27/29
f 24/27/30 33/43/30 25/28/30
f 25/28/31 34/44/31 26/29/31
f 27/30/32 34/44/32 35/36/32
f 31/41/33 40/45/33 32/42/33
f 33/43/34 40/45/34 41/46/34
f 34/44/35 41/46/35 42/47/35
f 35/36/36 42/47/36 43/48/36
f 35/36/37 44/49/37 36/37/37
f 29/39/38 45/50/38 37/51/38
f 29/39/39 38/52/39 30/40/39
f 30/40/40 39/53/40 31/41/40
f 43/48/41 53/54/41 44/49/41
f 37/51/42 45/55/42 46/56/42
f 37/51/43 47/57/43 38/52/43
f 38/52/44 48/58/44 39/53/44
f 39/53/45 49/59/45 40/45/45
f 41/46/46 49/59/46 50/60/46
f 42/47/47 50/60/47 51/61/47
f 43/48/48 51/61/48 52/62/48
f 50/60/49 57/63/49 58/64/49
f 50/60/50 59/65/50 51/61/50
f 51/61/51 60/66/51 52/62/51
f 53/54/52 60/66/52 61/67/52
f 46/56/53 45/68/53 54/69/53
f 47/57/54 54/69/54 55/70/54
f 47/57/55 56/71/55 48/58/55
f 48/58/56 57/63/56 49/59/56
f 54/69/57 45/72/57 62/73/57
f 55/70/58 62/73/58 63/74/58
f 55/70/59 64/75/59 56/71/59
f 56/71/60 65/76/60 57/63/60
f 58/64/61 65/76/61 66/77/61
f 58/64/62 67/78/62 59/65/62
f 59/65/63 68/79/63 60/66/63
f 60/66/64 69/80/64 61/67/64
f 66/77/65 73/81/65 74/82/65
f 66/77/66 75/83/66 67/78/66
f 68/79/67 75/83/67 76/84/67
f 69/80/68 76/84/68 77/85/68
f 62/73/69 45/86/69 70/87/69
f 62/73/70 71/88/70 63/74/70
f 63/74/71 72/89/71 64/75/71
f 64/75/72 73/81/72 65/76/72
f 70/87/73 79/90/73 71/88/73
f 72/89/74 79/90/74 80/91/74
f 72/89/75 81/92/75 73/81/75
f 74/82/76 81/92/76 82/93/76
f 74/82/77 83/94/77 75/83/77
f 76/84/78 83/94/78 84/95/78
f 77/85/79 84/95/79 85/96/79
f 70/87/80 45/97/80 78/98/80
f 82/93/81 91/99/81 83/94/81
f 84/95/82 91/99/82 92/100/82
f 85/96/83 92/100/83 93/101/83
f 78/98/84 45/102/84 86/103/84
f 78/98/85 87/104/85 79/90/85
f 80/91/86 87/104/86 88/105/86
f 80/91/87 89/106/87 81/92/87
f 82/93/88 89/106/88 90/107/88
f 87/104/89 96/108/89 88/105/89
f 88/105/90 97/109/90 89/106/90
f 90/107/91 97/109/91 98/110/91
f 90/107/92 99/111/92 91/99/92
f 92/100/93 99/111/93 100/112/93
f 93/101/94 100/112/94 101/113/94
f 86/103/95 45/114/95 94/115/95
f 86/103/96 95/116/96 87/104/96
f 100/112/97 107/117/97 108/118/97
f 101/113/98 108/118/98 109/119/98
f 94/115/99 45/120/99 102/121/99
f 95/116/100 102/121/100 103/122/100
f 96/108/101 103/122/101 104/123/101
f 96/108/102 105/124/102 97/109/102
f 98/110/103 105/124/103 106/125/103
f 98/110/104 107/117/104 99/111/104
f 103/122/105 112/126/105 104/123/105
f 104/123/106 113/127/106 105/124/106
f 106/125/107 113/127/107 114/128/107
f 106/125/108 115/129/108 107/117/108
f 108/118/109 115/129/109 116/130/109
f 109/119/110 116/130/110 117/131/110
f 102/121/111 45/132/111 110/133/111
f 102/121/112 111/134/112 103/122/112
f 116/130/113 123/135/113 124/136/113
f 117/131/114 124/136/114 125/137/114
f 110/133/115 45/138/115 118/139/115
f 110/133/116 119/140/116 111/134/116
f 111/134/117 120/141/117 112/126/117
f 112/126/118 121/142/118 113/127/118
f 114/128/119 121/142/119 122/143/119
f 114/128/120 123/135/120 115/129/120
f 120/141/121 129/144/121 121/142/121
f 122/143/122 129/144/122 130/145/122
f 122/143/123 131/146/123 123/135/123
f 124/136/124 131/146/124 132/147/124
f 125/137/125 132/147/125 133/148/125
f 118/139/126 45/149/126 126/150/126
f 118/139/127 127/151/127 119/140/127
f 120/141/128 127/151/128 128/152/128
f 133/148/129 140/153/129 141/154/129
f 126/150/130 45/155/130 134/156/130
f 126/150/131 135/157/131 127/151/131
f 127/151/132 136/158/132 128/152/132
f 128/152/133 137/159/133 129/144/133
f 130/145/134 137/159/134 138/160/134
f 130/145/135 139/161/135 131/146/135
f 132/147/136 139/161/136 140/153/136
f 136/158/137 145/162/137 137/159/137
f 138/160/138 145/162/138 146/163/138
f 138/160/139 147/164/139 139/161/139
f 140/153/140 147/164/140 148/165/140
f 141/154/141 148/165/141 149/166/141
f 134/156/142 45/167/142 142/168/142
f 135/157/143 142/168/143 143/169/143
f 135/157/144 144/170/144 136/158/144
f 149/166/145 156/171/145 157/172/145
f 142/168/146 45/173/146 150/174/146
f 143/169/147 150/174/147 151/175/147
f 143/169/148 152/176/148 144/170/148
f 144/170/149 153/177/149 145/162/149
f 146/163/150 153/177/150 154/178/150
f 146/163/151 155/179/151 147/164/151
f 148/165/152 155/179/152 156/171/152
f 154/178/153 161/180/153 162/181/153
f 154/178/154 163/182/154 155/179/154
f 156/171/155 163/182/155 164/183/155
f 157/172/156 164/183/156 165/184/156
f 150/174/157 45/185/157 158/186/157
f 150/174/158 159/187/158 151/175/158
f 151/175/159 160/188/159 152/176/159
f 152/176/160 161/180/160 153/177/160
f 158/186/161 167/189/161 159/187/161
f 159/187/162 168/190/162 160/188/162
f 160/188/163 169/191/163 161/180/163
f 162/181/164 169/191/164 170/192/164
f 162/181/165 171/193/165 163/182/165
f 164/183/166 171/193/166 172/194/166
f 165/184/167 172/194/167 173/195/167
f 158/186/168 45/196/168 166/197/168
f 170/192/169 179/198/169 171/193/169
f 172/194/170 179/198/170 180/199/170
f 173/195/171 180/199/171 181/200/171
f 166/197/172 45/201/172 174/202/172
f 166/197/173 175/203/173 167/189/173
f 167/189/174 176/204/174 168/190/174
f 168/190/175 177/205/175 169/191/175
f 169/191/176 178/206/176 170/192/176
f 174/202/177 183/207/177 175/203/177
f 175/203/178 184/208/178 176/204/178
f 176/204/179 185/209/179 177/205/179
f 178/206/180 185/209/180 186/210/180
f 178/206/181 187/211/181 179/198/181
f 180/199/182 187/211/182 188/212/182
f 181/200/183 188/212/183 189/213/183
f 174/202/184 45/214/184 182/215/184
f 186/210/185 195/216/185 187/211/185
f 188/212/186 195/216/186 196/217/186
f 189/213/187 196/217/187 197/218/187
f 182/215/188 45/219/188 190/220/188
f 182/215/189 191/221/189 183/207/189
f 184/208/190 191/221/190 192/222/190
f 184/208/191 193/223/191 185/209/191
f 186/210/192 193/223/192 194/224/192
f 192/225/193 199/226/193 200/227/193
f 192/225/194 201/228/194 193/229/194
f 194/230/195 201/228/195 202/231/195
f 194/230/196 203/232/196 195/233/196
f 196/234/197 203/232/197 204/235/197
f 197/236/198 204/235/198 205/237/198
f 190/238/199 45/239/199 198/240/199
f 190/238/200 199/226/200 191/241/200
f 204/235/201 211/242/201 212/243/201
f 205/237/202 212/243/202 213/244/202
f 198/240/203 45/245/203 206/246/203
f 198/240/204 207/247/204 199/226/204
f 200/227/205 207/247/205 208/248/205
f 200/227/206 209/249/206 201/228/206
f 202/231/207 209/249/207 210/250/207
f 202/231/208 211/242/208 203/232/208
f 207/247/209 216/251/209 208/248/209
f 208/248/210 217/252/210 209/249/210
f 210/250/211 217/252/211 218/253/211
f 210/250/212 219/254/212 211/242/212
f 212/243/213 219/254/213 220/255/213
f 213/244/214 220/255/214 221/256/214
f 206/246/215 45/257/215 214/258/215
f 207/247/216 214/258/216 215/259/216
f 220/255/217 227/260/217 228/261/217
f 221/256/218 228/261/218 229/262/218
f 214/258/219 45/263/219 222/264/219
f 214/258/220 223/265/220 215/259/220
f 216/251/221 223/265/221 224/266/221
f 216/251/222 225/267/222 217/252/222
f 218/253/223 225/267/223 226/268/223
f 218/253/224 227/260/224 219/254/224
f 224/266/225 233/269/225 225/267/225
f 226/268/226 233/269/226 234/270/226
f 226/268/227 235/271/227 227/260/227
f 228/261/228 235/271/228 236/272/228
f 229/262/229 236/272/229 237/273/229
f 222/264/230 45/274/230 230/275/230
f 222/264/231 231/276/231 223/265/231
f 224/266/232 231/276/232 232/277/232
f 237/273/233 244/278/233 245/279/233
f 230/275/234 45/280/234 238/281/234
f 231/276/235 238/281/235 239/282/235
f 231/276/236 240/283/236 232/277/236
f 232/277/237 241/284/237 233/269/237
f 234/270/238 241/284/238 242/285/238
f 234/270/239 243/286/239 235/271/239
f 236/272/240 243/286/240 244/278/240
f 242/285/241 249/287/241 250/288/241
f 242/285/242 251/289/242 243/286/242
f 244/278/243 251/289/243 252/290/243
f 245/279/244 252/290/244 253/291/244
f 238/281/245 45/292/245 246/293/245
f 238/281/246 247/294/246 239/282/246
f 240/283/247 247/294/247 248/295/247
f 240/283/248 249/287/248 241/284/248
f 246/293/249 45/296/249 254/4/249
f 247/294/250 254/4/250 255/7/250
f 248/295/251 255/7/251 1/9/251
f 249/287/252 1/9/252 256/11/252
f 250/288/253 256/11/253 2/13/253
f 251/289/254 2/13/254 257/15/254
f 252/290/255 257/15/255 3/17/255
f 252/290/256 4/1/256 253/291/256
f 447/4/257 290/5/257 260/6/257
f 448/7/258 260/6/258 261/8/258
f 258/9/259 261/8/259 262/10/259
f 449/11/260 262/10/260 263/12/260
f 259/13/261 263/12/261 264/14/261
f 450/15/262 264/14/262 265/16/262
f 265/16/263 270/26/263 271/18/263
f 260/6/264 290/21/264 266/22/264
f 261/8/265 266/22/265 267/23/265
f 262/10/266 267/23/266 268/24/266
f 263/12/267 268/24/267 269/25/267
f 264/14/268 269/25/268 270/26/268
f 268/24/269 273/34/269 274/35/269
f 269/25/270 274/35/270 275/27/270
f 270/26/271 275/27/271 276/28/271
f 271/18/272 276/28/272 277/29/272
f 266/22/273 290/32/273 272/33/273
f 267/23/274 272/33/274 273/34/274
f 272/33/275 290/38/275 278/39/275
f 273/34/276 278/39/276 279/40/276
f 274/35/277 279/40/277 280/41/277
f 275/27/278 280/41/278 281/42/278
f 276/28/279 281/42/279 282/43/279
f 277/29/280 282/43/280 283/44/280
f 280/41/281 285/52/281 286/53/281
f 281/42/282 286/53/282 287/45/282
f 282/43/283 287/45/283 288/46/283
f 283/44/284 288/46/284 289/47/284
f 278/39/285 290/50/285 284/51/285
f 279/40/286 284/51/286 285/52/286
f 284/51/287 290/55/287 291/56/287
f 285/52/288 291/56/288 292/57/288
f 286/53/289 292/57/289 293/58/289
f 287/45/290 293/58/290 294/59/290
f 288/46/291 294/59/291 295/60/291
f 289/47/292 295/60/292 296/61/292
f 294/59/293 299/71/293 300/63/293
f 295/60/294 300/63/294 301/64/294
f 296/61/295 301/64/295 302/65/295
f 291/56/296 290/68/296 297/69/296
f 292/57/297 297/69/297 298/70/297
f 293/58/298 298/70/298 299/71/298
f 297/69/299 290/72/299 303/73/299
f 298/70/300 303/73/300 304/74/300
f 299/71/301 304/74/301 305/75/301
f 300/63/302 305/75/302 306/76/302
f 301/64/303 306/76/303 307/77/303
f 302/65/304 307/77/304 308/78/304
f 305/75/305 312/81/305 306/76/305
f 306/76/306 313/82/306 307/77/306
f 307/77/307 314/83/307 308/78/307
f 303/73/308 290/86/308 309/87/308
f 303/73/309 310/88/309 304/74/309
f 304/74/310 311/89/310 305/75/310
f 309/87/311 290/97/311 315/98/311
f 309/87/312 316/90/312 310/88/312
f 310/88/313 317/91/313 311/89/313
f 312/81/314 317/91/314 318/92/314
f 312/81/315 319/93/315 313/82/315
f 313/82/316 320/94/316 314/83/316
f 318/92/317 325/107/317 319/93/317
f 319/93/318 326/99/318 320/94/318
f 315/98/319 290/102/319 321/103/319
f 315/98/320 322/104/320 316/90/320
f 317/91/321 322/104/321 323/105/321
f 318/92/322 323/105/322 324/106/322
f 321/103/323 328/116/323 322/104/323
f 323/105/324 328/116/324 329/108/324
f 323/105/325 330/109/325 324/106/325
f 324/106/326 331/110/326 325/107/326
f 325/107/327 332/111/327 326/99/327
f 321/103/328 290/114/328 327/115/328
f 331/110/329 338/117/329 332/111/329
f 327/115/330 290/120/330 333/121/330
f 328/116/331 333/121/331 334/122/331
f 328/116/332 335/123/332 329/108/332
f 329/108/333 336/124/333 330/109/333
f 330/109/334 337/125/334 331/110/334
f 334/122/335 339/133/335 340/134/335
f 334/122/336 341/126/336 335/123/336
f 335/123/337 342/127/337 336/124/337
f 336/124/338 343/128/338 337/125/338
f 337/125/339 344/129/339 338/117/339
f 277/29/340 320/94/340 338/117/340
f 333/121/341 290/132/341 339/133/341
f 343/128/342 350/135/342 344/129/342
f 339/133/343 290/138/343 345/139/343
f 340/134/344 345/139/344 346/140/344
f 340/134/345 347/141/345 341/126/345
f 341/126/346 348/142/346 342/127/346
f 342/127/347 349/143/347 343/128/347
f 346/140/348 353/152/348 347/141/348
f 347/141/349 354/144/349 348/142/349
f 348/142/350 355/145/350 349/143/350
f 349/143/351 356/146/351 350/135/351
f 345/139/352 290/149/352 351/150/352
f 346/140/353 351/150/353 352/151/353
f 351/150/354 290/155/354 357/156/354
f 351/150/355 358/157/355 352/151/355
f 353/152/356 358/157/356 359/158/356
f 354/144/357 359/158/357 360/159/357
f 355/145/358 360/159/358 361/160/358
f 356/146/359 361/160/359 362/161/359
f 359/158/360 364/169/360 365/170/360
f 360/159/361 365/170/361 366/162/361
f 361/160/362 366/162/362 367/163/362
f 362/161/363 367/163/363 368/164/363
f 357/156/364 290/167/364 363/168/364
f 357/156/365 364/169/365 358/157/365
f 363/168/366 290/173/366 369/174/366
f 363/168/367 370/175/367 364/169/367
f 365/170/368 370/175/368 371/176/368
f 366/162/369 371/176/369 372/177/369
f 367/163/370 372/177/370 373/178/370
f 368/164/371 373/178/371 374/179/371
f 372/177/372 377/188/372 378/180/372
f 373/178/373 378/180/373 379/181/373
f 374/179/374 379/181/374 380/182/374
f 369/174/375 290/185/375 375/186/375
f 369/174/376 376/187/376 370/175/376
f 371/176/377 376/187/377 377/188/377
f 375/186/378 290/196/378 381/197/378
f 376/187/379 381/197/379 382/189/379
f 376/187/380 383/190/380 377/188/380
f 378/180/381 383/190/381 384/191/381
f 379/181/382 384/191/382 385/192/382
f 380/182/383 385/192/383 386/193/383
f 385/192/384 390/205/384 391/206/384
f 386/193/385 391/206/385 392/198/385
f 381/197/386 290/201/386 387/202/386
f 382/189/387 387/202/387 388/203/387
f 382/189/388 389/204/388 383/190/388
f 383/190/389 390/205/389 384/191/389
f 387/202/390 290/214/390 393/215/390
f 388/203/391 393/215/391 394/207/391
f 389/204/392 394/207/392 395/208/392
f 389/204/393 396/209/393 390/205/393
f 391/206/394 396/209/394 397/210/394
f 392/198/395 397/210/395 398/211/395
f 397/210/396 402/223/396 403/224/396
f 398/211/397 403/224/397 404/216/397
f 393/215/398 290/219/398 399/220/398
f 394/207/399 399/220/399 400/221/399
f 395/208/400 400/221/400 401/222/400
f 396/209/401 401/222/401 402/223/401
f 399/238/402 406/226/402 400/241/402
f 400/241/403 407/227/403 401/225/403
f 401/225/404 408/228/404 402/229/404
f 402/229/405 409/231/405 403/230/405
f 403/230/406 410/232/406 404/233/406
f 399/238/407 290/239/407 405/240/407
f 409/231/408 416/242/408 410/232/408
f 405/240/409 290/245/409 411/246/409
f 405/240/410 412/247/410 406/226/410
f 406/226/411 413/248/411 407/227/411
f 407/227/412 414/249/412 408/228/412
f 408/228/413 415/250/413 409/231/413
f 411/246/414 418/259/414 412/247/414
f 412/247/415 419/251/415 413/248/415
f 413/248/416 420/252/416 414/249/416
f 414/249/417 421/253/417 415/250/417
f 415/250/418 422/254/418 416/242/418
f 411/246/419 290/257/419 417/258/419
f 421/253/420 428/260/420 422/254/420
f 417/258/421 290/263/421 423/264/421
f 417/258/422 424/265/422 418/259/422
f 418/259/423 425/266/423 419/251/423
f 419/251/424 426/267/424 420/252/424
f 420/252/425 427/268/425 421/253/425
f 424/265/426 431/277/426 425/266/426
f 425/266/427 432/269/427 426/267/427
f 426/267/428 433/270/428 427/268/428
f 427/268/429 434/271/429 428/260/429
f 423/264/430 290/274/430 429/275/430
f 423/264/431 430/276/431 424/265/431
f 429/275/432 290/280/432 435/281/432
f 429/275/433 436/282/433 430/276/433
f 430/276/434 437/283/434 431/277/434
f 431/277/435 438/284/435 432/269/435
f 432/269/436 439/285/436 433/270/436
f 433/270/437 440/286/437 434/271/437
f 437/283/438 444/287/438 438/284/438
f 438/284/439 445/288/439 439/285/439
f 439/285/440 446/289/440 440/286/440
f 435/281/441 290/292/441 441/293/441
f 435/281/442 442/294/442 436/282/442
f 436/282/443 443/295/443 437/283/443
f 441/293/444 290/296/444 447/4/444
f 441/293/445 448/7/445 442/294/445
f 442/294/446 258/9/446 443/295/446
f 443/295/447 449/11/447 444/287/447
f 444/287/448 259/13/448 445/288/448
f 445/288/449 450/15/449 446/289/449
f 545/297/450 451/298/450 453/299/450
f 452/300/451 460/301/451 453/299/451
f 545/302/452 453/299/452 460/301/452
f 455/303/453 463/304/453 456/305/453
f 457/306/454 463/304/454 464/307/454
f 458/308/455 464/307/455 465/309/455
f 459/310/456 465/309/456 466/311/456
f 460/301/457 466/311/457 467/312/457
f 545/313/458 460/301/458 467/312/458
f 454/314/459 462/315/459 455/303/459
f 467/312/460 473/316/460 474/317/460
f 545/318/461 467/312/461 474/317/461
f 462/315/462 468/319/462 469/320/462
f 462/315/463 470/321/463 463/304/463
f 463/304/464 471/322/464 464/307/464
f 464/307/465 472/323/465 465/309/465
f 466/311/466 472/323/466 473/316/466
f 471/322/467 477/324/467 478/325/467
f 471/322/468 479/326/468 472/323/468
f 472/323/469 480/327/469 473/316/469
f 474/317/470 480/327/470 481/328/470
f 545/329/471 474/317/471 481/328/471
f 469/320/472 475/330/472 476/331/472
f 470/321/473 476/331/473 477/324/473
f 545/332/474 481/328/474 488/333/474
f 476/331/475 482/334/475 483/335/475
f 477/324/476 483/335/476 484/336/476
f 478/325/477 484/336/477 485/337/477
f 479/326/478 485/337/478 486/338/478
f 480/327/479 486/338/479 487/339/479
f 481/328/480 487/339/480 488/333/480
f 485/337/481 491/340/481 492/341/481
f 486/338/482 492/341/482 493/342/482
f 487/339/483 493/342/483 494/343/483
f 488/333/484 494/343/484 495/344/484
f 545/345/485 488/333/485 495/344/485
f 483/335/486 489/346/486 490/347/486
f 484/336/487 490/347/487 491/340/487
f 545/348/488 495/344/488 502/349/488
f 490/347/489 496/350/489 497/351/489
f 491/340/490 497/351/490 498/352/490
f 492/341/491 498/352/491 499/353/491
f 493/342/492 499/353/492 500/354/492
f 494/343/493 500/354/493 501/355/493
f 495/344/494 501/355/494 502/349/494
f 500/354/495 506/356/495 507/357/495
f 501/355/496 507/357/496 508/358/496
f 502/349/497 508/358/497 509/359/497
f 545/360/498 502/349/498 509/359/498
f 497/351/499 503/361/499 504/362/499
f 498/352/500 504/362/500 505/363/500
f 499/353/501 505/363/501 506/356/501
f 504/362/502 510/364/502 511/365/502
f 505/363/503 511/365/503 512/366/503
f 506/356/504 512/366/504 513/367/504
f 507/357/505 513/367/505 514/368/505
f 508/358/506 514/368/506 515/369/506
f 509/359/507 515/369/507 516/370/507
f 545/371/508 509/359/508 516/370/508
f 514/368/509 520/372/509 521/373/509
f 515/369/510 521/373/510 522/374/510
f 516/370/511 522/374/511 523/375/511
f 545/376/512 516/370/512 523/375/512
f 511/365/513 517/377/513 518/378/513
f 512/366/514 518/378/514 519/379/514
f 513/367/515 519/379/515 520/372/515
f 518/378/516 524/380/516 525/381/516
f 519/379/517 525/381/517 526/382/517
f 520/372/518 526/382/518 527/383/518
f 521/373/519 527/383/519 528/384/519
f 522/374/520 528/384/520 529/385/520
f 523/375/521 529/385/521 530/386/521
f 545/387/522 523/375/522 530/386/522
f 529/385/523 535/388/523 536/389/523
f 530/386/524 536/389/524 537/390/524
f 545/391/525 530/386/525 537/390/525
f 525/381/526 531/392/526 532/393/526
f 526/382/527 532/393/527 533/394/527
f 527/383/528 533/394/528 534/395/528
f 528/384/529 534/395/529 535/388/529
f 533/394/530 539/396/530 540/397/530
f 534/395/531 540/397/531 541/398/531
f 535/388/532 541/398/532 542/399/532
f 536/389/533 542/399/533 543/400/533
f 537/390/534 543/400/534 544/401/534
f 545/402/535 537/390/535 544/401/535
f 532/393/536 538/403/536 539/396/536
f 544/401/537 551/404/537 552/405/537
f 545/406/538 544/401/538 552/405/538
f 539/396/539 546/407/539 547/408/539
f 540/397/540 547/408/540 548/409/540
f 541/398/541 548/409/541 549/410/541
f 542/399/542 549/410/542 550/411/542
f 543/400/543 550/411/543 551/404/543
f 548/409/544 554/412/544 555/413/544
f 549/410/545 555/413/545 556/414/545
f 550/411/546 556/414/546 557/415/546
f 551/404/547 557/415/547 558/416/547
f 552/405/548 558/416/548 559/417/548
f 545/418/549 552/405/549 559/417/549
f 547/408/550 553/419/550 554/412/550
f 559/417/551 565/420/551 566/421/551
f 545/422/552 559/417/552 566/421/552
f 554/412/553 560/423/553 561/424/553
f 555/413/554 561/424/554 562/425/554
f 555/413/555 563/426/555 556/414/555
f 557/415/556 563/426/556 564/427/556
f 558/416/557 564/427/557 565/420/557
f 563/426/558 569/428/558 570/429/558
f 564/427/559 570/429/559 571/430/559
f 565/420/560 571/430/560 572/431/560
f 566/421/561 572/431/561 573/432/561
f 545/433/562 566/421/562 573/432/562
f 561/424/563 567/434/563 568/435/563
f 562/425/564 568/435/564 569/428/564
f 545/436/565 573/437/565 574/438/565
f 545/439/566 574/438/566 575/440/566
f 577/441/567 578/337/567 576/442/567
f 579/443/568 582/444/568 578/337/568
f 583/37/569 580/445/569 582/444/569
f 581/42/570 576/446/570 580/445/570
f 582/444/571 576/447/571 578/448/571
f 579/449/572 581/42/572 583/37/572
f 585/441/569 586/337/569 584/442/569
f 587/443/568 590/444/568 586/337/568
f 591/37/567 588/445/567 590/444/567
f 589/42/570 584/446/570 588/445/570
f 590/444/572 584/447/572 586/448/572
f 587/449/571 589/42/571 591/37/571
f 4/1/573 3/17/573 11/2/573
f 255/7/3 254/4/3 5/6/3
f 1/9/4 255/7/4 6/8/4
f 256/11/5 1/9/5 7/10/5
f 2/13/6 256/11/6 8/12/6
f 257/15/7 2/13/7 9/14/7
f 3/17/8 257/15/8 10/16/8
f 11/2/574 10/16/574 18/18/574
f 12/3/575 11/2/575 19/19/575
f 5/6/12 13/22/12 14/23/12
f 6/8/13 14/23/13 15/24/13
f 7/10/14 15/24/14 16/25/14
f 8/12/15 16/25/15 17/26/15
f 9/14/16 17/26/16 18/18/16
f 15/24/17 23/35/17 24/27/17
f 16/25/18 24/27/18 25/28/18
f 17/26/19 25/28/19 26/29/19
f 18/18/20 26/29/20 27/30/20
f 19/19/21 27/30/21 28/31/21
f 13/22/23 21/33/23 22/34/23
f 14/23/24 22/34/24 23/35/24
f 28/31/25 27/30/25 35/36/25
f 21/33/27 29/39/27 30/40/27
f 22/34/28 30/40/28 31/41/28
f 23/35/29 31/41/29 32/42/29
f 24/27/30 32/42/30 33/43/30
f 25/28/31 33/43/31 34/44/31
f 27/30/32 26/29/32 34/44/32
f 31/41/33 39/53/33 40/45/33
f 33/43/34 32/42/34 40/45/34
f 34/44/576 33/43/576 41/46/576
f 35/36/577 34/44/577 42/47/577
f 35/36/578 43/48/578 44/49/578
f 29/39/39 37/51/39 38/52/39
f 30/40/40 38/52/40 39/53/40
f 43/48/579 52/62/579 53/54/579
f 37/51/43 46/56/43 47/57/43
f 38/52/44 47/57/44 48/58/44
f 39/53/45 48/58/45 49/59/45
f 41/46/46 40/45/46 49/59/46
f 42/47/580 41/46/580 50/60/580
f 43/48/581 42/47/581 51/61/581
f 50/60/49 49/59/49 57/63/49
f 50/60/582 58/64/582 59/65/582
f 51/61/583 59/65/583 60/66/583
f 53/54/584 52/62/584 60/66/584
f 47/57/54 46/56/54 54/69/54
f 47/57/55 55/70/55 56/71/55
f 48/58/56 56/71/56 57/63/56
f 55/70/58 54/69/58 62/73/58
f 55/70/59 63/74/59 64/75/59
f 56/71/60 64/75/60 65/76/60
f 58/64/61 57/63/61 65/76/61
f 58/64/62 66/77/62 67/78/62
f 59/65/585 67/78/585 68/79/585
f 60/66/586 68/79/586 69/80/586
f 66/77/65 65/76/65 73/81/65
f 66/77/66 74/82/66 75/83/66
f 68/79/67 67/78/67 75/83/67
f 69/80/68 68/79/68 76/84/68
f 62/73/70 70/87/70 71/88/70
f 63/74/71 71/88/71 72/89/71
f 64/75/72 72/89/72 73/81/72
f 70/87/73 78/98/73 79/90/73
f 72/89/74 71/88/74 79/90/74
f 72/89/75 80/91/75 81/92/75
f 74/82/76 73/81/76 81/92/76
f 74/82/77 82/93/77 83/94/77
f 76/84/78 75/83/78 83/94/78
f 77/85/79 76/84/79 84/95/79
f 82/93/81 90/107/81 91/99/81
f 84/95/82 83/94/82 91/99/82
f 85/96/83 84/95/83 92/100/83
f 78/98/85 86/103/85 87/104/85
f 80/91/86 79/90/86 87/104/86
f 80/91/87 88/105/87 89/106/87
f 82/93/88 81/92/88 89/106/88
f 87/104/89 95/116/89 96/108/89
f 88/105/90 96/108/90 97/109/90
f 90/107/91 89/106/91 97/109/91
f 90/107/92 98/110/92 99/111/92
f 92/100/93 91/99/93 99/111/93
f 93/101/94 92/100/94 100/112/94
f 86/103/96 94/115/96 95/116/96
f 100/112/97 99/111/97 107/117/97
f 101/113/98 100/112/98 108/118/98
f 95/116/100 94/115/100 102/121/100
f 96/108/101 95/116/101 103/122/101
f 96/108/102 104/123/102 105/124/102
f 98/110/103 97/109/103 105/124/103
f 98/110/104 106/125/104 107/117/104
f 103/122/105 111/134/105 112/126/105
f 104/123/106 112/126/106 113/127/106
f 106/125/107 105/124/107 113/127/107
f 106/125/108 114/128/108 115/129/108
f 108/118/109 107/117/109 115/129/109
f 109/119/110 108/118/110 116/130/110
f 102/121/112 110/133/112 111/134/112
f 116/130/113 115/129/113 123/135/113
f 117/131/114 116/130/114 124/136/114
f 110/133/116 118/139/116 119/140/116
f 111/134/117 119/140/117 120/141/117
f 112/126/118 120/141/118 121/142/118
f 114/128/119 113/127/119 121/142/119
f 114/128/120 122/143/120 123/135/120
f 120/141/121 128/152/121 129/144/121
f 122/143/122 121/142/122 129/144/122
f 122/143/123 130/145/123 131/146/123
f 124/136/124 123/135/124 131/146/124
f 125/137/125 124/136/125 132/147/125
f 118/139/127 126/150/127 127/151/127
f 120/141/128 119/140/128 127/151/128
f 133/148/129 132/147/129 140/153/129
f 126/150/131 134/156/131 135/157/131
f 127/151/132 135/157/132 136/158/132
f 128/152/133 136/158/133 137/159/133
f 130/145/134 129/144/134 137/159/134
f 130/145/135 138/160/135 139/161/135
f 132/147/136 131/146/136 139/161/136
f 136/158/137 144/170/137 145/162/137
f 138/160/138 137/159/138 145/162/138
f 138/160/139 146/163/139 147/164/139
f 140/153/140 139/161/140 147/164/140
f 141/154/141 140/153/141 148/165/141
f 135/157/143 134/156/143 142/168/143
f 135/157/144 143/169/144 144/170/144
f 149/166/145 148/165/145 156/171/145
f 143/169/147 142/168/147 150/174/147
f 143/169/148 151/175/148 152/176/148
f 144/170/149 152/176/149 153/177/149
f 146/163/150 145/162/150 153/177/150
f 146/163/151 154/178/151 155/179/151
f 148/165/152 147/164/152 155/179/152
f 154/178/153 153/177/153 161/180/153
f 154/178/154 162/181/154 163/182/154
f 156/171/155 155/179/155 163/182/155
f 157/172/156 156/171/156 164/183/156
f 150/174/158 158/186/158 159/187/158
f 151/175/159 159/187/159 160/188/159
f 152/176/160 160/188/160 161/180/160
f 158/186/161 166/197/161 167/189/161
f 159/187/162 167/189/162 168/190/162
f 160/188/163 168/190/163 169/191/163
f 162/181/164 161/180/164 169/191/164
f 162/181/165 170/192/165 171/193/165
f 164/183/166 163/182/166 171/193/166
f 165/184/167 164/183/167 172/194/167
f 170/192/169 178/206/169 179/198/169
f 172/194/170 171/193/170 179/198/170
f 173/195/171 172/194/171 180/199/171
f 166/197/173 174/202/173 175/203/173
f 167/189/174 175/203/174 176/204/174
f 168/190/175 176/204/175 177/205/175
f 169/191/176 177/205/176 178/206/176
f 174/202/177 182/215/177 183/207/177
f 175/203/178 183/207/178 184/208/178
f 176/204/179 184/208/179 185/209/179
f 178/206/180 177/205/180 185/209/180
f 178/206/181 186/210/181 187/211/181
f 180/199/182 179/198/182 187/211/182
f 181/200/183 180/199/183 188/212/183
f 186/210/185 194/224/185 195/216/185
f 188/212/186 187/211/186 195/216/186
f 189/213/187 188/212/187 196/217/187
f 182/215/189 190/220/189 191/221/189
f 184/208/190 183/207/190 191/221/190
f 184/208/191 192/222/191 193/223/191
f 186/210/192 185/209/192 193/223/192
f 192/225/193 191/241/193 199/226/193
f 192/225/194 200/227/194 201/228/194
f 194/230/195 193/229/195 201/228/195
f 194/230/196 202/231/196 203/232/196
f 196/234/197 195/233/197 203/232/197
f 197/236/198 196/234/198 204/235/198
f 190/238/200 198/240/200 199/226/200
f 204/235/201 203/232/201 211/242/201
f 205/237/202 204/235/202 212/243/202
f 198/240/204 206/246/204 207/247/204
f 200/227/205 199/226/205 207/247/205
f 200/227/206 208/248/206 209/249/206
f 202/231/207 201/228/207 209/249/207
f 202/231/208 210/250/208 211/242/208
f 207/247/209 215/259/209 216/251/209
f 208/248/210 216/251/210 217/252/210
f 210/250/211 209/249/211 217/252/211
f 210/250/212 218/253/212 219/254/212
f 212/243/213 211/242/213 219/254/213
f 213/244/214 212/243/214 220/255/214
f 207/247/216 206/246/216 214/258/216
f 220/255/217 219/254/217 227/260/217
f 221/256/218 220/255/218 228/261/218
f 214/258/220 222/264/220 223/265/220
f 216/251/221 215/259/221 223/265/221
f 216/251/222 224/266/222 225/267/222
f 218/253/223 217/252/223 225/267/223
f 218/253/224 226/268/224 227/260/224
f 224/266/225 232/277/225 233/269/225
f 226/268/226 225/267/226 233/269/226
f 226/268/227 234/270/227 235/271/227
f 228/261/228 227/260/228 235/271/228
f 229/262/229 228/261/229 236/272/229
f 222/264/231 230/275/231 231/276/231
f 224/266/232 223/265/232 231/276/232
f 237/273/233 236/272/233 244/278/233
f 231/276/235 230/275/235 238/281/235
f 231/276/236 239/282/236 240/283/236
f 232/277/237 240/283/237 241/284/237
f 234/270/238 233/269/238 241/284/238
f 234/270/239 242/285/239 243/286/239
f 236/272/240 235/271/240 243/286/240
f 242/285/241 241/284/241 249/287/241
f 242/285/242 250/288/242 251/289/242
f 244/278/243 243/286/243 251/289/243
f 245/279/244 244/278/244 252/290/244
f 238/281/246 246/293/246 247/294/246
f 240/283/247 239/282/247 247/294/247
f 240/283/248 248/295/248 249/287/248
f 247/294/250 246/293/250 254/4/250
f 248/295/251 247/294/251 255/7/251
f 249/287/252 248/295/252 1/9/252
f 250/288/253 249/287/253 256/11/253
f 251/289/254 250/288/254 2/13/254
f 252/290/587 251/289/587 257/15/587
f 252/290/588 3/17/588 4/1/588
f 448/7/589 447/4/589 260/6/589
f 258/9/259 448/7/259 261/8/259
f 449/11/590 258/9/590 262/10/590
f 259/13/261 449/11/261 263/12/261
f 450/15/262 259/13/262 264/14/262
f 265/16/263 264/14/263 270/26/263
f 261/8/591 260/6/591 266/22/591
f 262/10/266 261/8/266 267/23/266
f 263/12/592 262/10/592 268/24/592
f 264/14/593 263/12/593 269/25/593
f 268/24/269 267/23/269 273/34/269
f 269/25/270 268/24/270 274/35/270
f 270/26/594 269/25/594 275/27/594
f 271/18/272 270/26/272 276/28/272
f 267/23/595 266/22/595 272/33/595
f 273/34/596 272/33/596 278/39/596
f 274/35/277 273/34/277 279/40/277
f 275/27/278 274/35/278 280/41/278
f 276/28/597 275/27/597 281/42/597
f 277/29/598 276/28/598 282/43/598
f 280/41/599 279/40/599 285/52/599
f 281/42/282 280/41/282 286/53/282
f 282/43/283 281/42/283 287/45/283
f 283/44/284 282/43/284 288/46/284
f 279/40/600 278/39/600 284/51/600
f 285/52/288 284/51/288 291/56/288
f 286/53/601 285/52/601 292/57/601
f 287/45/602 286/53/602 293/58/602
f 288/46/603 287/45/603 294/59/603
f 289/47/604 288/46/604 295/60/604
f 294/59/293 293/58/293 299/71/293
f 295/60/294 294/59/294 300/63/294
f 296/61/295 295/60/295 301/64/295
f 292/57/297 291/56/297 297/69/297
f 293/58/298 292/57/298 298/70/298
f 298/70/300 297/69/300 303/73/300
f 299/71/301 298/70/301 304/74/301
f 300/63/302 299/71/302 305/75/302
f 301/64/303 300/63/303 306/76/303
f 302/65/304 301/64/304 307/77/304
f 305/75/305 311/89/305 312/81/305
f 306/76/306 312/81/306 313/82/306
f 307/77/307 313/82/307 314/83/307
f 303/73/309 309/87/309 310/88/309
f 304/74/310 310/88/310 311/89/310
f 309/87/312 315/98/312 316/90/312
f 310/88/313 316/90/313 317/91/313
f 312/81/605 311/89/605 317/91/605
f 312/81/606 318/92/606 319/93/606
f 313/82/607 319/93/607 320/94/607
f 318/92/317 324/106/317 325/107/317
f 319/93/318 325/107/318 326/99/318
f 315/98/320 321/103/320 322/104/320
f 317/91/608 316/90/608 322/104/608
f 318/92/609 317/91/609 323/105/609
f 321/103/610 327/115/610 328/116/610
f 323/105/611 322/104/611 328/116/611
f 323/105/325 329/108/325 330/109/325
f 324/106/326 330/109/326 331/110/326
f 325/107/327 331/110/327 332/111/327
f 331/110/329 337/125/329 338/117/329
f 328/116/612 327/115/612 333/121/612
f 328/116/613 334/122/613 335/123/613
f 329/108/614 335/123/614 336/124/614
f 330/109/615 336/124/615 337/125/615
f 334/122/616 333/121/616 339/133/616
f 334/122/336 340/134/336 341/126/336
f 335/123/337 341/126/337 342/127/337
f 336/124/338 342/127/338 343/128/338
f 337/125/339 343/128/339 344/129/339
f 265/16/571 271/18/571 277/29/571
f 277/29/571 283/44/571 289/47/571
f 289/47/617 296/61/617 302/65/617
f 302/65/571 308/78/571 314/83/571
f 320/94/571 326/99/571 332/111/571
f 302/65/618 314/83/618 320/94/618
f 277/29/619 289/47/619 302/65/619
f 350/135/620 265/16/620 277/29/620
f 338/117/571 344/129/571 350/135/571
f 320/94/571 332/111/571 338/117/571
f 277/29/621 302/65/621 320/94/621
f 338/117/622 350/135/622 277/29/622
f 343/128/342 349/143/342 350/135/342
f 340/134/623 339/133/623 345/139/623
f 340/134/345 346/140/345 347/141/345
f 341/126/346 347/141/346 348/142/346
f 342/127/347 348/142/347 349/143/347
f 346/140/348 352/151/348 353/152/348
f 347/141/624 353/152/624 354/144/624
f 348/142/350 354/144/350 355/145/350
f 349/143/351 355/145/351 356/146/351
f 346/140/625 345/139/625 351/150/625
f 351/150/626 357/156/626 358/157/626
f 353/152/356 352/151/356 358/157/356
f 354/144/627 353/152/627 359/158/627
f 355/145/358 354/144/358 360/159/358
f 356/146/359 355/145/359 361/160/359
f 359/158/360 358/157/360 364/169/360
f 360/159/361 359/158/361 365/170/361
f 361/160/362 360/159/362 366/162/362
f 362/161/363 361/160/363 367/163/363
f 357/156/628 363/168/628 364/169/628
f 363/168/629 369/174/629 370/175/629
f 365/170/368 364/169/368 370/175/368
f 366/162/369 365/170/369 371/176/369
f 367/163/370 366/162/370 372/177/370
f 368/164/371 367/163/371 373/178/371
f 372/177/630 371/176/630 377/188/630
f 373/178/373 372/177/373 378/180/373
f 374/179/374 373/178/374 379/181/374
f 369/174/631 375/186/631 376/187/631
f 371/176/632 370/175/632 376/187/632
f 376/187/633 375/186/633 381/197/633
f 376/187/634 382/189/634 383/190/634
f 378/180/381 377/188/381 383/190/381
f 379/181/382 378/180/382 384/191/382
f 380/182/383 379/181/383 385/192/383
f 385/192/384 384/191/384 390/205/384
f 386/193/385 385/192/385 391/206/385
f 382/189/387 381/197/387 387/202/387
f 382/189/635 388/203/635 389/204/635
f 383/190/636 389/204/636 390/205/636
f 388/203/391 387/202/391 393/215/391
f 389/204/392 388/203/392 394/207/392
f 389/204/637 395/208/637 396/209/637
f 391/206/638 390/205/638 396/209/638
f 392/198/639 391/206/639 397/210/639
f 397/210/396 396/209/396 402/223/396
f 398/211/397 397/210/397 403/224/397
f 394/207/399 393/215/399 399/220/399
f 395/208/400 394/207/400 400/221/400
f 396/209/401 395/208/401 401/222/401
f 399/238/402 405/240/402 406/226/402
f 400/241/403 406/226/403 407/227/403
f 401/225/404 407/227/404 408/228/404
f 402/229/405 408/228/405 409/231/405
f 403/230/406 409/231/406 410/232/406
f 409/231/640 415/250/640 416/242/640
f 405/240/410 411/246/410 412/247/410
f 406/226/411 412/247/411 413/248/411
f 407/227/412 413/248/412 414/249/412
f 408/228/641 414/249/641 415/250/641
f 411/246/414 417/258/414 418/259/414
f 412/247/642 418/259/642 419/251/642
f 413/248/643 419/251/643 420/252/643
f 414/249/644 420/252/644 421/253/644
f 415/250/645 421/253/645 422/254/645
f 421/253/646 427/268/646 428/260/646
f 417/258/647 423/264/647 424/265/647
f 418/259/648 424/265/648 425/266/648
f 419/251/424 425/266/424 426/267/424
f 420/252/425 426/267/425 427/268/425
f 424/265/426 430/276/426 431/277/426
f 425/266/427 431/277/427 432/269/427
f 426/267/649 432/269/649 433/270/649
f 427/268/650 433/270/650 434/271/650
f 423/264/651 429/275/651 430/276/651
f 429/275/652 435/281/652 436/282/652
f 430/276/434 436/282/434 437/283/434
f 431/277/435 437/283/435 438/284/435
f 432/269/653 438/284/653 439/285/653
f 433/270/437 439/285/437 440/286/437
f 437/283/654 443/295/654 444/287/654
f 438/284/655 444/287/655 445/288/655
f 439/285/440 445/288/440 446/289/440
f 435/281/656 441/293/656 442/294/656
f 436/282/443 442/294/443 443/295/443
f 441/293/657 447/4/657 448/7/657
f 442/294/446 448/7/446 258/9/446
f 443/295/658 258/9/658 449/11/658
f 444/287/448 449/11/448 259/13/448
f 445/288/449 259/13/449 450/15/449
f 452/300/451 459/310/451 460/301/451
f 455/303/659 462/315/659 463/304/659
f 457/306/454 456/305/454 463/304/454
f 458/308/455 457/306/455 464/307/455
f 459/310/456 458/308/456 465/309/456
f 460/301/457 459/310/457 466/311/457
f 454/314/660 461/450/660 462/315/660
f 467/312/460 466/311/460 473/316/460
f 462/315/462 461/450/462 468/319/462
f 462/315/661 469/320/661 470/321/661
f 463/304/662 470/321/662 471/322/662
f 464/307/663 471/322/663 472/323/663
f 466/311/466 465/309/466 472/323/466
f 471/322/467 470/321/467 477/324/467
f 471/322/664 478/325/664 479/326/664
f 472/323/665 479/326/665 480/327/665
f 474/317/470 473/316/470 480/327/470
f 469/320/472 468/319/472 475/330/472
f 470/321/473 469/320/473 476/331/473
f 476/331/475 475/330/475 482/334/475
f 477/324/476 476/331/476 483/335/476
f 478/325/477 477/324/477 484/336/477
f 479/326/478 478/325/478 485/337/478
f 480/327/666 479/326/666 486/338/666
f 481/328/667 480/327/667 487/339/667
f 485/337/481 484/336/481 491/340/481
f 486/338/482 485/337/482 492/341/482
f 487/339/483 486/338/483 493/342/483
f 488/333/668 487/339/668 494/343/668
f 483/335/486 482/334/486 489/346/486
f 484/336/487 483/335/487 490/347/487
f 490/347/489 489/346/489 496/350/489
f 491/340/490 490/347/490 497/351/490
f 492/341/491 491/340/491 498/352/491
f 493/342/492 492/341/492 499/353/492
f 494/343/493 493/342/493 500/354/493
f 495/344/494 494/343/494 501/355/494
f 500/354/495 499/353/495 506/356/495
f 501/355/496 500/354/496 507/357/496
f 502/349/669 501/355/669 508/358/669
f 497/351/499 496/350/499 503/361/499
f 498/352/500 497/351/500 504/362/500
f 499/353/501 498/352/501 505/363/501
f 504/362/502 503/361/502 510/364/502
f 505/363/503 504/362/503 511/365/503
f 506/356/504 505/363/504 512/366/504
f 507/357/670 506/356/670 513/367/670
f 508/358/671 507/357/671 514/368/671
f 509/359/507 508/358/507 515/369/507
f 514/368/509 513/367/509 520/372/509
f 515/369/672 514/368/672 521/373/672
f 516/370/673 515/369/673 522/374/673
f 511/365/513 510/364/513 517/377/513
f 512/366/514 511/365/514 518/378/514
f 513/367/515 512/366/515 519/379/515
f 518/378/516 517/377/516 524/380/516
f 519/379/517 518/378/517 525/381/517
f 520/372/518 519/379/518 526/382/518
f 521/373/519 520/372/519 527/383/519
f 522/374/520 521/373/520 528/384/520
f 523/375/674 522/374/674 529/385/674
f 529/385/523 528/384/523 535/388/523
f 530/386/524 529/385/524 536/389/524
f 525/381/526 524/380/526 531/392/526
f 526/382/527 525/381/527 532/393/527
f 527/383/528 526/382/528 533/394/528
f 528/384/529 527/383/529 534/395/529
f 533/394/530 532/393/530 539/396/530
f 534/395/531 533/394/531 540/397/531
f 535/388/532 534/395/532 541/398/532
f 536/389/533 535/388/533 542/399/533
f 537/390/675 536/389/675 543/400/675
f 532/393/536 531/392/536 538/403/536
f 544/401/676 543/400/676 551/404/676
f 539/396/539 538/403/539 546/407/539
f 540/397/540 539/396/540 547/408/540
f 541/398/541 540/397/541 548/409/541
f 542/399/542 541/398/542 549/410/542
f 543/400/677 542/399/677 550/411/677
f 548/409/544 547/408/544 554/412/544
f 549/410/545 548/409/545 555/413/545
f 550/411/678 549/410/678 556/414/678
f 551/404/679 550/411/679 557/415/679
f 552/405/548 551/404/548 558/416/548
f 547/408/550 546/407/550 553/419/550
f 559/417/551 558/416/551 565/420/551
f 554/412/553 553/419/553 560/423/553
f 555/413/680 554/412/680 561/424/680
f 555/413/681 562/425/681 563/426/681
f 557/415/682 556/414/682 563/426/682
f 558/416/557 557/415/557 564/427/557
f 563/426/558 562/425/558 569/428/558
f 564/427/559 563/426/559 570/429/559
f 565/420/560 564/427/560 571/430/560
f 566/421/561 565/420/561 572/431/561
f 561/424/683 560/423/683 567/434/683
f 562/425/684 561/424/684 568/435/684
f 577/441/567 579/443/567 578/337/567
f 579/443/568 583/37/568 582/444/568
f 583/37/569 581/42/569 580/445/569
f 581/42/570 577/451/570 576/446/570
f 582/444/571 580/445/571 576/447/571
f 579/449/572 577/452/572 581/42/572
f 585/441/569 587/443/569 586/337/569
f 587/443/568 591/37/568 590/444/568
f 591/37/567 589/42/567 588/445/567
f 589/42/570 585/451/570 584/446/570
f 590/444/572 588/445/572 584/447/572
f 587/449/571 585/452/571 589/42/571
l 593 592
l 594 593
l 595 594
l 596 595
l 597 596
l 598 597
l 599 598
l 600 599
l 601 600
l 602 601
l 602 603
l 604 603
l 605 604
l 606 605
l 607 606
l 608 607
l 609 608
l 610 609
l 611 610
l 612 611
l 613 612
l 614 613
l 615 614
l 616 615
l 617 616
l 617 618
l 619 618
l 620 619
l 621 620
l 622 621
l 623 622
l 592 623
