# Blender 4.5.3 LTS
# www.blender.org
o Cube
v -1.000000 -0.000000 1.000000
v -1.000000 1.111386 1.000000
v -1.000000 -0.000000 -1.000000
v -1.000000 1.111386 -1.000000
v 1.000000 -0.000000 1.000000
v 1.000000 1.111386 1.000000
v 1.000000 -0.000000 -1.000000
v 1.000000 1.111386 -1.000000
v -1.000000 -0.000000 0.000000
v -1.000000 1.000000 1.000000
v -1.000000 2.000000 0.000000
v -1.000000 1.000000 -1.000000
v 0.000000 -0.000000 -1.000000
v 0.000000 1.111386 -1.000000
v 1.000000 1.000000 -1.000000
v 1.000000 -0.000000 0.000000
v 1.000000 2.000000 0.000000
v 1.000000 1.000000 1.000000
v 0.000000 -0.000000 1.000000
v 0.000000 1.111386 1.000000
v -1.000000 1.000000 0.000000
v 0.000000 1.000000 -1.000000
v 1.000000 1.000000 0.000000
v -0.000000 1.000000 1.000000
v 0.000000 0.000000 0.000000
v -1.026635 1.103497 1.026635
v -1.026635 2.015779 -0.000000
v -1.026635 1.103497 -1.026635
v 0.000000 1.103497 -1.026635
v 1.026635 1.103497 -1.026635
v 1.026635 2.015779 -0.000000
v 1.026635 1.103497 1.026635
v 0.000000 1.103497 1.026635
v 0.000000 2.015779 0.000000
vn -1.0000 -0.0000 -0.0000
vn -0.0000 -0.0000 -1.0000
vn 1.0000 -0.0000 -0.0000
vn -0.0000 -0.0000 1.0000
vn -0.0000 -1.0000 -0.0000
vn -0.0000 -0.9588 0.2840
vn -0.0000 -0.9588 -0.2840
vn -0.4049 -0.6835 0.6074
vn 0.4049 -0.6835 0.6074
vn -0.0000 0.7475 -0.6642
vn -0.0000 0.7475 0.6642
vn 0.4049 -0.6835 -0.6074
vn -0.4049 -0.6835 -0.6074
vt 0.500000 0.000000
vt 0.375000 0.125000
vt 0.375000 0.000000
vt 0.625000 0.000000
vt 0.500000 0.125000
vt 0.625000 0.250000
vt 0.500000 0.250000
vt 0.375000 0.250000
vt 0.375000 0.375000
vt 0.500000 0.375000
vt 0.625000 0.375000
vt 0.500000 0.500000
vt 0.375000 0.500000
vt 0.504000 0.499892
vt 0.255730 0.748162
vt 0.255730 0.499892
vt 0.752270 0.499892
vt 0.504000 0.748161
vt 0.752270 0.996432
vt 0.504000 0.996432
vt 0.255730 0.996432
vt 0.500000 0.750000
vt 0.375000 0.875000
vt 0.375000 0.750000
vt 0.625000 0.750000
vt 0.500000 0.875000
vt 0.625000 0.875000
vt 0.500000 1.000000
vt 0.375000 1.000000
vt 0.250000 0.500000
vt 0.125000 0.625000
vt 0.125000 0.500000
vt 0.250000 0.625000
vt 0.375000 0.625000
vt 0.250000 0.750000
vt 0.125000 0.750000
vt 0.625000 1.000000
vt 0.625000 0.125000
vt 0.625000 0.500000
vt 0.625000 0.625000
vt 0.385000 0.599265
vt 0.510000 0.724265
vt 0.385000 0.724265
vt 0.635000 0.599265
vt 0.510000 0.599265
vt 0.635000 0.724265
vt 0.510000 0.849265
vt 0.385000 0.849265
vt 0.752270 0.748162
vt 0.635000 0.849265
s 0
f 10/1/1 9/2/1 1/3/1
f 2/4/1 21/5/1 10/1/1
f 21/5/1 4/6/1 12/7/1
f 21/5/1 3/8/1 9/2/1
f 12/7/2 13/9/2 3/8/2
f 4/6/2 22/10/2 12/7/2
f 14/11/2 15/12/2 22/10/2
f 22/10/2 7/13/2 13/9/2
f 15/14/3 16/15/3 7/16/3
f 8/17/3 23/18/3 15/14/3
f 23/18/3 6/19/3 18/20/3
f 23/18/3 5/21/3 16/15/3
f 18/22/4 19/23/4 5/24/4
f 6/25/4 24/26/4 18/22/4
f 20/27/4 10/28/4 24/26/4
f 24/26/4 1/29/4 19/23/4
f 13/30/5 9/31/5 3/32/5
f 7/13/5 25/33/5 13/30/5
f 16/34/5 19/35/5 25/33/5
f 25/33/5 1/36/5 9/31/5
f 4/6/6 29/11/6 14/11/6
f 2/37/7 33/27/7 26/37/7
f 4/6/8 27/38/8 28/6/8
f 8/39/9 31/40/9 17/40/9
f 30/41/10 34/42/10 31/43/10
f 28/44/10 34/42/10 29/45/10
f 27/46/11 33/47/11 34/42/11
f 34/42/11 32/48/11 31/43/11
f 6/25/12 31/40/12 32/25/12
f 2/4/13 27/38/13 11/38/13
f 6/25/7 33/27/7 20/27/7
f 8/39/6 29/11/6 30/39/6
f 10/1/1 21/5/1 9/2/1
f 2/4/1 11/38/1 21/5/1
f 21/5/1 11/38/1 4/6/1
f 21/5/1 12/7/1 3/8/1
f 12/7/2 22/10/2 13/9/2
f 4/6/2 14/11/2 22/10/2
f 14/11/2 8/39/2 15/12/2
f 22/10/2 15/12/2 7/13/2
f 15/14/3 23/18/3 16/15/3
f 8/17/3 17/49/3 23/18/3
f 23/18/3 17/49/3 6/19/3
f 23/18/3 18/20/3 5/21/3
f 18/22/4 24/26/4 19/23/4
f 6/25/4 20/27/4 24/26/4
f 20/27/4 2/37/4 10/28/4
f 24/26/4 10/28/4 1/29/4
f 13/30/5 25/33/5 9/31/5
f 7/13/5 16/34/5 25/33/5
f 16/34/5 5/24/5 19/35/5
f 25/33/5 19/35/5 1/36/5
f 4/6/6 28/6/6 29/11/6
f 2/37/7 20/27/7 33/27/7
f 4/6/8 11/38/8 27/38/8
f 8/39/9 30/39/9 31/40/9
f 30/41/10 29/45/10 34/42/10
f 28/44/10 27/46/10 34/42/10
f 27/46/11 26/50/11 33/47/11
f 34/42/11 33/47/11 32/48/11
f 6/25/12 17/40/12 31/40/12
f 2/4/13 26/4/13 27/38/13
f 6/25/7 32/25/7 33/27/7
f 8/39/6 14/11/6 29/11/6
o Cube.001
v 0.959277 0.002565 0.813306
v 0.959277 0.688008 0.813306
v 0.959277 0.002565 0.341080
v 0.959277 0.688008 0.341080
v 1.040723 0.017776 0.802827
v 1.040723 0.672798 0.802827
v 1.040723 0.017776 0.351559
v 1.040723 0.672798 0.351559
v 1.040723 0.688008 0.341080
v 1.040723 0.002565 0.341080
v 1.040723 0.002565 0.813306
v 1.040723 0.688008 0.813306
v 1.040723 0.345287 0.351559
v 1.040723 0.017776 0.577193
v 1.040723 0.672798 0.577193
v 1.040723 0.345287 0.802827
v 1.040723 0.345287 0.577193
v 1.032813 0.356789 0.585118
v 1.032813 0.661295 0.585118
v 1.032813 0.661295 0.794902
v 1.032813 0.356789 0.794902
v 1.032813 0.356789 0.359484
v 1.032813 0.661295 0.359484
v 1.032813 0.661295 0.569269
v 1.032813 0.356789 0.569269
v 1.032813 0.028021 0.584251
v 1.032813 0.335042 0.584251
v 1.032813 0.335042 0.795769
v 1.032813 0.028021 0.795769
v 1.032813 0.028021 0.358618
v 1.032813 0.335042 0.358618
v 1.032813 0.335042 0.570135
v 1.032813 0.028021 0.570135
vn -1.0000 -0.0000 -0.0000
vn -0.0000 -0.0000 -1.0000
vn 1.0000 -0.0000 -0.0000
vn -0.0000 -0.0000 1.0000
vn -0.0000 -1.0000 -0.0000
vn -0.0000 1.0000 -0.0000
vn 0.7078 -0.0000 0.7065
vn 0.8240 -0.5666 -0.0000
vn 0.7078 -0.0000 -0.7065
vn 0.8240 0.5666 -0.0000
vn 0.6658 -0.0000 0.7461
vn 0.7915 -0.6111 -0.0000
vn 0.6658 -0.0000 -0.7461
vn 0.7915 0.6111 -0.0000
vt 0.625000 0.000000
vt 0.375000 0.250000
vt 0.375000 0.000000
vt 0.625000 0.250000
vt 0.375000 0.500000
vt 0.615257 0.629195
vt 0.504195 0.740257
vt 0.504195 0.629195
vt 0.625000 0.750000
vt 0.375000 1.000000
vt 0.375000 0.750000
vt 0.125000 0.750000
vt 0.125000 0.500000
vt 0.875000 0.500000
vt 0.625000 0.500000
vt 0.500000 0.505548
vt 0.380548 0.625000
vt 0.619452 0.625000
vt 0.500000 0.744452
vt 0.496263 0.628737
vt 0.384284 0.740716
vt 0.384284 0.628737
vt 0.496263 0.509284
vt 0.384284 0.621263
vt 0.384284 0.509284
vt 0.615257 0.509743
vt 0.504195 0.620805
vt 0.504195 0.509743
vt 0.500000 0.625000
vt 0.619452 0.744452
vt 0.615257 0.740257
vt 0.619452 0.505548
vt 0.615257 0.620805
vt 0.496263 0.740716
vt 0.380548 0.744452
vt 0.380548 0.505548
vt 0.496263 0.621263
vt 0.625000 1.000000
vt 0.875000 0.750000
s 0
f 36/51/14 37/52/14 35/53/14
f 38/54/15 44/55/15 37/52/15
f 53/56/16 55/57/16 52/58/16
f 46/59/17 35/60/17 45/61/17
f 44/55/18 35/62/18 37/63/18
f 38/64/19 46/59/19 43/65/19
f 47/66/16 44/55/16 43/65/16
f 48/67/16 45/61/16 44/55/16
f 49/68/16 43/65/16 46/59/16
f 50/69/16 46/59/16 45/61/16
f 61/70/16 63/71/16 60/72/16
f 65/73/16 67/74/16 64/75/16
f 57/76/16 59/77/16 56/78/16
f 49/68/20 52/58/20 51/79/20
f 40/80/21 53/56/21 49/68/21
f 50/69/22 54/81/22 40/80/22
f 51/79/23 55/57/23 50/69/23
f 42/82/20 56/78/20 47/66/20
f 49/68/21 57/76/21 42/82/21
f 51/79/22 58/83/22 49/68/22
f 47/66/23 59/77/23 51/79/23
f 51/79/24 60/72/24 48/67/24
f 50/69/25 61/70/25 51/79/25
f 50/69/26 63/71/26 62/84/26
f 39/85/27 60/72/27 63/71/27
f 41/86/24 65/73/24 64/75/24
f 51/79/25 65/73/25 47/66/25
f 48/67/26 66/87/26 51/79/26
f 48/67/27 64/75/27 67/74/27
f 36/51/14 38/54/14 37/52/14
f 38/54/15 43/65/15 44/55/15
f 53/56/16 54/81/16 55/57/16
f 46/59/17 36/88/17 35/60/17
f 44/55/18 45/61/18 35/62/18
f 38/64/19 36/89/19 46/59/19
f 43/65/16 42/82/16 47/66/16
f 47/66/16 41/86/16 44/55/16
f 44/55/16 41/86/16 48/67/16
f 48/67/16 39/85/16 45/61/16
f 46/59/16 40/80/16 49/68/16
f 49/68/16 42/82/16 43/65/16
f 45/61/16 39/85/16 50/69/16
f 50/69/16 40/80/16 46/59/16
f 61/70/16 62/84/16 63/71/16
f 65/73/16 66/87/16 67/74/16
f 57/76/16 58/83/16 59/77/16
f 49/68/20 53/56/20 52/58/20
f 40/80/21 54/81/21 53/56/21
f 50/69/22 55/57/22 54/81/22
f 51/79/23 52/58/23 55/57/23
f 42/82/20 57/76/20 56/78/20
f 49/68/21 58/83/21 57/76/21
f 51/79/22 59/77/22 58/83/22
f 47/66/23 56/78/23 59/77/23
f 51/79/24 61/70/24 60/72/24
f 50/69/25 62/84/25 61/70/25
f 50/69/26 39/85/26 63/71/26
f 39/85/27 48/67/27 60/72/27
f 41/86/24 47/66/24 65/73/24
f 51/79/25 66/87/25 65/73/25
f 48/67/26 67/74/26 66/87/26
f 48/67/27 41/86/27 64/75/27
o Sphere
v 1.039336 0.418046 0.753921
v 1.039336 0.412044 0.747920
v 1.039336 0.404203 0.744672
v 1.039336 0.399959 0.744254
v 1.039336 0.395716 0.744672
v 1.039336 0.387874 0.747920
v 1.040164 0.421294 0.761844
v 1.040960 0.420056 0.757842
v 1.041694 0.418046 0.754153
v 1.042337 0.415341 0.750921
v 1.042865 0.412044 0.748267
v 1.043257 0.408284 0.746296
v 1.043498 0.404203 0.745082
v 1.043580 0.399959 0.744672
v 1.043498 0.395716 0.745082
v 1.043257 0.391635 0.746296
v 1.042865 0.387874 0.748267
v 1.042337 0.384578 0.750921
v 1.041694 0.381873 0.754153
v 1.040960 0.379863 0.757842
v 1.040164 0.378625 0.761844
v 1.040960 0.421294 0.762086
v 1.042522 0.420056 0.758316
v 1.043961 0.418046 0.754841
v 1.045222 0.415341 0.751796
v 1.046257 0.412044 0.749297
v 1.047027 0.408284 0.747439
v 1.047500 0.404203 0.746296
v 1.047660 0.399959 0.745910
v 1.047500 0.395716 0.746296
v 1.047027 0.391635 0.747439
v 1.046257 0.387874 0.749297
v 1.045222 0.384578 0.751796
v 1.043961 0.381873 0.754841
v 1.042522 0.379863 0.758316
v 1.040960 0.378625 0.762086
v 1.041694 0.421294 0.762478
v 1.043961 0.420056 0.759085
v 1.046050 0.418046 0.755958
v 1.047881 0.415341 0.753217
v 1.049384 0.412044 0.750968
v 1.050501 0.408284 0.749297
v 1.051189 0.404203 0.748267
v 1.051421 0.399959 0.747920
v 1.051189 0.395716 0.748267
v 1.050501 0.391635 0.749297
v 1.049384 0.387874 0.750968
v 1.047881 0.384578 0.753217
v 1.046050 0.381873 0.755958
v 1.043961 0.379863 0.759085
v 1.041694 0.378625 0.762478
v 1.042337 0.421294 0.763005
v 1.045222 0.420056 0.760120
v 1.047881 0.418046 0.757461
v 1.050212 0.415341 0.755130
v 1.052125 0.412044 0.753217
v 1.053547 0.408284 0.751796
v 1.054422 0.404203 0.750921
v 1.054717 0.399959 0.750625
v 1.054422 0.395716 0.750921
v 1.053547 0.391635 0.751796
v 1.052125 0.387874 0.753217
v 1.050212 0.384578 0.755130
v 1.047881 0.381873 0.757461
v 1.045222 0.379863 0.760120
v 1.042337 0.378625 0.763005
v 1.042865 0.421294 0.763649
v 1.046257 0.420056 0.761382
v 1.049384 0.418046 0.759292
v 1.052125 0.415341 0.757461
v 1.054374 0.412044 0.755958
v 1.056046 0.408284 0.754841
v 1.057075 0.404203 0.754153
v 1.057423 0.399959 0.753921
v 1.057075 0.395716 0.754153
v 1.056046 0.391635 0.754841
v 1.054374 0.387874 0.755958
v 1.052125 0.384578 0.757461
v 1.049384 0.381873 0.759292
v 1.046257 0.379863 0.761382
v 1.042865 0.378625 0.763649
v 1.039336 0.421712 0.766006
v 1.043257 0.421294 0.764382
v 1.047027 0.420056 0.762821
v 1.050501 0.418046 0.761382
v 1.053547 0.415341 0.760120
v 1.056046 0.412044 0.759085
v 1.057903 0.408284 0.758316
v 1.059047 0.404203 0.757842
v 1.059433 0.399959 0.757682
v 1.059047 0.395716 0.757842
v 1.057903 0.391635 0.758316
v 1.056046 0.387874 0.759085
v 1.053547 0.384578 0.760120
v 1.050501 0.381873 0.761382
v 1.047027 0.379863 0.762821
v 1.043257 0.378625 0.764382
v 1.043498 0.421294 0.765178
v 1.047500 0.420056 0.764382
v 1.051189 0.418046 0.763649
v 1.054422 0.415341 0.763005
v 1.057075 0.412044 0.762478
v 1.059047 0.408284 0.762086
v 1.060261 0.404203 0.761844
v 1.060670 0.399959 0.761763
v 1.060261 0.395716 0.761844
v 1.059047 0.391635 0.762086
v 1.057075 0.387874 0.762478
v 1.054422 0.384578 0.763005
v 1.051189 0.381873 0.763649
v 1.047500 0.379863 0.764382
v 1.043498 0.378625 0.765178
v 1.043580 0.421294 0.766006
v 1.047660 0.420056 0.766006
v 1.051421 0.418046 0.766006
v 1.054717 0.415341 0.766006
v 1.057423 0.412044 0.766006
v 1.059433 0.408284 0.766006
v 1.060670 0.404203 0.766006
v 1.061088 0.399959 0.766006
v 1.060670 0.395716 0.766006
v 1.059433 0.391635 0.766006
v 1.057423 0.387874 0.766006
v 1.054717 0.384578 0.766006
v 1.051421 0.381873 0.766006
v 1.047660 0.379863 0.766006
v 1.043580 0.378625 0.766006
v 1.043498 0.421294 0.766834
v 1.047500 0.420056 0.767630
v 1.051189 0.418046 0.768364
v 1.054422 0.415341 0.769007
v 1.057075 0.412044 0.769535
v 1.059047 0.408284 0.769927
v 1.060261 0.404203 0.770168
v 1.060670 0.399959 0.770250
v 1.060261 0.395716 0.770168
v 1.059047 0.391635 0.769927
v 1.057075 0.387874 0.769535
v 1.054422 0.384578 0.769007
v 1.051189 0.381873 0.768364
v 1.047500 0.379863 0.767630
v 1.043498 0.378625 0.766834
v 1.043257 0.421294 0.767630
v 1.047027 0.420056 0.769192
v 1.050501 0.418046 0.770631
v 1.053547 0.415341 0.771892
v 1.056046 0.412044 0.772928
v 1.057903 0.408284 0.773697
v 1.059047 0.404203 0.774171
v 1.059433 0.399959 0.774330
v 1.059047 0.395716 0.774171
v 1.057903 0.391635 0.773697
v 1.056046 0.387874 0.772928
v 1.053547 0.384578 0.771892
v 1.050501 0.381873 0.770631
v 1.047027 0.379863 0.769192
v 1.043257 0.378625 0.767630
v 1.042865 0.421294 0.768364
v 1.046257 0.420056 0.770631
v 1.049384 0.418046 0.772720
v 1.052125 0.415341 0.774552
v 1.054374 0.412044 0.776055
v 1.056046 0.408284 0.777171
v 1.057075 0.404203 0.777859
v 1.057423 0.399959 0.778091
v 1.057075 0.395716 0.777859
v 1.056046 0.391635 0.777171
v 1.054374 0.387874 0.776055
v 1.052125 0.384578 0.774552
v 1.049384 0.381873 0.772720
v 1.046257 0.379863 0.770631
v 1.042865 0.378625 0.768364
v 1.042337 0.421294 0.769007
v 1.045222 0.420056 0.771892
v 1.047881 0.418046 0.774552
v 1.050212 0.415341 0.776882
v 1.052125 0.412044 0.778795
v 1.053547 0.408284 0.780217
v 1.054422 0.404203 0.781092
v 1.054717 0.399959 0.781388
v 1.054422 0.395716 0.781092
v 1.053547 0.391635 0.780217
v 1.052125 0.387874 0.778795
v 1.050212 0.384578 0.776882
v 1.047881 0.381873 0.774552
v 1.045222 0.379863 0.771892
v 1.042337 0.378625 0.769007
v 1.041694 0.421294 0.769535
v 1.043961 0.420056 0.772928
v 1.046050 0.418046 0.776055
v 1.047881 0.415341 0.778795
v 1.049384 0.412044 0.781045
v 1.050501 0.408284 0.782716
v 1.051189 0.404203 0.783745
v 1.051421 0.399959 0.784093
v 1.051189 0.395716 0.783745
v 1.050501 0.391635 0.782716
v 1.049384 0.387874 0.781045
v 1.047881 0.384578 0.778795
v 1.046050 0.381873 0.776055
v 1.043961 0.379863 0.772928
v 1.041694 0.378625 0.769535
v 1.040960 0.421294 0.769927
v 1.042522 0.420056 0.773697
v 1.043961 0.418046 0.777171
v 1.045222 0.415341 0.780217
v 1.046257 0.412044 0.782716
v 1.047027 0.408284 0.784573
v 1.047500 0.404203 0.785717
v 1.047660 0.399959 0.786103
v 1.047500 0.395716 0.785717
v 1.047027 0.391635 0.784573
v 1.046257 0.387874 0.782716
v 1.045222 0.384578 0.780217
v 1.043961 0.381873 0.777171
v 1.042522 0.379863 0.773697
v 1.040960 0.378625 0.769927
v 1.040164 0.421294 0.770168
v 1.040960 0.420056 0.774171
v 1.041694 0.418046 0.777859
v 1.042337 0.415341 0.781092
v 1.042865 0.412044 0.783745
v 1.043257 0.408284 0.785717
v 1.043498 0.404203 0.786931
v 1.043580 0.399959 0.787341
v 1.043498 0.395716 0.786931
v 1.043257 0.391635 0.785717
v 1.042865 0.387874 0.783745
v 1.042337 0.384578 0.781092
v 1.041694 0.381873 0.777859
v 1.040960 0.379863 0.774171
v 1.040164 0.378625 0.770168
v 1.039336 0.421294 0.770250
v 1.039336 0.420056 0.774330
v 1.039336 0.418046 0.778091
v 1.039336 0.415341 0.781388
v 1.039336 0.412044 0.784093
v 1.039336 0.408284 0.786103
v 1.039336 0.404203 0.787341
v 1.039336 0.399959 0.787759
v 1.039336 0.395716 0.787341
v 1.039336 0.391635 0.786103
v 1.039336 0.387874 0.784093
v 1.039336 0.384578 0.781388
v 1.039336 0.381873 0.778091
v 1.039336 0.379863 0.774330
v 1.039336 0.378625 0.770250
v 1.038508 0.421294 0.770168
v 1.037712 0.420056 0.774171
v 1.036978 0.418046 0.777859
v 1.036335 0.415341 0.781092
v 1.035808 0.412044 0.783745
v 1.035415 0.408284 0.785717
v 1.035174 0.404203 0.786931
v 1.035092 0.399959 0.787341
v 1.035174 0.395716 0.786931
v 1.035415 0.391635 0.785717
v 1.035808 0.387874 0.783745
v 1.036335 0.384578 0.781092
v 1.036978 0.381873 0.777859
v 1.037712 0.379863 0.774171
v 1.038508 0.378625 0.770168
v 1.037712 0.421294 0.769927
v 1.036151 0.420056 0.773697
v 1.034711 0.418046 0.777171
v 1.033450 0.415341 0.780217
v 1.032415 0.412044 0.782716
v 1.031645 0.408284 0.784573
v 1.031172 0.404203 0.785717
v 1.031012 0.399959 0.786103
v 1.031172 0.395716 0.785717
v 1.031645 0.391635 0.784573
v 1.032415 0.387874 0.782716
v 1.033450 0.384578 0.780217
v 1.034711 0.381873 0.777171
v 1.036151 0.379863 0.773697
v 1.037712 0.378625 0.769927
v 1.036978 0.421294 0.769535
v 1.034711 0.420056 0.772928
v 1.032622 0.418046 0.776055
v 1.030791 0.415341 0.778795
v 1.029288 0.412044 0.781045
v 1.028171 0.408284 0.782716
v 1.027483 0.404203 0.783745
v 1.027251 0.399959 0.784093
v 1.027483 0.395716 0.783745
v 1.028171 0.391635 0.782716
v 1.029288 0.387874 0.781045
v 1.030791 0.384578 0.778795
v 1.032622 0.381873 0.776055
v 1.034711 0.379863 0.772928
v 1.036978 0.378625 0.769535
v 1.036335 0.421294 0.769007
v 1.033450 0.420056 0.771892
v 1.030791 0.418046 0.774552
v 1.028460 0.415341 0.776882
v 1.026547 0.412044 0.778795
v 1.025126 0.408284 0.780217
v 1.024250 0.404203 0.781092
v 1.023955 0.399959 0.781387
v 1.024250 0.395716 0.781092
v 1.025126 0.391635 0.780217
v 1.026547 0.387874 0.778795
v 1.028460 0.384578 0.776882
v 1.030791 0.381873 0.774552
v 1.033450 0.379863 0.771892
v 1.036335 0.378625 0.769007
v 1.039336 0.378207 0.766006
v 1.035808 0.421294 0.768364
v 1.032415 0.420056 0.770631
v 1.029288 0.418046 0.772720
v 1.026547 0.415341 0.774552
v 1.024298 0.412044 0.776055
v 1.022626 0.408284 0.777171
v 1.021597 0.404203 0.777859
v 1.021250 0.399959 0.778091
v 1.021597 0.395716 0.777859
v 1.022626 0.391635 0.777171
v 1.024298 0.387874 0.776055
v 1.026547 0.384578 0.774552
v 1.029288 0.381873 0.772720
v 1.032415 0.379863 0.770631
v 1.035808 0.378625 0.768364
v 1.035415 0.421294 0.767630
v 1.031645 0.420056 0.769192
v 1.028171 0.418046 0.770631
v 1.025126 0.415341 0.771892
v 1.022626 0.412044 0.772928
v 1.020769 0.408284 0.773697
v 1.019626 0.404203 0.774171
v 1.019240 0.399959 0.774330
v 1.019626 0.395716 0.774171
v 1.020769 0.391635 0.773697
v 1.022626 0.387874 0.772928
v 1.025126 0.384578 0.771892
v 1.028171 0.381873 0.770631
v 1.031645 0.379863 0.769192
v 1.035415 0.378625 0.767630
v 1.035174 0.421294 0.766834
v 1.031172 0.420056 0.767630
v 1.027483 0.418046 0.768364
v 1.024250 0.415341 0.769007
v 1.021597 0.412044 0.769535
v 1.019626 0.408284 0.769927
v 1.018412 0.404203 0.770168
v 1.018002 0.399959 0.770250
v 1.018412 0.395716 0.770168
v 1.019626 0.391635 0.769927
v 1.021597 0.387874 0.769535
v 1.024250 0.384578 0.769007
v 1.027483 0.381873 0.768364
v 1.031172 0.379863 0.767630
v 1.035174 0.378625 0.766834
v 1.035092 0.421294 0.766006
v 1.031012 0.420056 0.766006
v 1.027251 0.418046 0.766006
v 1.023955 0.415341 0.766006
v 1.021250 0.412044 0.766006
v 1.019240 0.408284 0.766006
v 1.018002 0.404203 0.766006
v 1.017584 0.399959 0.766006
v 1.018002 0.395716 0.766006
v 1.019240 0.391635 0.766006
v 1.021250 0.387874 0.766006
v 1.023955 0.384578 0.766006
v 1.027251 0.381873 0.766006
v 1.031012 0.379863 0.766006
v 1.035092 0.378625 0.766006
v 1.035174 0.421294 0.765178
v 1.031172 0.420056 0.764382
v 1.027483 0.418046 0.763649
v 1.024250 0.415341 0.763005
v 1.021597 0.412044 0.762478
v 1.019626 0.408284 0.762086
v 1.018412 0.404203 0.761844
v 1.018002 0.399959 0.761763
v 1.018412 0.395716 0.761844
v 1.019626 0.391635 0.762086
v 1.021597 0.387874 0.762478
v 1.024250 0.384578 0.763005
v 1.027483 0.381873 0.763649
v 1.031172 0.379863 0.764382
v 1.035174 0.378625 0.765178
v 1.035415 0.421294 0.764382
v 1.031645 0.420056 0.762821
v 1.028171 0.418046 0.761382
v 1.025126 0.415341 0.760120
v 1.022626 0.412044 0.759085
v 1.020769 0.408284 0.758316
v 1.019626 0.404203 0.757842
v 1.019240 0.399959 0.757682
v 1.019626 0.395716 0.757842
v 1.020769 0.391635 0.758316
v 1.022626 0.387874 0.759085
v 1.025126 0.384578 0.760120
v 1.028171 0.381873 0.761382
v 1.031645 0.379863 0.762821
v 1.035415 0.378625 0.764382
v 1.035808 0.421294 0.763649
v 1.032415 0.420056 0.761382
v 1.029288 0.418046 0.759292
v 1.026547 0.415341 0.757461
v 1.024298 0.412044 0.755958
v 1.022626 0.408284 0.754841
v 1.021597 0.404203 0.754153
v 1.021250 0.399959 0.753921
v 1.021597 0.395716 0.754153
v 1.022626 0.391635 0.754841
v 1.024298 0.387874 0.755958
v 1.026547 0.384578 0.757461
v 1.029288 0.381873 0.759292
v 1.032415 0.379863 0.761382
v 1.035808 0.378625 0.763649
v 1.036335 0.421294 0.763005
v 1.033450 0.420056 0.760120
v 1.030791 0.418046 0.757461
v 1.028460 0.415341 0.755130
v 1.026547 0.412044 0.753217
v 1.025126 0.408284 0.751796
v 1.024250 0.404203 0.750921
v 1.023955 0.399959 0.750625
v 1.024250 0.395716 0.750921
v 1.025126 0.391635 0.751796
v 1.026547 0.387874 0.753217
v 1.028460 0.384578 0.755130
v 1.030791 0.381873 0.757461
v 1.033450 0.379863 0.760120
v 1.036335 0.378625 0.763005
v 1.036978 0.421294 0.762478
v 1.034711 0.420056 0.759085
v 1.032622 0.418046 0.755958
v 1.030791 0.415341 0.753217
v 1.029288 0.412044 0.750968
v 1.028171 0.408284 0.749297
v 1.027483 0.404203 0.748267
v 1.027251 0.399959 0.747920
v 1.027483 0.395716 0.748267
v 1.028171 0.391635 0.749297
v 1.029288 0.387874 0.750968
v 1.030791 0.384578 0.753217
v 1.032622 0.381873 0.755958
v 1.034711 0.379863 0.759085
v 1.036978 0.378625 0.762478
v 1.037712 0.421294 0.762086
v 1.036151 0.420056 0.758316
v 1.034711 0.418046 0.754841
v 1.033450 0.415341 0.751796
v 1.032415 0.412044 0.749297
v 1.031645 0.408284 0.747439
v 1.031172 0.404203 0.746296
v 1.031012 0.399959 0.745910
v 1.031172 0.395716 0.746296
v 1.031645 0.391635 0.747439
v 1.032415 0.387874 0.749297
v 1.033450 0.384578 0.751796
v 1.034711 0.381873 0.754841
v 1.036151 0.379863 0.758316
v 1.037712 0.378625 0.762086
v 1.038508 0.421294 0.761844
v 1.037712 0.420056 0.757842
v 1.036978 0.418046 0.754153
v 1.036335 0.415341 0.750921
v 1.035808 0.412044 0.748267
v 1.035415 0.408284 0.746296
v 1.035174 0.404203 0.745082
v 1.035092 0.399959 0.744672
v 1.035174 0.395716 0.745082
v 1.035415 0.391635 0.746296
v 1.035808 0.387874 0.748267
v 1.036335 0.384578 0.750921
v 1.036978 0.381873 0.754153
v 1.037712 0.379863 0.757842
v 1.038508 0.378625 0.761844
v 1.039336 0.421294 0.761763
v 1.039336 0.420056 0.757682
v 1.039336 0.415341 0.750625
v 1.039336 0.408284 0.745910
v 1.039336 0.391635 0.745910
v 1.039336 0.384578 0.750625
v 1.039336 0.381873 0.753921
v 1.039336 0.379863 0.757682
v 1.039336 0.378625 0.761763
vn 0.0759 0.6326 -0.7708
vn 0.0624 -0.7715 -0.6332
vn 0.0865 0.4696 -0.8786
vn 0.0464 -0.8810 -0.4709
vn 0.0938 0.2890 -0.9527
vn 0.0286 -0.9565 -0.2902
vn 0.0975 0.0975 -0.9904
vn 0.0097 0.9951 -0.0980
vn 0.0097 -0.9951 -0.0980
vn 0.0975 -0.0976 -0.9904
vn 0.0286 0.9565 -0.2902
vn 0.0938 -0.2890 -0.9527
vn 0.0464 0.8810 -0.4709
vn 0.0865 -0.4696 -0.8786
vn 0.0624 0.7715 -0.6332
vn 0.0759 -0.6326 -0.7708
vn 0.1847 0.7715 -0.6088
vn 0.2248 -0.6326 -0.7412
vn 0.2248 0.6326 -0.7412
vn 0.1847 -0.7715 -0.6088
vn 0.2563 0.4696 -0.8448
vn 0.1374 -0.8810 -0.4528
vn 0.2779 0.2890 -0.9161
vn 0.0846 -0.9565 -0.2790
vn 0.2889 0.0976 -0.9524
vn 0.0286 0.9951 -0.0942
vn 0.0286 -0.9951 -0.0942
vn 0.2889 -0.0976 -0.9524
vn 0.0846 0.9565 -0.2790
vn 0.2779 -0.2890 -0.9161
vn 0.1374 0.8810 -0.4528
vn 0.2563 -0.4696 -0.8448
vn 0.4691 0.0975 -0.8777
vn 0.0464 0.9951 -0.0869
vn 0.0464 -0.9951 -0.0869
vn 0.4691 -0.0975 -0.8777
vn 0.1374 0.9565 -0.2571
vn 0.4513 -0.2890 -0.8443
vn 0.2231 0.8810 -0.4173
vn 0.4162 -0.4696 -0.7786
vn 0.2999 0.7715 -0.5611
vn 0.3651 -0.6326 -0.6831
vn 0.3651 0.6326 -0.6831
vn 0.2999 -0.7715 -0.5611
vn 0.4162 0.4696 -0.7786
vn 0.2230 -0.8810 -0.4173
vn 0.4513 0.2890 -0.8443
vn 0.1374 -0.9565 -0.2571
vn 0.4913 -0.6326 -0.5987
vn 0.4913 0.6326 -0.5987
vn 0.4036 -0.7715 -0.4918
vn 0.5601 0.4696 -0.6825
vn 0.3002 -0.8810 -0.3658
vn 0.6073 0.2890 -0.7400
vn 0.1850 -0.9565 -0.2254
vn 0.6314 0.0975 -0.7693
vn 0.0625 0.9951 -0.0761
vn 0.0625 -0.9951 -0.0761
vn 0.6314 -0.0975 -0.7693
vn 0.1850 0.9565 -0.2254
vn 0.6073 -0.2890 -0.7400
vn 0.3002 0.8810 -0.3658
vn 0.5601 -0.4696 -0.6825
vn 0.4036 0.7715 -0.4918
vn 0.0761 0.9951 -0.0625
vn 0.0761 -0.9951 -0.0625
vn 0.7693 -0.0975 -0.6314
vn 0.2254 0.9565 -0.1850
vn 0.7400 -0.2890 -0.6073
vn 0.3658 0.8810 -0.3002
vn 0.6825 -0.4696 -0.5601
vn 0.4918 0.7715 -0.4036
vn 0.5987 -0.6326 -0.4913
vn 0.5987 0.6326 -0.4913
vn 0.4918 -0.7715 -0.4036
vn 0.6825 0.4696 -0.5601
vn 0.3658 -0.8810 -0.3002
vn 0.7400 0.2890 -0.6073
vn 0.2254 -0.9566 -0.1850
vn 0.7693 0.0975 -0.6314
vn 0.6831 0.6326 -0.3651
vn 0.5611 -0.7715 -0.2999
vn 0.7786 0.4696 -0.4162
vn 0.4173 -0.8810 -0.2230
vn 0.8443 0.2890 -0.4513
vn 0.2571 -0.9565 -0.1374
vn 0.8777 0.0975 -0.4691
vn 0.0869 0.9951 -0.0464
vn 0.0869 -0.9951 -0.0464
vn 0.8777 -0.0975 -0.4691
vn 0.2571 0.9565 -0.1374
vn 0.8443 -0.2890 -0.4513
vn 0.4173 0.8810 -0.2230
vn 0.7786 -0.4696 -0.4162
vn 0.5611 0.7715 -0.2999
vn 0.6831 -0.6326 -0.3651
vn 0.9524 -0.0975 -0.2889
vn 0.2790 0.9565 -0.0846
vn 0.9161 -0.2890 -0.2779
vn 0.4528 0.8810 -0.1374
vn 0.8448 -0.4696 -0.2563
vn 0.6088 0.7715 -0.1847
vn 0.7412 -0.6326 -0.2248
vn 0.7412 0.6326 -0.2248
vn 0.6088 -0.7715 -0.1847
vn 0.8448 0.4696 -0.2563
vn 0.4528 -0.8810 -0.1374
vn 0.9161 0.2890 -0.2779
vn 0.2790 -0.9565 -0.0846
vn 0.9524 0.0975 -0.2889
vn 0.0942 0.9951 -0.0286
vn 0.0942 -0.9951 -0.0286
vn 0.6332 -0.7715 -0.0624
vn 0.8786 0.4696 -0.0865
vn 0.4709 -0.8810 -0.0464
vn 0.9527 0.2890 -0.0938
vn 0.2902 -0.9565 -0.0286
vn 0.9904 0.0975 -0.0975
vn 0.0980 0.9951 -0.0097
vn 0.0980 -0.9951 -0.0097
vn 0.9904 -0.0975 -0.0975
vn 0.2902 0.9565 -0.0286
vn 0.9527 -0.2890 -0.0938
vn 0.4709 0.8810 -0.0464
vn 0.8786 -0.4696 -0.0865
vn 0.6332 0.7715 -0.0624
vn 0.7708 -0.6326 -0.0759
vn 0.7708 0.6326 -0.0759
vn 0.9527 -0.2890 0.0938
vn 0.4709 0.8810 0.0464
vn 0.8786 -0.4696 0.0865
vn 0.6332 0.7715 0.0624
vn 0.7708 -0.6326 0.0759
vn 0.7708 0.6326 0.0759
vn 0.6332 -0.7715 0.0624
vn 0.8786 0.4696 0.0865
vn 0.4709 -0.8810 0.0464
vn 0.9527 0.2890 0.0938
vn 0.2902 -0.9565 0.0286
vn 0.9904 0.0975 0.0976
vn 0.0980 0.9951 0.0097
vn 0.0980 -0.9951 0.0097
vn 0.9904 -0.0975 0.0976
vn 0.2902 0.9565 0.0286
vn 0.4528 -0.8810 0.1374
vn 0.9161 0.2890 0.2779
vn 0.2790 -0.9565 0.0846
vn 0.9524 0.0975 0.2889
vn 0.0942 0.9951 0.0286
vn 0.0942 -0.9951 0.0286
vn 0.9524 -0.0975 0.2889
vn 0.2790 0.9565 0.0846
vn 0.9161 -0.2890 0.2779
vn 0.4528 0.8810 0.1374
vn 0.8448 -0.4696 0.2563
vn 0.6088 0.7715 0.1847
vn 0.7412 -0.6326 0.2248
vn 0.7412 0.6326 0.2248
vn 0.6088 -0.7715 0.1847
vn 0.8448 0.4696 0.2563
vn 0.4173 0.8810 0.2231
vn 0.7786 -0.4696 0.4162
vn 0.5611 0.7715 0.2999
vn 0.6831 -0.6326 0.3651
vn 0.6831 0.6326 0.3651
vn 0.5611 -0.7715 0.2999
vn 0.7786 0.4696 0.4162
vn 0.4173 -0.8810 0.2230
vn 0.8443 0.2890 0.4513
vn 0.2571 -0.9565 0.1374
vn 0.8777 0.0975 0.4691
vn 0.0869 0.9951 0.0464
vn 0.0869 -0.9951 0.0464
vn 0.8777 -0.0975 0.4691
vn 0.2571 0.9565 0.1374
vn 0.8443 -0.2890 0.4513
vn 0.7400 0.2890 0.6073
vn 0.2254 -0.9565 0.1850
vn 0.7693 0.0975 0.6314
vn 0.0761 0.9951 0.0625
vn 0.0761 -0.9951 0.0625
vn 0.7693 -0.0975 0.6314
vn 0.2254 0.9565 0.1850
vn 0.7400 -0.2890 0.6073
vn 0.3658 0.8810 0.3002
vn 0.6825 -0.4696 0.5601
vn 0.4918 0.7715 0.4036
vn 0.5987 -0.6326 0.4913
vn 0.5987 0.6326 0.4913
vn 0.4918 -0.7715 0.4036
vn 0.6825 0.4696 0.5601
vn 0.3658 -0.8810 0.3002
vn 0.5601 -0.4696 0.6825
vn 0.4036 0.7715 0.4918
vn 0.4913 -0.6326 0.5987
vn 0.4913 0.6326 0.5987
vn 0.4036 -0.7715 0.4918
vn 0.5601 0.4696 0.6825
vn 0.3002 -0.8810 0.3658
vn 0.6073 0.2890 0.7400
vn 0.1850 -0.9565 0.2254
vn 0.6314 0.0975 0.7693
vn 0.0625 0.9951 0.0761
vn 0.0625 -0.9951 0.0761
vn 0.6314 -0.0975 0.7693
vn 0.1850 0.9565 0.2254
vn 0.6073 -0.2890 0.7400
vn 0.3002 0.8810 0.3658
vn 0.1374 -0.9565 0.2571
vn 0.4691 0.0975 0.8777
vn 0.0464 0.9951 0.0869
vn 0.0464 -0.9951 0.0869
vn 0.4691 -0.0975 0.8777
vn 0.1374 0.9565 0.2571
vn 0.4513 -0.2890 0.8443
vn 0.2230 0.8810 0.4173
vn 0.4162 -0.4696 0.7786
vn 0.2999 0.7715 0.5611
vn 0.3651 -0.6326 0.6831
vn 0.3651 0.6326 0.6831
vn 0.2999 -0.7715 0.5611
vn 0.4162 0.4696 0.7786
vn 0.2230 -0.8810 0.4173
vn 0.4513 0.2890 0.8443
vn 0.1847 0.7715 0.6088
vn 0.2248 -0.6326 0.7412
vn 0.2248 0.6326 0.7412
vn 0.1847 -0.7715 0.6088
vn 0.2563 0.4696 0.8448
vn 0.1374 -0.8810 0.4528
vn 0.2779 0.2890 0.9161
vn 0.0846 -0.9565 0.2790
vn 0.2889 0.0975 0.9524
vn 0.0286 0.9951 0.0942
vn 0.0286 -0.9951 0.0942
vn 0.2889 -0.0975 0.9524
vn 0.0846 0.9565 0.2790
vn 0.2779 -0.2890 0.9161
vn 0.1374 0.8810 0.4528
vn 0.2563 -0.4696 0.8448
vn 0.0975 0.0975 0.9904
vn 0.0097 0.9951 0.0980
vn 0.0097 -0.9951 0.0980
vn 0.0975 -0.0975 0.9904
vn 0.0286 0.9565 0.2902
vn 0.0938 -0.2890 0.9527
vn 0.0464 0.8810 0.4709
vn 0.0865 -0.4696 0.8786
vn 0.0624 0.7715 0.6332
vn 0.0759 -0.6326 0.7708
vn 0.0759 0.6326 0.7708
vn 0.0624 -0.7715 0.6332
vn 0.0865 0.4696 0.8786
vn 0.0464 -0.8810 0.4709
vn 0.0938 0.2890 0.9527
vn 0.0286 -0.9565 0.2902
vn -0.0759 -0.6326 0.7708
vn -0.0759 0.6326 0.7708
vn -0.0624 -0.7715 0.6332
vn -0.0865 0.4696 0.8786
vn -0.0464 -0.8810 0.4709
vn -0.0938 0.2890 0.9527
vn -0.0286 -0.9565 0.2902
vn -0.0976 0.0975 0.9904
vn -0.0097 0.9951 0.0980
vn -0.0097 -0.9951 0.0980
vn -0.0975 -0.0975 0.9904
vn -0.0286 0.9565 0.2902
vn -0.0938 -0.2890 0.9527
vn -0.0464 0.8810 0.4709
vn -0.0865 -0.4696 0.8786
vn -0.0624 0.7715 0.6332
vn -0.0286 -0.9951 0.0942
vn -0.2889 -0.0975 0.9524
vn -0.0846 0.9565 0.2790
vn -0.2779 -0.2890 0.9161
vn -0.1374 0.8810 0.4528
vn -0.2563 -0.4696 0.8448
vn -0.1847 0.7715 0.6088
vn -0.2248 -0.6326 0.7412
vn -0.2248 0.6326 0.7412
vn -0.1847 -0.7715 0.6088
vn -0.2563 0.4696 0.8448
vn -0.1374 -0.8810 0.4528
vn -0.2779 0.2890 0.9161
vn -0.0846 -0.9565 0.2790
vn -0.2889 0.0975 0.9524
vn -0.0286 0.9951 0.0942
vn -0.2999 -0.7715 0.5611
vn -0.4162 0.4696 0.7786
vn -0.2230 -0.8810 0.4173
vn -0.4513 0.2890 0.8443
vn -0.1374 -0.9565 0.2571
vn -0.4691 0.0975 0.8777
vn -0.0464 0.9951 0.0869
vn -0.0464 -0.9951 0.0869
vn -0.4691 -0.0975 0.8777
vn -0.1374 0.9565 0.2571
vn -0.4513 -0.2890 0.8443
vn -0.2230 0.8810 0.4173
vn -0.4162 -0.4696 0.7786
vn -0.2999 0.7715 0.5611
vn -0.3651 -0.6326 0.6831
vn -0.3651 0.6326 0.6831
vn -0.1850 0.9565 0.2254
vn -0.6073 -0.2890 0.7400
vn -0.3002 0.8810 0.3658
vn -0.5601 -0.4696 0.6825
vn -0.4036 0.7715 0.4918
vn -0.4913 -0.6326 0.5987
vn -0.4913 0.6326 0.5987
vn -0.4036 -0.7715 0.4918
vn -0.5601 0.4696 0.6825
vn -0.3002 -0.8810 0.3658
vn -0.6073 0.2890 0.7400
vn -0.1850 -0.9565 0.2254
vn -0.6314 0.0975 0.7693
vn -0.0625 0.9951 0.0761
vn -0.0625 -0.9951 0.0761
vn -0.6314 -0.0975 0.7693
vn -0.6825 0.4696 0.5601
vn -0.3658 -0.8810 0.3002
vn -0.7400 0.2890 0.6073
vn -0.2254 -0.9566 0.1850
vn -0.7693 0.0975 0.6314
vn -0.0761 0.9951 0.0625
vn -0.0761 -0.9951 0.0625
vn -0.7693 -0.0975 0.6314
vn -0.2254 0.9565 0.1850
vn -0.7400 -0.2890 0.6073
vn -0.3658 0.8810 0.3002
vn -0.6825 -0.4696 0.5601
vn -0.4918 0.7715 0.4036
vn -0.5987 -0.6326 0.4913
vn -0.5987 0.6326 0.4913
vn -0.4918 -0.7715 0.4036
vn -0.8443 -0.2890 0.4513
vn -0.4173 0.8810 0.2230
vn -0.7786 -0.4696 0.4162
vn -0.5611 0.7715 0.2999
vn -0.6831 -0.6326 0.3651
vn -0.6831 0.6326 0.3651
vn -0.5611 -0.7715 0.2999
vn -0.7786 0.4696 0.4162
vn -0.4173 -0.8810 0.2231
vn -0.8443 0.2890 0.4513
vn -0.2571 -0.9565 0.1374
vn -0.8777 0.0975 0.4691
vn -0.0869 0.9951 0.0464
vn -0.0869 -0.9951 0.0464
vn -0.8777 -0.0975 0.4691
vn -0.2571 0.9565 0.1374
vn -0.4528 -0.8810 0.1374
vn -0.9161 0.2890 0.2779
vn -0.2790 -0.9565 0.0846
vn -0.9524 0.0975 0.2889
vn -0.0942 0.9951 0.0286
vn -0.0942 -0.9951 0.0286
vn -0.9524 -0.0975 0.2889
vn -0.2790 0.9565 0.0846
vn -0.9161 -0.2890 0.2779
vn -0.4528 0.8810 0.1374
vn -0.8448 -0.4696 0.2563
vn -0.6088 0.7715 0.1847
vn -0.7412 -0.6326 0.2248
vn -0.7412 0.6326 0.2248
vn -0.6088 -0.7715 0.1847
vn -0.8448 0.4696 0.2563
vn -0.4709 0.8810 0.0464
vn -0.8786 -0.4696 0.0865
vn -0.6332 0.7715 0.0624
vn -0.7708 -0.6326 0.0759
vn -0.7708 0.6326 0.0759
vn -0.6332 -0.7715 0.0624
vn -0.8786 0.4696 0.0865
vn -0.4709 -0.8810 0.0464
vn -0.9527 0.2890 0.0938
vn -0.2902 -0.9565 0.0286
vn -0.9904 0.0975 0.0975
vn -0.0980 0.9951 0.0097
vn -0.0980 -0.9951 0.0097
vn -0.9904 -0.0975 0.0976
vn -0.2902 0.9565 0.0286
vn -0.9527 -0.2890 0.0938
vn -0.9527 0.2890 -0.0938
vn -0.2902 -0.9565 -0.0286
vn -0.9904 0.0975 -0.0975
vn -0.0980 0.9951 -0.0097
vn -0.0980 -0.9951 -0.0097
vn -0.9904 -0.0975 -0.0976
vn -0.2902 0.9565 -0.0286
vn -0.9527 -0.2890 -0.0938
vn -0.4709 0.8810 -0.0464
vn -0.8786 -0.4696 -0.0865
vn -0.6332 0.7715 -0.0624
vn -0.7708 -0.6326 -0.0759
vn -0.7708 0.6326 -0.0759
vn -0.6332 -0.7715 -0.0624
vn -0.8786 0.4696 -0.0865
vn -0.4709 -0.8810 -0.0464
vn -0.8448 -0.4696 -0.2563
vn -0.6088 0.7715 -0.1847
vn -0.7412 -0.6326 -0.2248
vn -0.7412 0.6326 -0.2248
vn -0.6088 -0.7715 -0.1847
vn -0.8448 0.4696 -0.2563
vn -0.4528 -0.8810 -0.1374
vn -0.9161 0.2890 -0.2779
vn -0.2790 -0.9565 -0.0846
vn -0.9524 0.0975 -0.2889
vn -0.0942 0.9951 -0.0286
vn -0.0942 -0.9951 -0.0286
vn -0.9524 -0.0975 -0.2889
vn -0.2790 0.9565 -0.0846
vn -0.9161 -0.2890 -0.2779
vn -0.4528 0.8810 -0.1374
vn -0.2571 -0.9565 -0.1374
vn -0.8777 0.0975 -0.4691
vn -0.0869 0.9951 -0.0464
vn -0.0869 -0.9951 -0.0464
vn -0.8777 -0.0975 -0.4691
vn -0.2571 0.9565 -0.1374
vn -0.8443 -0.2890 -0.4513
vn -0.4173 0.8810 -0.2231
vn -0.7786 -0.4696 -0.4162
vn -0.5611 0.7715 -0.2999
vn -0.6831 -0.6326 -0.3651
vn -0.6831 0.6326 -0.3651
vn -0.5611 -0.7715 -0.2999
vn -0.7786 0.4696 -0.4162
vn -0.4173 -0.8810 -0.2231
vn -0.8443 0.2890 -0.4513
vn -0.5987 -0.6326 -0.4913
vn -0.5987 0.6326 -0.4913
vn -0.4918 -0.7715 -0.4036
vn -0.6825 0.4696 -0.5601
vn -0.3658 -0.8810 -0.3002
vn -0.7400 0.2890 -0.6073
vn -0.2254 -0.9565 -0.1850
vn -0.7693 0.0975 -0.6314
vn -0.0761 0.9951 -0.0625
vn -0.0761 -0.9951 -0.0625
vn -0.7693 -0.0975 -0.6314
vn -0.2254 0.9565 -0.1850
vn -0.7400 -0.2890 -0.6073
vn -0.3658 0.8810 -0.3002
vn -0.6825 -0.4696 -0.5601
vn -0.4918 0.7715 -0.4036
vn -0.0625 0.9951 -0.0761
vn -0.0625 -0.9951 -0.0761
vn -0.6314 -0.0975 -0.7693
vn -0.1850 0.9565 -0.2254
vn -0.6073 -0.2890 -0.7400
vn -0.3002 0.8810 -0.3658
vn -0.5601 -0.4696 -0.6825
vn -0.4036 0.7715 -0.4918
vn -0.4913 -0.6326 -0.5987
vn -0.4913 0.6326 -0.5987
vn -0.4036 -0.7715 -0.4918
vn -0.5601 0.4696 -0.6825
vn -0.3002 -0.8810 -0.3658
vn -0.6073 0.2890 -0.7400
vn -0.1850 -0.9565 -0.2254
vn -0.6314 0.0975 -0.7693
vn -0.3651 0.6326 -0.6831
vn -0.2999 -0.7715 -0.5611
vn -0.4162 0.4696 -0.7786
vn -0.2230 -0.8810 -0.4173
vn -0.4513 0.2890 -0.8443
vn -0.1374 -0.9565 -0.2571
vn -0.4691 0.0975 -0.8777
vn -0.0464 0.9951 -0.0869
vn -0.0464 -0.9951 -0.0869
vn -0.4691 -0.0975 -0.8777
vn -0.1374 0.9565 -0.2571
vn -0.4513 -0.2890 -0.8443
vn -0.2230 0.8810 -0.4173
vn -0.4162 -0.4696 -0.7786
vn -0.2999 0.7715 -0.5611
vn -0.3651 -0.6326 -0.6831
vn -0.2889 -0.0975 -0.9524
vn -0.0846 0.9565 -0.2790
vn -0.2779 -0.2890 -0.9161
vn -0.1374 0.8810 -0.4528
vn -0.2563 -0.4696 -0.8448
vn -0.1847 0.7715 -0.6088
vn -0.2248 -0.6326 -0.7412
vn -0.2248 0.6326 -0.7412
vn -0.1847 -0.7715 -0.6088
vn -0.2563 0.4696 -0.8448
vn -0.1374 -0.8810 -0.4528
vn -0.2779 0.2890 -0.9161
vn -0.0846 -0.9565 -0.2790
vn -0.2889 0.0975 -0.9524
vn -0.0286 0.9951 -0.0942
vn -0.0286 -0.9951 -0.0942
vn -0.0624 -0.7715 -0.6332
vn -0.0865 0.4696 -0.8786
vn -0.0464 -0.8810 -0.4709
vn -0.0938 0.2890 -0.9527
vn -0.0286 -0.9565 -0.2902
vn -0.0976 0.0975 -0.9904
vn -0.0097 0.9951 -0.0980
vn -0.0097 -0.9951 -0.0980
vn -0.0976 -0.0975 -0.9904
vn -0.0286 0.9565 -0.2902
vn -0.0938 -0.2890 -0.9527
vn -0.0464 0.8810 -0.4709
vn -0.0865 -0.4696 -0.8786
vn -0.0624 0.7715 -0.6332
vn -0.0759 -0.6326 -0.7708
vn -0.0759 0.6326 -0.7708
vn 0.0975 0.0976 -0.9904
vn 0.0975 -0.0975 -0.9904
vn 0.2230 0.8810 -0.4173
vn 0.2231 -0.8810 -0.4173
vn 0.2254 -0.9565 -0.1850
vn 0.4173 0.8810 0.2230
vn 0.4173 -0.8810 0.2231
vn 0.2571 0.9566 0.1374
vn 0.2231 -0.8810 0.4173
vn -0.0975 0.0975 0.9904
vn -0.0976 -0.0975 0.9904
vn -0.2231 -0.8810 0.4173
vn -0.2231 0.8810 0.4173
vn -0.2254 -0.9565 0.1850
vn -0.4173 -0.8810 0.2230
vn -0.9904 0.0975 0.0976
vn -0.9904 -0.0975 0.0975
vn -0.9904 0.0975 -0.0976
vn -0.9904 -0.0975 -0.0975
vt 0.750000 0.687500
vt 0.718750 0.750000
vt 0.718750 0.687500
vt 0.750000 0.250000
vt 0.718750 0.187500
vt 0.750000 0.187500
vt 0.750000 0.625000
vt 0.718750 0.625000
vt 0.718750 0.125000
vt 0.750000 0.125000
vt 0.750000 0.562500
vt 0.718750 0.562500
vt 0.718750 0.062500
vt 0.750000 0.062500
vt 0.718750 0.500000
vt 0.750000 0.500000
vt 0.750000 0.937500
vt 0.734375 1.000000
vt 0.718750 0.937500
vt 0.734375 0.000000
vt 0.718750 0.437500
vt 0.750000 0.437500
vt 0.750000 0.875000
vt 0.718750 0.875000
vt 0.718750 0.375000
vt 0.750000 0.375000
vt 0.750000 0.812500
vt 0.718750 0.812500
vt 0.718750 0.312500
vt 0.750000 0.312500
vt 0.750000 0.750000
vt 0.718750 0.250000
vt 0.687500 0.750000
vt 0.687500 0.250000
vt 0.687500 0.687500
vt 0.687500 0.187500
vt 0.687500 0.625000
vt 0.687500 0.125000
vt 0.687500 0.562500
vt 0.687500 0.062500
vt 0.687500 0.500000
vt 0.703125 1.000000
vt 0.687500 0.937500
vt 0.703125 0.000000
vt 0.687500 0.437500
vt 0.687500 0.875000
vt 0.687500 0.375000
vt 0.687500 0.812500
vt 0.687500 0.312500
vt 0.656250 0.500000
vt 0.671875 1.000000
vt 0.656250 0.937500
vt 0.671875 0.000000
vt 0.656250 0.062500
vt 0.656250 0.437500
vt 0.656250 0.875000
vt 0.656250 0.375000
vt 0.656250 0.812500
vt 0.656250 0.312500
vt 0.656250 0.750000
vt 0.656250 0.250000
vt 0.656250 0.687500
vt 0.656250 0.187500
vt 0.656250 0.625000
vt 0.656250 0.125000
vt 0.656250 0.562500
vt 0.625000 0.250000
vt 0.625000 0.687500
vt 0.625000 0.187500
vt 0.625000 0.625000
vt 0.625000 0.125000
vt 0.625000 0.562500
vt 0.625000 0.062500
vt 0.625000 0.500000
vt 0.640625 1.000000
vt 0.625000 0.937500
vt 0.640625 0.000000
vt 0.625000 0.437500
vt 0.625000 0.875000
vt 0.625000 0.375000
vt 0.625000 0.812500
vt 0.625000 0.312500
vt 0.625000 0.750000
vt 0.609375 1.000000
vt 0.593750 0.937500
vt 0.609375 0.000000
vt 0.593750 0.062500
vt 0.593750 0.437500
vt 0.593750 0.875000
vt 0.593750 0.375000
vt 0.593750 0.812500
vt 0.593750 0.312500
vt 0.593750 0.750000
vt 0.593750 0.250000
vt 0.593750 0.687500
vt 0.593750 0.187500
vt 0.593750 0.625000
vt 0.593750 0.125000
vt 0.593750 0.562500
vt 0.593750 0.500000
vt 0.562500 0.750000
vt 0.562500 0.687500
vt 0.562500 0.187500
vt 0.562500 0.625000
vt 0.562500 0.125000
vt 0.562500 0.562500
vt 0.562500 0.062500
vt 0.562500 0.500000
vt 0.578125 1.000000
vt 0.562500 0.937500
vt 0.578125 0.000000
vt 0.562500 0.437500
vt 0.562500 0.875000
vt 0.562500 0.375000
vt 0.562500 0.812500
vt 0.562500 0.312500
vt 0.562500 0.250000
vt 0.531250 0.437500
vt 0.531250 0.937500
vt 0.531250 0.875000
vt 0.531250 0.375000
vt 0.531250 0.812500
vt 0.531250 0.312500
vt 0.531250 0.750000
vt 0.531250 0.250000
vt 0.531250 0.687500
vt 0.531250 0.187500
vt 0.531250 0.625000
vt 0.531250 0.125000
vt 0.531250 0.562500
vt 0.531250 0.062500
vt 0.531250 0.500000
vt 0.546875 1.000000
vt 0.546875 0.000000
vt 0.500000 0.250000
vt 0.500000 0.187500
vt 0.500000 0.625000
vt 0.500000 0.125000
vt 0.500000 0.562500
vt 0.500000 0.062500
vt 0.500000 0.500000
vt 0.515625 1.000000
vt 0.500000 0.937500
vt 0.515625 0.000000
vt 0.500000 0.437500
vt 0.500000 0.875000
vt 0.500000 0.375000
vt 0.500000 0.812500
vt 0.500000 0.312500
vt 0.500000 0.750000
vt 0.500000 0.687500
vt 0.468750 0.375000
vt 0.468750 0.812500
vt 0.468750 0.312500
vt 0.468750 0.750000
vt 0.468750 0.250000
vt 0.468750 0.687500
vt 0.468750 0.187500
vt 0.468750 0.625000
vt 0.468750 0.125000
vt 0.468750 0.562500
vt 0.468750 0.062500
vt 0.468750 0.500000
vt 0.484375 1.000000
vt 0.468750 0.937500
vt 0.484375 0.000000
vt 0.468750 0.437500
vt 0.468750 0.875000
vt 0.437500 0.125000
vt 0.437500 0.625000
vt 0.437500 0.562500
vt 0.437500 0.062500
vt 0.437500 0.500000
vt 0.453125 1.000000
vt 0.437500 0.937500
vt 0.453125 0.000000
vt 0.437500 0.437500
vt 0.437500 0.875000
vt 0.437500 0.375000
vt 0.437500 0.812500
vt 0.437500 0.312500
vt 0.437500 0.750000
vt 0.437500 0.250000
vt 0.437500 0.687500
vt 0.437500 0.187500
vt 0.406250 0.875000
vt 0.406250 0.812500
vt 0.406250 0.375000
vt 0.406250 0.312500
vt 0.406250 0.750000
vt 0.406250 0.250000
vt 0.406250 0.687500
vt 0.406250 0.187500
vt 0.406250 0.625000
vt 0.406250 0.125000
vt 0.406250 0.562500
vt 0.406250 0.062500
vt 0.406250 0.500000
vt 0.421875 1.000000
vt 0.406250 0.937500
vt 0.421875 0.000000
vt 0.406250 0.437500
vt 0.375000 0.625000
vt 0.375000 0.562500
vt 0.375000 0.125000
vt 0.375000 0.062500
vt 0.375000 0.500000
vt 0.390625 1.000000
vt 0.375000 0.937500
vt 0.390625 0.000000
vt 0.375000 0.437500
vt 0.375000 0.875000
vt 0.375000 0.375000
vt 0.375000 0.812500
vt 0.375000 0.312500
vt 0.375000 0.750000
vt 0.375000 0.250000
vt 0.375000 0.687500
vt 0.375000 0.187500
vt 0.343750 0.375000
vt 0.343750 0.312500
vt 0.343750 0.750000
vt 0.343750 0.250000
vt 0.343750 0.687500
vt 0.343750 0.187500
vt 0.343750 0.625000
vt 0.343750 0.125000
vt 0.343750 0.562500
vt 0.343750 0.062500
vt 0.343750 0.500000
vt 0.359375 1.000000
vt 0.343750 0.937500
vt 0.359375 0.000000
vt 0.343750 0.437500
vt 0.343750 0.875000
vt 0.343750 0.812500
vt 0.312500 0.062500
vt 0.312500 0.562500
vt 0.312500 0.500000
vt 0.328125 1.000000
vt 0.312500 0.937500
vt 0.328125 0.000000
vt 0.312500 0.437500
vt 0.312500 0.875000
vt 0.312500 0.375000
vt 0.312500 0.812500
vt 0.312500 0.312500
vt 0.312500 0.750000
vt 0.312500 0.250000
vt 0.312500 0.687500
vt 0.312500 0.187500
vt 0.312500 0.625000
vt 0.312500 0.125000
vt 0.281250 0.750000
vt 0.281250 0.250000
vt 0.281250 0.687500
vt 0.281250 0.187500
vt 0.281250 0.625000
vt 0.281250 0.125000
vt 0.281250 0.562500
vt 0.281250 0.062500
vt 0.281250 0.500000
vt 0.296875 1.000000
vt 0.281250 0.937500
vt 0.296875 0.000000
vt 0.281250 0.437500
vt 0.281250 0.875000
vt 0.281250 0.375000
vt 0.281250 0.812500
vt 0.281250 0.312500
vt 0.250000 0.562500
vt 0.250000 0.500000
vt 0.265625 1.000000
vt 0.250000 0.937500
vt 0.265625 0.000000
vt 0.250000 0.062500
vt 0.250000 0.437500
vt 0.250000 0.875000
vt 0.250000 0.375000
vt 0.250000 0.812500
vt 0.250000 0.312500
vt 0.250000 0.750000
vt 0.250000 0.250000
vt 0.250000 0.687500
vt 0.250000 0.187500
vt 0.250000 0.625000
vt 0.250000 0.125000
vt 0.218750 0.250000
vt 0.218750 0.750000
vt 0.218750 0.687500
vt 0.218750 0.187500
vt 0.218750 0.625000
vt 0.218750 0.125000
vt 0.218750 0.562500
vt 0.218750 0.062500
vt 0.218750 0.500000
vt 0.234375 1.000000
vt 0.218750 0.937500
vt 0.234375 0.000000
vt 0.218750 0.437500
vt 0.218750 0.875000
vt 0.218750 0.375000
vt 0.218750 0.812500
vt 0.218750 0.312500
vt 0.203125 0.000000
vt 0.187500 0.062500
vt 0.187500 0.437500
vt 0.187500 0.937500
vt 0.187500 0.875000
vt 0.187500 0.375000
vt 0.187500 0.812500
vt 0.187500 0.312500
vt 0.187500 0.750000
vt 0.187500 0.250000
vt 0.187500 0.687500
vt 0.187500 0.187500
vt 0.187500 0.625000
vt 0.187500 0.125000
vt 0.187500 0.562500
vt 0.187500 0.500000
vt 0.203125 1.000000
vt 0.156250 0.250000
vt 0.156250 0.187500
vt 0.156250 0.625000
vt 0.156250 0.125000
vt 0.156250 0.562500
vt 0.156250 0.062500
vt 0.156250 0.500000
vt 0.171875 1.000000
vt 0.156250 0.937500
vt 0.171875 0.000000
vt 0.156250 0.437500
vt 0.156250 0.875000
vt 0.156250 0.375000
vt 0.156250 0.812500
vt 0.156250 0.312500
vt 0.156250 0.750000
vt 0.156250 0.687500
vt 0.125000 0.875000
vt 0.125000 0.375000
vt 0.125000 0.812500
vt 0.125000 0.312500
vt 0.125000 0.750000
vt 0.125000 0.250000
vt 0.125000 0.687500
vt 0.125000 0.187500
vt 0.125000 0.625000
vt 0.125000 0.125000
vt 0.125000 0.562500
vt 0.125000 0.062500
vt 0.125000 0.500000
vt 0.140625 1.000000
vt 0.125000 0.937500
vt 0.140625 0.000000
vt 0.125000 0.437500
vt 0.093750 0.625000
vt 0.093750 0.125000
vt 0.093750 0.562500
vt 0.093750 0.062500
vt 0.093750 0.500000
vt 0.109375 1.000000
vt 0.093750 0.937500
vt 0.109375 0.000000
vt 0.093750 0.437500
vt 0.093750 0.875000
vt 0.093750 0.375000
vt 0.093750 0.812500
vt 0.093750 0.312500
vt 0.093750 0.750000
vt 0.093750 0.250000
vt 0.093750 0.687500
vt 0.093750 0.187500
vt 0.062500 0.375000
vt 0.062500 0.812500
vt 0.062500 0.312500
vt 0.062500 0.750000
vt 0.062500 0.250000
vt 0.062500 0.687500
vt 0.062500 0.187500
vt 0.062500 0.625000
vt 0.062500 0.125000
vt 0.062500 0.562500
vt 0.062500 0.062500
vt 0.062500 0.500000
vt 0.078125 1.000000
vt 0.062500 0.937500
vt 0.078125 0.000000
vt 0.062500 0.437500
vt 0.062500 0.875000
vt 0.031250 0.125000
vt 0.031250 0.625000
vt 0.031250 0.562500
vt 0.031250 0.062500
vt 0.031250 0.500000
vt 0.046875 1.000000
vt 0.031250 0.937500
vt 0.046875 0.000000
vt 0.031250 0.437500
vt 0.031250 0.875000
vt 0.031250 0.375000
vt 0.031250 0.812500
vt 0.031250 0.312500
vt 0.031250 0.750000
vt 0.031250 0.250000
vt 0.031250 0.687500
vt 0.031250 0.187500
vt 0.000000 0.875000
vt 0.000000 0.812500
vt 0.000000 0.375000
vt 0.000000 0.312500
vt 0.000000 0.750000
vt 0.000000 0.250000
vt 0.000000 0.687500
vt 0.000000 0.187500
vt 0.000000 0.625000
vt 0.000000 0.125000
vt 0.000000 0.562500
vt 0.000000 0.062500
vt 0.000000 0.500000
vt 0.015625 1.000000
vt 0.000000 0.937500
vt 0.015625 0.000000
vt 0.000000 0.437500
vt 1.000000 0.562500
vt 0.968750 0.625000
vt 0.968750 0.562500
vt 1.000000 0.125000
vt 0.968750 0.062500
vt 1.000000 0.062500
vt 1.000000 0.500000
vt 0.968750 0.500000
vt 1.000000 0.937500
vt 0.984375 1.000000
vt 0.968750 0.937500
vt 0.984375 0.000000
vt 0.968750 0.437500
vt 1.000000 0.437500
vt 0.968750 0.875000
vt 1.000000 0.875000
vt 0.968750 0.375000
vt 1.000000 0.375000
vt 1.000000 0.812500
vt 0.968750 0.812500
vt 1.000000 0.312500
vt 0.968750 0.312500
vt 0.968750 0.750000
vt 1.000000 0.750000
vt 0.968750 0.250000
vt 1.000000 0.250000
vt 1.000000 0.687500
vt 0.968750 0.687500
vt 1.000000 0.187500
vt 0.968750 0.187500
vt 1.000000 0.625000
vt 0.968750 0.125000
vt 0.937500 0.375000
vt 0.937500 0.312500
vt 0.937500 0.750000
vt 0.937500 0.250000
vt 0.937500 0.687500
vt 0.937500 0.187500
vt 0.937500 0.625000
vt 0.937500 0.125000
vt 0.937500 0.562500
vt 0.937500 0.062500
vt 0.937500 0.500000
vt 0.953125 1.000000
vt 0.937500 0.937500
vt 0.953125 0.000000
vt 0.937500 0.437500
vt 0.937500 0.875000
vt 0.937500 0.812500
vt 0.906250 0.062500
vt 0.906250 0.562500
vt 0.906250 0.500000
vt 0.921875 1.000000
vt 0.906250 0.937500
vt 0.921875 0.000000
vt 0.906250 0.437500
vt 0.906250 0.875000
vt 0.906250 0.375000
vt 0.906250 0.812500
vt 0.906250 0.312500
vt 0.906250 0.750000
vt 0.906250 0.250000
vt 0.906250 0.687500
vt 0.906250 0.187500
vt 0.906250 0.625000
vt 0.906250 0.125000
vt 0.875000 0.250000
vt 0.875000 0.750000
vt 0.875000 0.687500
vt 0.875000 0.187500
vt 0.875000 0.625000
vt 0.875000 0.125000
vt 0.875000 0.562500
vt 0.875000 0.062500
vt 0.875000 0.500000
vt 0.890625 1.000000
vt 0.875000 0.937500
vt 0.890625 0.000000
vt 0.875000 0.437500
vt 0.875000 0.875000
vt 0.875000 0.375000
vt 0.875000 0.812500
vt 0.875000 0.312500
vt 0.859375 1.000000
vt 0.843750 0.937500
vt 0.859375 0.000000
vt 0.843750 0.062500
vt 0.843750 0.437500
vt 0.843750 0.875000
vt 0.843750 0.375000
vt 0.843750 0.812500
vt 0.843750 0.312500
vt 0.843750 0.750000
vt 0.843750 0.250000
vt 0.843750 0.687500
vt 0.843750 0.187500
vt 0.843750 0.625000
vt 0.843750 0.125000
vt 0.843750 0.562500
vt 0.843750 0.500000
vt 0.812500 0.750000
vt 0.812500 0.687500
vt 0.812500 0.250000
vt 0.812500 0.187500
vt 0.812500 0.625000
vt 0.812500 0.125000
vt 0.812500 0.562500
vt 0.812500 0.062500
vt 0.812500 0.500000
vt 0.828125 1.000000
vt 0.812500 0.937500
vt 0.828125 0.000000
vt 0.812500 0.437500
vt 0.812500 0.875000
vt 0.812500 0.375000
vt 0.812500 0.812500
vt 0.812500 0.312500
vt 0.781250 0.437500
vt 0.781250 0.875000
vt 0.781250 0.375000
vt 0.781250 0.812500
vt 0.781250 0.312500
vt 0.781250 0.750000
vt 0.781250 0.250000
vt 0.781250 0.687500
vt 0.781250 0.187500
vt 0.781250 0.625000
vt 0.781250 0.125000
vt 0.781250 0.562500
vt 0.781250 0.062500
vt 0.781250 0.500000
vt 0.796875 1.000000
vt 0.781250 0.937500
vt 0.796875 0.000000
vt 0.765625 1.000000
vt 0.765625 0.000000
s 0
f 69/90/28 77/91/28 78/92/28
f 546/93/29 86/94/29 547/95/29
f 544/96/30 78/92/30 79/97/30
f 547/95/31 87/98/31 548/99/31
f 70/100/32 79/97/32 80/101/32
f 548/99/33 88/102/33 549/103/33
f 70/100/34 81/104/34 71/105/34
f 541/106/35 149/107/35 74/108/35
f 375/109/36 549/103/36 88/102/36
f 71/105/37 82/110/37 72/111/37
f 542/112/38 74/108/38 75/113/38
f 72/111/39 83/114/39 545/115/39
f 68/116/40 75/113/40 76/117/40
f 545/115/41 84/118/41 73/119/41
f 543/120/42 76/117/42 77/91/42
f 73/119/43 85/121/43 546/93/43
f 76/117/44 92/122/44 77/91/44
f 84/118/45 100/123/45 85/121/45
f 77/91/46 93/124/46 78/92/46
f 86/94/47 100/123/47 101/125/47
f 78/92/48 94/126/48 79/97/48
f 87/98/49 101/125/49 102/127/49
f 80/101/50 94/126/50 95/128/50
f 87/98/51 103/129/51 88/102/51
f 80/101/52 96/130/52 81/104/52
f 74/108/53 149/131/53 89/132/53
f 375/133/54 88/102/54 103/129/54
f 81/104/55 97/134/55 82/110/55
f 74/108/56 90/135/56 75/113/56
f 82/110/57 98/136/57 83/114/57
f 75/113/58 91/137/58 76/117/58
f 83/114/59 99/138/59 84/118/59
f 95/128/60 111/139/60 96/130/60
f 89/132/61 149/140/61 104/141/61
f 375/142/62 103/129/62 118/143/62
f 97/134/63 111/139/63 112/144/63
f 89/132/64 105/145/64 90/135/64
f 97/134/65 113/146/65 98/136/65
f 90/135/66 106/147/66 91/137/66
f 99/138/67 113/146/67 114/148/67
f 91/137/68 107/149/68 92/122/68
f 100/123/69 114/148/69 115/150/69
f 92/122/70 108/151/70 93/124/70
f 101/125/71 115/150/71 116/152/71
f 93/124/72 109/153/72 94/126/72
f 101/125/73 117/154/73 102/127/73
f 94/126/74 110/155/74 95/128/74
f 102/127/75 118/143/75 103/129/75
f 114/148/76 130/156/76 115/150/76
f 107/149/77 123/157/77 108/151/77
f 115/150/78 131/158/78 116/152/78
f 108/151/79 124/159/79 109/153/79
f 116/152/80 132/160/80 117/154/80
f 110/155/81 124/159/81 125/161/81
f 117/154/82 133/162/82 118/143/82
f 111/139/83 125/161/83 126/163/83
f 104/141/84 149/164/84 119/165/84
f 375/166/85 118/143/85 133/162/85
f 111/139/86 127/167/86 112/144/86
f 104/141/87 120/168/87 105/145/87
f 112/144/88 128/169/88 113/146/88
f 105/145/89 121/170/89 106/147/89
f 114/148/90 128/169/90 129/171/90
f 106/147/91 122/172/91 107/149/91
f 119/165/92 149/173/92 134/174/92
f 375/175/93 133/162/93 148/176/93
f 126/163/94 142/177/94 127/167/94
f 119/165/95 135/178/95 120/168/95
f 127/167/96 143/179/96 128/169/96
f 120/168/97 136/180/97 121/170/97
f 129/171/98 143/179/98 144/181/98
f 121/170/99 137/182/99 122/172/99
f 129/171/100 145/183/100 130/156/100
f 123/157/101 137/182/101 138/184/101
f 130/156/102 146/185/102 131/158/102
f 123/157/103 139/186/103 124/159/103
f 132/160/104 146/185/104 147/187/104
f 125/161/105 139/186/105 140/188/105
f 132/160/106 148/176/106 133/162/106
f 126/163/107 140/188/107 141/189/107
f 138/184/108 153/190/108 154/191/108
f 145/183/109 162/192/109 146/185/109
f 138/184/110 155/193/110 139/186/110
f 146/185/111 163/194/111 147/187/111
f 140/188/112 155/193/112 156/195/112
f 148/176/113 163/194/113 164/196/113
f 141/189/114 156/195/114 157/197/114
f 134/174/115 149/198/115 150/199/115
f 375/200/116 148/176/116 164/196/116
f 141/189/117 158/201/117 142/177/117
f 134/174/118 151/202/118 135/178/118
f 142/177/119 159/203/119 143/179/119
f 135/178/120 152/204/120 136/180/120
f 144/181/121 159/203/121 160/205/121
f 136/180/122 153/190/122 137/182/122
f 144/181/123 161/206/123 145/183/123
f 157/197/124 173/207/124 158/201/124
f 151/202/125 165/208/125 166/209/125
f 158/201/126 174/210/126 159/203/126
f 151/202/127 167/211/127 152/204/127
f 160/205/128 174/210/128 175/212/128
f 152/204/129 168/213/129 153/190/129
f 160/205/130 176/214/130 161/206/130
f 154/191/131 168/213/131 169/215/131
f 162/192/132 176/214/132 177/216/132
f 154/191/133 170/217/133 155/193/133
f 163/194/134 177/216/134 178/218/134
f 156/195/135 170/217/135 171/219/135
f 163/194/136 179/220/136 164/196/136
f 157/197/137 171/219/137 172/221/137
f 150/199/138 149/222/138 165/208/138
f 375/223/139 164/196/139 179/220/139
f 177/216/140 191/224/140 192/225/140
f 169/215/141 185/226/141 170/217/141
f 177/216/142 193/227/142 178/218/142
f 171/219/143 185/226/143 186/228/143
f 178/218/144 194/229/144 179/220/144
f 172/221/145 186/228/145 187/230/145
f 165/208/146 149/231/146 180/232/146
f 375/233/147 179/220/147 194/229/147
f 172/221/148 188/234/148 173/207/148
f 166/209/149 180/232/149 181/235/149
f 173/207/150 189/236/150 174/210/150
f 166/209/151 182/237/151 167/211/151
f 175/212/152 189/236/152 190/238/152
f 167/211/153 183/239/153 168/213/153
f 175/212/154 191/224/154 176/214/154
f 169/215/155 183/239/155 184/240/155
f 188/234/156 204/241/156 189/236/156
f 181/235/157 197/242/157 182/237/157
f 190/238/158 204/241/158 205/243/158
f 182/237/159 198/244/159 183/239/159
f 190/238/160 206/245/160 191/224/160
f 184/240/161 198/244/161 199/246/161
f 192/225/162 206/245/162 207/247/162
f 184/240/163 200/248/163 185/226/163
f 192/225/164 208/249/164 193/227/164
f 186/228/165 200/248/165 201/250/165
f 193/227/166 209/251/166 194/229/166
f 187/230/167 201/250/167 202/252/167
f 180/232/168 149/253/168 195/254/168
f 375/255/169 194/229/169 209/251/169
f 187/230/170 203/256/170 188/234/170
f 180/232/171 196/257/171 181/235/171
f 207/247/172 223/258/172 208/249/172
f 201/250/173 215/259/173 216/260/173
f 209/251/174 223/258/174 224/261/174
f 202/252/175 216/260/175 217/262/175
f 195/254/176 149/263/176 210/264/176
f 375/265/177 209/251/177 224/261/177
f 202/252/178 218/266/178 203/256/178
f 195/254/179 211/267/179 196/257/179
f 203/256/180 219/268/180 204/241/180
f 197/242/181 211/267/181 212/269/181
f 205/243/182 219/268/182 220/270/182
f 197/242/183 213/271/183 198/244/183
f 205/243/184 221/272/184 206/245/184
f 199/246/185 213/271/185 214/273/185
f 207/247/186 221/272/186 222/274/186
f 199/246/187 215/259/187 200/248/187
f 212/269/188 226/275/188 227/276/188
f 220/270/189 234/277/189 235/278/189
f 212/269/190 228/279/190 213/271/190
f 220/270/191 236/280/191 221/272/191
f 214/273/192 228/279/192 229/281/192
f 222/274/193 236/280/193 237/282/193
f 214/273/194 230/283/194 215/259/194
f 222/274/195 238/284/195 223/258/195
f 216/260/196 230/283/196 231/285/196
f 223/258/197 239/286/197 224/261/197
f 217/262/198 231/285/198 232/287/198
f 210/264/199 149/288/199 225/289/199
f 375/290/200 224/261/200 239/286/200
f 217/262/201 233/291/201 218/266/201
f 210/264/202 226/275/202 211/267/202
f 218/266/203 234/277/203 219/268/203
f 231/285/204 245/292/204 246/293/204
f 239/286/205 253/294/205 254/295/205
f 232/287/206 246/293/206 247/296/206
f 225/289/207 149/297/207 240/298/207
f 375/299/208 239/286/208 254/295/208
f 232/287/209 248/300/209 233/291/209
f 225/289/210 241/301/210 226/275/210
f 233/291/211 249/302/211 234/277/211
f 226/275/212 242/303/212 227/276/212
f 235/278/213 249/302/213 250/304/213
f 227/276/214 243/305/214 228/279/214
f 235/278/215 251/306/215 236/280/215
f 229/281/216 243/305/216 244/307/216
f 236/280/217 252/308/217 237/282/217
f 229/281/218 245/292/218 230/283/218
f 238/284/219 252/308/219 253/294/219
f 250/304/220 264/309/220 265/310/220
f 242/303/221 258/311/221 243/305/221
f 250/304/222 266/312/222 251/306/222
f 244/307/223 258/311/223 259/313/223
f 252/308/224 266/312/224 267/314/224
f 244/307/225 260/315/225 245/292/225
f 252/308/226 268/316/226 253/294/226
f 246/293/227 260/315/227 261/317/227
f 253/294/228 269/318/228 254/295/228
f 247/296/229 261/317/229 262/319/229
f 240/298/230 149/320/230 255/321/230
f 375/322/231 254/295/231 269/318/231
f 247/296/232 263/323/232 248/300/232
f 241/301/233 255/321/233 256/324/233
f 248/300/234 264/309/234 249/302/234
f 242/303/235 256/324/235 257/325/235
f 268/316/236 284/326/236 269/318/236
f 262/319/237 276/327/237 277/328/237
f 255/321/238 149/329/238 270/330/238
f 375/331/239 269/318/239 284/326/239
f 262/319/240 278/332/240 263/323/240
f 255/321/241 271/333/241 256/324/241
f 263/323/242 279/334/242 264/309/242
f 256/324/243 272/335/243 257/325/243
f 265/310/244 279/334/244 280/336/244
f 257/325/245 273/337/245 258/311/245
f 265/310/246 281/338/246 266/312/246
f 259/313/247 273/337/247 274/339/247
f 267/314/248 281/338/248 282/340/248
f 259/313/249 275/341/249 260/315/249
f 267/314/250 283/342/250 268/316/250
f 261/317/251 275/341/251 276/327/251
f 272/335/252 288/343/252 273/337/252
f 280/336/253 296/344/253 281/338/253
f 274/339/254 288/343/254 289/345/254
f 282/340/255 296/344/255 297/346/255
f 274/339/256 290/347/256 275/341/256
f 282/340/257 298/348/257 283/342/257
f 276/327/258 290/347/258 291/349/258
f 283/342/259 299/350/259 284/326/259
f 277/328/260 291/349/260 292/351/260
f 270/330/261 149/352/261 285/353/261
f 375/354/262 284/326/262 299/350/262
f 277/328/263 293/355/263 278/332/263
f 270/330/264 286/356/264 271/333/264
f 278/332/265 294/357/265 279/334/265
f 271/333/266 287/358/266 272/335/266
f 280/336/267 294/357/267 295/359/267
f 292/351/268 306/360/268 307/361/268
f 285/353/269 149/362/269 300/363/269
f 375/364/270 299/350/270 314/365/270
f 292/351/271 308/366/271 293/355/271
f 285/353/272 301/367/272 286/356/272
f 293/355/273 309/368/273 294/357/273
f 287/358/274 301/367/274 302/369/274
f 295/359/275 309/368/275 310/370/275
f 287/358/276 303/371/276 288/343/276
f 295/359/277 311/372/277 296/344/277
f 289/345/278 303/371/278 304/373/278
f 297/346/279 311/372/279 312/374/279
f 289/345/280 305/375/280 290/347/280
f 297/346/281 313/376/281 298/348/281
f 291/349/282 305/375/282 306/360/282
f 299/350/283 313/376/283 314/365/283
f 310/370/284 326/377/284 311/372/284
f 304/373/285 318/378/285 319/379/285
f 312/374/286 326/377/286 327/380/286
f 304/373/287 320/381/287 305/375/287
f 312/374/288 328/382/288 313/376/288
f 306/360/289 320/381/289 321/383/289
f 313/376/290 329/384/290 314/365/290
f 307/361/291 321/383/291 322/385/291
f 300/363/292 149/386/292 315/387/292
f 375/388/293 314/365/293 329/384/293
f 307/361/294 323/389/294 308/366/294
f 300/363/295 316/390/295 301/367/295
f 308/366/296 324/391/296 309/368/296
f 301/367/297 317/392/297 302/369/297
f 310/370/298 324/391/298 325/393/298
f 302/369/299 318/378/299 303/371/299
f 375/394/300 329/384/300 344/395/300
f 322/385/301 338/396/301 323/389/301
f 316/390/302 330/397/302 331/398/302
f 323/389/303 339/399/303 324/391/303
f 316/390/304 332/400/304 317/392/304
f 325/393/305 339/399/305 340/401/305
f 317/392/306 333/402/306 318/378/306
f 325/393/307 341/403/307 326/377/307
f 319/379/308 333/402/308 334/404/308
f 327/380/309 341/403/309 342/405/309
f 319/379/310 335/406/310 320/381/310
f 327/380/311 343/407/311 328/382/311
f 321/383/312 335/406/312 336/408/312
f 328/382/313 344/395/313 329/384/313
f 322/385/314 336/408/314 337/409/314
f 315/387/315 149/410/315 330/397/315
f 342/405/316 356/411/316 357/412/316
f 334/404/317 350/413/317 335/406/317
f 342/405/318 358/414/318 343/407/318
f 336/408/319 350/413/319 351/415/319
f 344/395/320 358/414/320 359/416/320
f 337/409/321 351/415/321 352/417/321
f 330/397/322 149/418/322 345/419/322
f 375/420/323 344/395/323 359/416/323
f 337/409/324 353/421/324 338/396/324
f 331/398/325 345/419/325 346/422/325
f 338/396/326 354/423/326 339/399/326
f 331/398/327 347/424/327 332/400/327
f 340/401/328 354/423/328 355/425/328
f 332/400/329 348/426/329 333/402/329
f 340/401/330 356/411/330 341/403/330
f 334/404/331 348/426/331 349/427/331
f 345/419/332 361/428/332 346/422/332
f 353/421/333 369/429/333 354/423/333
f 346/422/334 362/430/334 347/424/334
f 355/425/335 369/429/335 370/431/335
f 347/424/336 363/432/336 348/426/336
f 355/425/337 371/433/337 356/411/337
f 349/427/338 363/432/338 364/434/338
f 357/412/339 371/433/339 372/435/339
f 349/427/340 365/436/340 350/413/340
f 357/412/341 373/437/341 358/414/341
f 351/415/342 365/436/342 366/438/342
f 359/416/343 373/437/343 374/439/343
f 352/417/344 366/438/344 367/440/344
f 345/419/345 149/441/345 360/442/345
f 375/443/346 359/416/346 374/439/346
f 352/417/347 368/444/347 353/421/347
f 364/434/348 381/445/348 365/436/348
f 372/435/349 389/446/349 373/437/349
f 366/438/350 381/445/350 382/447/350
f 373/437/351 390/448/351 374/439/351
f 367/440/352 382/447/352 383/449/352
f 360/442/353 149/450/353 376/451/353
f 375/452/354 374/439/354 390/448/354
f 367/440/355 384/453/355 368/444/355
f 360/442/356 377/454/356 361/428/356
f 368/444/357 385/455/357 369/429/357
f 361/428/358 378/456/358 362/430/358
f 370/431/359 385/455/359 386/457/359
f 362/430/360 379/458/360 363/432/360
f 370/431/361 387/459/361 371/433/361
f 364/434/362 379/458/362 380/460/362
f 372/435/363 387/459/363 388/461/363
f 384/453/364 400/462/364 385/455/364
f 377/454/365 393/463/365 378/456/365
f 386/457/366 400/462/366 401/464/366
f 378/456/367 394/465/367 379/458/367
f 386/457/368 402/466/368 387/459/368
f 379/458/369 395/467/369 380/460/369
f 388/461/370 402/466/370 403/468/370
f 380/460/371 396/469/371 381/445/371
f 388/461/372 404/470/372 389/446/372
f 382/447/373 396/469/373 397/471/373
f 389/446/374 405/472/374 390/448/374
f 383/449/375 397/471/375 398/473/375
f 376/451/376 149/474/376 391/475/376
f 375/476/377 390/448/377 405/472/377
f 383/449/378 399/477/378 384/453/378
f 376/451/379 392/478/379 377/454/379
f 403/468/380 419/479/380 404/470/380
f 397/471/381 411/480/381 412/481/381
f 404/470/382 420/482/382 405/472/382
f 398/473/383 412/481/383 413/483/383
f 391/475/384 149/484/384 406/485/384
f 375/486/385 405/472/385 420/482/385
f 398/473/386 414/487/386 399/477/386
f 391/475/387 407/488/387 392/478/387
f 399/477/388 415/489/388 400/462/388
f 392/478/389 408/490/389 393/463/389
f 401/464/390 415/489/390 416/491/390
f 393/463/391 409/492/391 394/465/391
f 401/464/392 417/493/392 402/466/392
f 395/467/393 409/492/393 410/494/393
f 403/468/394 417/493/394 418/495/394
f 395/467/395 411/480/395 396/469/395
f 408/490/396 422/496/396 423/497/396
f 416/491/397 430/498/397 431/499/397
f 408/490/398 424/500/398 409/492/398
f 416/491/399 432/501/399 417/493/399
f 410/494/400 424/500/400 425/502/400
f 418/495/401 432/501/401 433/503/401
f 410/494/402 426/504/402 411/480/402
f 418/495/403 434/505/403 419/479/403
f 412/481/404 426/504/404 427/506/404
f 419/479/405 435/507/405 420/482/405
f 413/483/406 427/506/406 428/508/406
f 406/485/407 149/509/407 421/510/407
f 375/511/408 420/482/408 435/507/408
f 413/483/409 429/512/409 414/487/409
f 406/485/410 422/496/410 407/488/410
f 414/487/411 430/498/411 415/489/411
f 427/513/412 441/514/412 442/515/412
f 434/516/413 450/517/413 435/518/413
f 428/519/414 442/515/414 443/520/414
f 421/521/415 149/522/415 436/523/415
f 375/524/416 435/518/416 450/517/416
f 428/519/417 444/525/417 429/526/417
f 421/521/418 437/527/418 422/528/418
f 429/526/419 445/529/419 430/530/419
f 423/531/420 437/527/420 438/532/420
f 431/533/421 445/529/421 446/534/421
f 423/531/422 439/535/422 424/536/422
f 431/533/423 447/537/423 432/538/423
f 425/539/424 439/535/424 440/540/424
f 433/541/425 447/537/425 448/542/425
f 425/539/426 441/514/426 426/543/426
f 433/541/427 449/544/427 434/516/427
f 446/534/428 460/545/428 461/546/428
f 438/532/429 454/547/429 439/535/429
f 446/534/430 462/548/430 447/537/430
f 440/540/431 454/547/431 455/549/431
f 448/542/432 462/548/432 463/550/432
f 440/540/433 456/551/433 441/514/433
f 448/542/434 464/552/434 449/544/434
f 442/515/435 456/551/435 457/553/435
f 449/544/436 465/554/436 450/517/436
f 443/520/437 457/553/437 458/555/437
f 436/523/438 149/556/438 451/557/438
f 375/558/439 450/517/439 465/554/439
f 443/520/440 459/559/440 444/525/440
f 436/523/441 452/560/441 437/527/441
f 444/525/442 460/545/442 445/529/442
f 438/532/443 452/560/443 453/561/443
f 464/552/444 480/562/444 465/554/444
f 458/555/445 472/563/445 473/564/445
f 451/557/446 149/565/446 466/566/446
f 375/567/447 465/554/447 480/562/447
f 458/555/448 474/568/448 459/559/448
f 452/560/449 466/566/449 467/569/449
f 459/559/450 475/570/450 460/545/450
f 452/560/451 468/571/451 453/561/451
f 461/546/452 475/570/452 476/572/452
f 453/561/453 469/573/453 454/547/453
f 461/546/454 477/574/454 462/548/454
f 455/549/455 469/573/455 470/575/455
f 463/550/456 477/574/456 478/576/456
f 455/549/457 471/577/457 456/551/457
f 464/552/458 478/576/458 479/578/458
f 457/553/459 471/577/459 472/563/459
f 476/572/460 492/579/460 477/574/460
f 470/575/461 484/580/461 485/581/461
f 478/576/462 492/579/462 493/582/462
f 470/575/463 486/583/463 471/577/463
f 478/576/464 494/584/464 479/578/464
f 472/563/465 486/583/465 487/585/465
f 479/578/466 495/586/466 480/562/466
f 473/564/467 487/585/467 488/587/467
f 466/566/468 149/588/468 481/589/468
f 375/590/469 480/562/469 495/586/469
f 473/564/470 489/591/470 474/568/470
f 466/566/471 482/592/471 467/569/471
f 474/568/472 490/593/472 475/570/472
f 468/571/473 482/592/473 483/594/473
f 476/572/474 490/593/474 491/595/474
f 468/571/475 484/580/475 469/573/475
f 481/589/476 149/596/476 496/597/476
f 375/598/477 495/586/477 510/599/477
f 488/587/478 504/600/478 489/591/478
f 481/589/479 497/601/479 482/592/479
f 489/591/480 505/602/480 490/593/480
f 483/594/481 497/601/481 498/603/481
f 491/595/482 505/602/482 506/604/482
f 483/594/483 499/605/483 484/580/483
f 491/595/484 507/606/484 492/579/484
f 485/581/485 499/605/485 500/607/485
f 493/582/486 507/606/486 508/608/486
f 485/581/487 501/609/487 486/583/487
f 493/582/488 509/610/488 494/584/488
f 487/585/489 501/609/489 502/611/489
f 494/584/490 510/599/490 495/586/490
f 488/587/491 502/611/491 503/612/491
f 500/607/492 514/613/492 515/614/492
f 508/608/493 522/615/493 523/616/493
f 500/607/494 516/617/494 501/609/494
f 508/608/495 524/618/495 509/610/495
f 502/611/496 516/617/496 517/619/496
f 509/610/497 525/620/497 510/599/497
f 503/612/498 517/619/498 518/621/498
f 496/597/499 149/622/499 511/623/499
f 375/624/500 510/599/500 525/620/500
f 503/612/501 519/625/501 504/600/501
f 497/601/502 511/623/502 512/626/502
f 504/600/503 520/627/503 505/602/503
f 497/601/504 513/628/504 498/603/504
f 506/604/505 520/627/505 521/629/505
f 498/603/506 514/613/506 499/605/506
f 506/604/507 522/615/507 507/606/507
f 518/621/508 534/630/508 519/625/508
f 511/623/509 527/631/509 512/626/509
f 519/625/510 535/632/510 520/627/510
f 513/628/511 527/631/511 528/633/511
f 521/629/512 535/632/512 536/634/512
f 513/628/513 529/635/513 514/613/513
f 521/629/514 537/636/514 522/615/514
f 515/614/515 529/635/515 530/637/515
f 523/616/516 537/636/516 538/638/516
f 515/614/517 531/639/517 516/617/517
f 523/616/518 539/640/518 524/618/518
f 517/619/519 531/639/519 532/641/519
f 525/620/520 539/640/520 540/642/520
f 518/621/521 532/641/521 533/643/521
f 511/623/522 149/644/522 526/645/522
f 375/646/523 525/620/523 540/642/523
f 538/638/524 546/93/524 547/95/524
f 531/639/525 69/90/525 544/96/525
f 538/638/526 548/99/526 539/640/526
f 532/641/527 544/96/527 70/100/527
f 539/640/528 549/103/528 540/642/528
f 533/643/529 70/100/529 71/105/529
f 526/645/530 149/647/530 541/106/530
f 375/648/531 540/642/531 549/103/531
f 533/643/532 72/111/532 534/630/532
f 527/631/533 541/106/533 542/112/533
f 534/630/534 545/115/534 535/632/534
f 528/633/535 542/112/535 68/116/535
f 535/632/536 73/119/536 536/634/536
f 529/635/537 68/116/537 543/120/537
f 536/634/538 546/93/538 537/636/538
f 530/637/539 543/120/539 69/90/539
f 69/90/28 543/120/28 77/91/28
f 546/93/29 85/121/29 86/94/29
f 544/96/30 69/90/30 78/92/30
f 547/95/31 86/94/31 87/98/31
f 70/100/32 544/96/32 79/97/32
f 548/99/33 87/98/33 88/102/33
f 70/100/540 80/101/540 81/104/540
f 71/105/541 81/104/541 82/110/541
f 542/112/38 541/106/38 74/108/38
f 72/111/39 82/110/39 83/114/39
f 68/116/40 542/112/40 75/113/40
f 545/115/41 83/114/41 84/118/41
f 543/120/42 68/116/42 76/117/42
f 73/119/43 84/118/43 85/121/43
f 76/117/44 91/137/44 92/122/44
f 84/118/45 99/138/45 100/123/45
f 77/91/46 92/122/46 93/124/46
f 86/94/47 85/121/47 100/123/47
f 78/92/48 93/124/48 94/126/48
f 87/98/49 86/94/49 101/125/49
f 80/101/50 79/97/50 94/126/50
f 87/98/51 102/127/51 103/129/51
f 80/101/52 95/128/52 96/130/52
f 81/104/55 96/130/55 97/134/55
f 74/108/56 89/132/56 90/135/56
f 82/110/57 97/134/57 98/136/57
f 75/113/58 90/135/58 91/137/58
f 83/114/59 98/136/59 99/138/59
f 95/128/60 110/155/60 111/139/60
f 97/134/63 96/130/63 111/139/63
f 89/132/64 104/141/64 105/145/64
f 97/134/65 112/144/65 113/146/65
f 90/135/542 105/145/542 106/147/542
f 99/138/67 98/136/67 113/146/67
f 91/137/68 106/147/68 107/149/68
f 100/123/69 99/138/69 114/148/69
f 92/122/70 107/149/70 108/151/70
f 101/125/71 100/123/71 115/150/71
f 93/124/72 108/151/72 109/153/72
f 101/125/543 116/152/543 117/154/543
f 94/126/74 109/153/74 110/155/74
f 102/127/75 117/154/75 118/143/75
f 114/148/76 129/171/76 130/156/76
f 107/149/77 122/172/77 123/157/77
f 115/150/78 130/156/78 131/158/78
f 108/151/79 123/157/79 124/159/79
f 116/152/80 131/158/80 132/160/80
f 110/155/81 109/153/81 124/159/81
f 117/154/82 132/160/82 133/162/82
f 111/139/83 110/155/83 125/161/83
f 111/139/86 126/163/86 127/167/86
f 104/141/87 119/165/87 120/168/87
f 112/144/88 127/167/88 128/169/88
f 105/145/89 120/168/89 121/170/89
f 114/148/90 113/146/90 128/169/90
f 106/147/91 121/170/91 122/172/91
f 126/163/94 141/189/94 142/177/94
f 119/165/95 134/174/95 135/178/95
f 127/167/96 142/177/96 143/179/96
f 120/168/97 135/178/97 136/180/97
f 129/171/98 128/169/98 143/179/98
f 121/170/99 136/180/99 137/182/99
f 129/171/100 144/181/100 145/183/100
f 123/157/101 122/172/101 137/182/101
f 130/156/102 145/183/102 146/185/102
f 123/157/103 138/184/103 139/186/103
f 132/160/104 131/158/104 146/185/104
f 125/161/105 124/159/105 139/186/105
f 132/160/544 147/187/544 148/176/544
f 126/163/107 125/161/107 140/188/107
f 138/184/108 137/182/108 153/190/108
f 145/183/109 161/206/109 162/192/109
f 138/184/110 154/191/110 155/193/110
f 146/185/111 162/192/111 163/194/111
f 140/188/112 139/186/112 155/193/112
f 148/176/113 147/187/113 163/194/113
f 141/189/114 140/188/114 156/195/114
f 141/189/117 157/197/117 158/201/117
f 134/174/118 150/199/118 151/202/118
f 142/177/119 158/201/119 159/203/119
f 135/178/120 151/202/120 152/204/120
f 144/181/121 143/179/121 159/203/121
f 136/180/122 152/204/122 153/190/122
f 144/181/123 160/205/123 161/206/123
f 157/197/124 172/221/124 173/207/124
f 151/202/125 150/199/125 165/208/125
f 158/201/126 173/207/126 174/210/126
f 151/202/127 166/209/127 167/211/127
f 160/205/128 159/203/128 174/210/128
f 152/204/129 167/211/129 168/213/129
f 160/205/130 175/212/130 176/214/130
f 154/191/131 153/190/131 168/213/131
f 162/192/132 161/206/132 176/214/132
f 154/191/133 169/215/133 170/217/133
f 163/194/134 162/192/134 177/216/134
f 156/195/135 155/193/135 170/217/135
f 163/194/136 178/218/136 179/220/136
f 157/197/137 156/195/137 171/219/137
f 177/216/140 176/214/140 191/224/140
f 169/215/141 184/240/141 185/226/141
f 177/216/142 192/225/142 193/227/142
f 171/219/143 170/217/143 185/226/143
f 178/218/144 193/227/144 194/229/144
f 172/221/145 171/219/145 186/228/145
f 172/221/148 187/230/148 188/234/148
f 166/209/149 165/208/149 180/232/149
f 173/207/150 188/234/150 189/236/150
f 166/209/151 181/235/151 182/237/151
f 175/212/152 174/210/152 189/236/152
f 167/211/153 182/237/153 183/239/153
f 175/212/154 190/238/154 191/224/154
f 169/215/155 168/213/155 183/239/155
f 188/234/156 203/256/156 204/241/156
f 181/235/157 196/257/157 197/242/157
f 190/238/158 189/236/158 204/241/158
f 182/237/159 197/242/159 198/244/159
f 190/238/160 205/243/160 206/245/160
f 184/240/161 183/239/161 198/244/161
f 192/225/162 191/224/162 206/245/162
f 184/240/163 199/246/163 200/248/163
f 192/225/164 207/247/164 208/249/164
f 186/228/165 185/226/165 200/248/165
f 193/227/166 208/249/166 209/251/166
f 187/230/167 186/228/167 201/250/167
f 187/230/170 202/252/170 203/256/170
f 180/232/171 195/254/171 196/257/171
f 207/247/172 222/274/172 223/258/172
f 201/250/173 200/248/173 215/259/173
f 209/251/174 208/249/174 223/258/174
f 202/252/175 201/250/175 216/260/175
f 202/252/178 217/262/178 218/266/178
f 195/254/179 210/264/179 211/267/179
f 203/256/180 218/266/180 219/268/180
f 197/242/181 196/257/181 211/267/181
f 205/243/182 204/241/182 219/268/182
f 197/242/183 212/269/183 213/271/183
f 205/243/184 220/270/184 221/272/184
f 199/246/185 198/244/185 213/271/185
f 207/247/186 206/245/186 221/272/186
f 199/246/187 214/273/187 215/259/187
f 212/269/545 211/267/545 226/275/545
f 220/270/189 219/268/189 234/277/189
f 212/269/190 227/276/190 228/279/190
f 220/270/191 235/278/191 236/280/191
f 214/273/192 213/271/192 228/279/192
f 222/274/193 221/272/193 236/280/193
f 214/273/194 229/281/194 230/283/194
f 222/274/546 237/282/546 238/284/546
f 216/260/196 215/259/196 230/283/196
f 223/258/197 238/284/197 239/286/197
f 217/262/198 216/260/198 231/285/198
f 217/262/201 232/287/201 233/291/201
f 210/264/547 225/289/547 226/275/547
f 218/266/203 233/291/203 234/277/203
f 231/285/204 230/283/204 245/292/204
f 239/286/205 238/284/205 253/294/205
f 232/287/206 231/285/206 246/293/206
f 232/287/209 247/296/209 248/300/209
f 225/289/210 240/298/210 241/301/210
f 233/291/211 248/300/211 249/302/211
f 226/275/212 241/301/212 242/303/212
f 235/278/213 234/277/213 249/302/213
f 227/276/214 242/303/214 243/305/214
f 235/278/215 250/304/215 251/306/215
f 229/281/216 228/279/216 243/305/216
f 236/280/217 251/306/217 252/308/217
f 229/281/218 244/307/218 245/292/218
f 238/284/219 237/282/219 252/308/219
f 250/304/220 249/302/220 264/309/220
f 242/303/221 257/325/221 258/311/221
f 250/304/222 265/310/222 266/312/222
f 244/307/223 243/305/223 258/311/223
f 252/308/224 251/306/224 266/312/224
f 244/307/225 259/313/225 260/315/225
f 252/308/226 267/314/226 268/316/226
f 246/293/227 245/292/227 260/315/227
f 253/294/228 268/316/228 269/318/228
f 247/296/229 246/293/229 261/317/229
f 247/296/232 262/319/232 263/323/232
f 241/301/233 240/298/233 255/321/233
f 248/300/234 263/323/234 264/309/234
f 242/303/235 241/301/235 256/324/235
f 268/316/236 283/342/236 284/326/236
f 262/319/237 261/317/237 276/327/237
f 262/319/240 277/328/240 278/332/240
f 255/321/241 270/330/241 271/333/241
f 263/323/242 278/332/242 279/334/242
f 256/324/243 271/333/243 272/335/243
f 265/310/244 264/309/244 279/334/244
f 257/325/245 272/335/245 273/337/245
f 265/310/246 280/336/246 281/338/246
f 259/313/247 258/311/247 273/337/247
f 267/314/248 266/312/248 281/338/248
f 259/313/249 274/339/249 275/341/249
f 267/314/548 282/340/548 283/342/548
f 261/317/251 260/315/251 275/341/251
f 272/335/252 287/358/252 288/343/252
f 280/336/253 295/359/253 296/344/253
f 274/339/254 273/337/254 288/343/254
f 282/340/255 281/338/255 296/344/255
f 274/339/256 289/345/256 290/347/256
f 282/340/257 297/346/257 298/348/257
f 276/327/258 275/341/258 290/347/258
f 283/342/259 298/348/259 299/350/259
f 277/328/260 276/327/260 291/349/260
f 277/328/263 292/351/263 293/355/263
f 270/330/264 285/353/264 286/356/264
f 278/332/265 293/355/265 294/357/265
f 271/333/266 286/356/266 287/358/266
f 280/336/267 279/334/267 294/357/267
f 292/351/268 291/349/268 306/360/268
f 292/351/271 307/361/271 308/366/271
f 285/353/272 300/363/272 301/367/272
f 293/355/273 308/366/273 309/368/273
f 287/358/274 286/356/274 301/367/274
f 295/359/275 294/357/275 309/368/275
f 287/358/276 302/369/276 303/371/276
f 295/359/277 310/370/277 311/372/277
f 289/345/278 288/343/278 303/371/278
f 297/346/279 296/344/279 311/372/279
f 289/345/280 304/373/280 305/375/280
f 297/346/281 312/374/281 313/376/281
f 291/349/282 290/347/282 305/375/282
f 299/350/283 298/348/283 313/376/283
f 310/370/284 325/393/284 326/377/284
f 304/373/285 303/371/285 318/378/285
f 312/374/286 311/372/286 326/377/286
f 304/373/287 319/379/287 320/381/287
f 312/374/288 327/380/288 328/382/288
f 306/360/289 305/375/289 320/381/289
f 313/376/290 328/382/290 329/384/290
f 307/361/549 306/360/549 321/383/549
f 307/361/550 322/385/550 323/389/550
f 300/363/295 315/387/295 316/390/295
f 308/366/296 323/389/296 324/391/296
f 301/367/297 316/390/297 317/392/297
f 310/370/298 309/368/298 324/391/298
f 302/369/299 317/392/299 318/378/299
f 322/385/301 337/409/301 338/396/301
f 316/390/302 315/387/302 330/397/302
f 323/389/303 338/396/303 339/399/303
f 316/390/304 331/398/304 332/400/304
f 325/393/305 324/391/305 339/399/305
f 317/392/306 332/400/306 333/402/306
f 325/393/307 340/401/307 341/403/307
f 319/379/308 318/378/308 333/402/308
f 327/380/309 326/377/309 341/403/309
f 319/379/310 334/404/310 335/406/310
f 327/380/311 342/405/311 343/407/311
f 321/383/312 320/381/312 335/406/312
f 328/382/313 343/407/313 344/395/313
f 322/385/314 321/383/314 336/408/314
f 342/405/316 341/403/316 356/411/316
f 334/404/317 349/427/317 350/413/317
f 342/405/551 357/412/551 358/414/551
f 336/408/319 335/406/319 350/413/319
f 344/395/320 343/407/320 358/414/320
f 337/409/321 336/408/321 351/415/321
f 337/409/324 352/417/324 353/421/324
f 331/398/325 330/397/325 345/419/325
f 338/396/326 353/421/326 354/423/326
f 331/398/552 346/422/552 347/424/552
f 340/401/328 339/399/328 354/423/328
f 332/400/329 347/424/329 348/426/329
f 340/401/330 355/425/330 356/411/330
f 334/404/331 333/402/331 348/426/331
f 345/419/332 360/442/332 361/428/332
f 353/421/333 368/444/333 369/429/333
f 346/422/334 361/428/334 362/430/334
f 355/425/335 354/423/335 369/429/335
f 347/424/336 362/430/336 363/432/336
f 355/425/337 370/431/337 371/433/337
f 349/427/338 348/426/338 363/432/338
f 357/412/339 356/411/339 371/433/339
f 349/427/340 364/434/340 365/436/340
f 357/412/341 372/435/341 373/437/341
f 351/415/342 350/413/342 365/436/342
f 359/416/343 358/414/343 373/437/343
f 352/417/344 351/415/344 366/438/344
f 352/417/347 367/440/347 368/444/347
f 364/434/348 380/460/348 381/445/348
f 372/435/349 388/461/349 389/446/349
f 366/438/350 365/436/350 381/445/350
f 373/437/553 389/446/553 390/448/553
f 367/440/352 366/438/352 382/447/352
f 367/440/355 383/449/355 384/453/355
f 360/442/356 376/451/356 377/454/356
f 368/444/357 384/453/357 385/455/357
f 361/428/358 377/454/358 378/456/358
f 370/431/359 369/429/359 385/455/359
f 362/430/360 378/456/360 379/458/360
f 370/431/361 386/457/361 387/459/361
f 364/434/362 363/432/362 379/458/362
f 372/435/363 371/433/363 387/459/363
f 384/453/364 399/477/364 400/462/364
f 377/454/365 392/478/365 393/463/365
f 386/457/366 385/455/366 400/462/366
f 378/456/367 393/463/367 394/465/367
f 386/457/368 401/464/368 402/466/368
f 379/458/369 394/465/369 395/467/369
f 388/461/370 387/459/370 402/466/370
f 380/460/371 395/467/371 396/469/371
f 388/461/554 403/468/554 404/470/554
f 382/447/373 381/445/373 396/469/373
f 389/446/374 404/470/374 405/472/374
f 383/449/375 382/447/375 397/471/375
f 383/449/378 398/473/378 399/477/378
f 376/451/379 391/475/379 392/478/379
f 403/468/380 418/495/380 419/479/380
f 397/471/381 396/469/381 411/480/381
f 404/470/382 419/479/382 420/482/382
f 398/473/383 397/471/383 412/481/383
f 398/473/386 413/483/386 414/487/386
f 391/475/387 406/485/387 407/488/387
f 399/477/388 414/487/388 415/489/388
f 392/478/389 407/488/389 408/490/389
f 401/464/390 400/462/390 415/489/390
f 393/463/391 408/490/391 409/492/391
f 401/464/392 416/491/392 417/493/392
f 395/467/393 394/465/393 409/492/393
f 403/468/394 402/466/394 417/493/394
f 395/467/395 410/494/395 411/480/395
f 408/490/396 407/488/396 422/496/396
f 416/491/397 415/489/397 430/498/397
f 408/490/398 423/497/398 424/500/398
f 416/491/399 431/499/399 432/501/399
f 410/494/400 409/492/400 424/500/400
f 418/495/401 417/493/401 432/501/401
f 410/494/402 425/502/402 426/504/402
f 418/495/403 433/503/403 434/505/403
f 412/481/404 411/480/404 426/504/404
f 419/479/405 434/505/405 435/507/405
f 413/483/555 412/481/555 427/506/555
f 413/483/556 428/508/556 429/512/556
f 406/485/410 421/510/410 422/496/410
f 414/487/411 429/512/411 430/498/411
f 427/513/412 426/543/412 441/514/412
f 434/516/413 449/544/413 450/517/413
f 428/519/557 427/513/557 442/515/557
f 428/519/558 443/520/558 444/525/558
f 421/521/418 436/523/418 437/527/418
f 429/526/419 444/525/419 445/529/419
f 423/531/420 422/528/420 437/527/420
f 431/533/421 430/530/421 445/529/421
f 423/531/422 438/532/422 439/535/422
f 431/533/423 446/534/423 447/537/423
f 425/539/424 424/536/424 439/535/424
f 433/541/425 432/538/425 447/537/425
f 425/539/426 440/540/426 441/514/426
f 433/541/427 448/542/427 449/544/427
f 446/534/428 445/529/428 460/545/428
f 438/532/429 453/561/429 454/547/429
f 446/534/430 461/546/430 462/548/430
f 440/540/431 439/535/431 454/547/431
f 448/542/432 447/537/432 462/548/432
f 440/540/433 455/549/433 456/551/433
f 448/542/434 463/550/434 464/552/434
f 442/515/435 441/514/435 456/551/435
f 449/544/436 464/552/436 465/554/436
f 443/520/437 442/515/437 457/553/437
f 443/520/440 458/555/440 459/559/440
f 436/523/441 451/557/441 452/560/441
f 444/525/442 459/559/442 460/545/442
f 438/532/443 437/527/443 452/560/443
f 464/552/444 479/578/444 480/562/444
f 458/555/445 457/553/445 472/563/445
f 458/555/448 473/564/448 474/568/448
f 452/560/449 451/557/449 466/566/449
f 459/559/450 474/568/450 475/570/450
f 452/560/451 467/569/451 468/571/451
f 461/546/452 460/545/452 475/570/452
f 453/561/453 468/571/453 469/573/453
f 461/546/454 476/572/454 477/574/454
f 455/549/455 454/547/455 469/573/455
f 463/550/456 462/548/456 477/574/456
f 455/549/457 470/575/457 471/577/457
f 464/552/458 463/550/458 478/576/458
f 457/553/459 456/551/459 471/577/459
f 476/572/460 491/595/460 492/579/460
f 470/575/461 469/573/461 484/580/461
f 478/576/462 477/574/462 492/579/462
f 470/575/463 485/581/463 486/583/463
f 478/576/464 493/582/464 494/584/464
f 472/563/465 471/577/465 486/583/465
f 479/578/466 494/584/466 495/586/466
f 473/564/467 472/563/467 487/585/467
f 473/564/470 488/587/470 489/591/470
f 466/566/471 481/589/471 482/592/471
f 474/568/472 489/591/472 490/593/472
f 468/571/473 467/569/473 482/592/473
f 476/572/474 475/570/474 490/593/474
f 468/571/475 483/594/475 484/580/475
f 488/587/478 503/612/478 504/600/478
f 481/589/479 496/597/479 497/601/479
f 489/591/480 504/600/480 505/602/480
f 483/594/481 482/592/481 497/601/481
f 491/595/482 490/593/482 505/602/482
f 483/594/483 498/603/483 499/605/483
f 491/595/484 506/604/484 507/606/484
f 485/581/485 484/580/485 499/605/485
f 493/582/486 492/579/486 507/606/486
f 485/581/487 500/607/487 501/609/487
f 493/582/488 508/608/488 509/610/488
f 487/585/489 486/583/489 501/609/489
f 494/584/490 509/610/490 510/599/490
f 488/587/491 487/585/491 502/611/491
f 500/607/492 499/605/492 514/613/492
f 508/608/493 507/606/493 522/615/493
f 500/607/494 515/614/494 516/617/494
f 508/608/495 523/616/495 524/618/495
f 502/611/496 501/609/496 516/617/496
f 509/610/497 524/618/497 525/620/497
f 503/612/498 502/611/498 517/619/498
f 503/612/501 518/621/501 519/625/501
f 497/601/502 496/597/502 511/623/502
f 504/600/503 519/625/503 520/627/503
f 497/601/504 512/626/504 513/628/504
f 506/604/505 505/602/505 520/627/505
f 498/603/506 513/628/506 514/613/506
f 506/604/507 521/629/507 522/615/507
f 518/621/508 533/643/508 534/630/508
f 511/623/509 526/645/509 527/631/509
f 519/625/510 534/630/510 535/632/510
f 513/628/511 512/626/511 527/631/511
f 521/629/512 520/627/512 535/632/512
f 513/628/513 528/633/513 529/635/513
f 521/629/514 536/634/514 537/636/514
f 515/614/515 514/613/515 529/635/515
f 523/616/516 522/615/516 537/636/516
f 515/614/517 530/637/517 531/639/517
f 523/616/518 538/638/518 539/640/518
f 517/619/519 516/617/519 531/639/519
f 525/620/520 524/618/520 539/640/520
f 518/621/521 517/619/521 532/641/521
f 538/638/524 537/636/524 546/93/524
f 531/639/525 530/637/525 69/90/525
f 538/638/526 547/95/526 548/99/526
f 532/641/527 531/639/527 544/96/527
f 539/640/528 548/99/528 549/103/528
f 533/643/529 532/641/529 70/100/529
f 533/643/532 71/105/532 72/111/532
f 527/631/533 526/645/533 541/106/533
f 534/630/534 72/111/534 545/115/534
f 528/633/535 527/631/535 542/112/535
f 535/632/536 545/115/536 73/119/536
f 529/635/537 528/633/537 68/116/537
f 536/634/538 73/119/538 546/93/538
f 530/637/539 529/635/539 543/120/539
o Cube.002
v 0.959277 0.274056 0.158860
v 0.959277 0.849346 0.158860
v 0.959277 0.274056 -0.918988
v 0.959277 0.849346 -0.918988
v 1.040723 0.286822 0.134942
v 1.040723 0.836580 0.134942
v 1.040723 0.286822 -0.895070
v 1.040723 0.836580 -0.895070
v 1.040723 0.849346 -0.918988
v 1.040723 0.274056 -0.918988
v 1.040723 0.274056 0.158860
v 1.040723 0.849346 0.158860
v 1.040723 0.561701 -0.895070
v 1.040723 0.286822 -0.380064
v 1.040723 0.836580 -0.380064
v 1.040723 0.561701 0.134942
v 1.040723 0.561701 -0.380064
v 1.032813 0.571355 -0.361976
v 1.032813 0.826926 -0.361976
v 1.032813 0.826926 0.116854
v 1.032813 0.571355 0.116854
v 1.032813 0.571355 -0.876982
v 1.032813 0.826926 -0.876982
v 1.032813 0.826926 -0.398152
v 1.032813 0.571355 -0.398152
v 1.032813 0.295420 -0.363954
v 1.032813 0.553102 -0.363954
v 1.032813 0.553102 0.118832
v 1.032813 0.295420 0.118832
v 1.032813 0.295420 -0.878960
v 1.032813 0.553102 -0.878960
v 1.032813 0.553102 -0.396174
v 1.032813 0.295420 -0.396174
vn -1.0000 -0.0000 -0.0000
vn -0.0000 -0.0000 -1.0000
vn 1.0000 -0.0000 -0.0000
vn -0.0000 -0.0000 1.0000
vn -0.0000 -1.0000 -0.0000
vn -0.0000 1.0000 -0.0000
vn 0.9162 -0.0000 0.4007
vn 0.7735 -0.6338 -0.0000
vn 0.9162 -0.0000 -0.4007
vn 0.7735 0.6338 -0.0000
vn 0.8976 -0.0000 0.4407
vn 0.7360 -0.6770 -0.0000
vn 0.8976 -0.0000 -0.4407
vn 0.7360 0.6770 -0.0000
vt 0.625000 0.000000
vt 0.375000 0.250000
vt 0.375000 0.000000
vt 0.625000 0.250000
vt 0.375000 0.500000
vt 0.615257 0.629195
vt 0.504195 0.740257
vt 0.504195 0.629195
vt 0.625000 0.750000
vt 0.375000 1.000000
vt 0.375000 0.750000
vt 0.125000 0.750000
vt 0.125000 0.500000
vt 0.875000 0.500000
vt 0.625000 0.500000
vt 0.500000 0.505548
vt 0.380548 0.625000
vt 0.619452 0.625000
vt 0.500000 0.744452
vt 0.496263 0.628737
vt 0.384284 0.740716
vt 0.384284 0.628737
vt 0.496263 0.509284
vt 0.384284 0.621263
vt 0.384284 0.509284
vt 0.615257 0.509743
vt 0.504195 0.620805
vt 0.504195 0.509743
vt 0.500000 0.625000
vt 0.619452 0.744452
vt 0.615257 0.740257
vt 0.619452 0.505548
vt 0.615257 0.620805
vt 0.496263 0.740716
vt 0.380548 0.744452
vt 0.380548 0.505548
vt 0.496263 0.621263
vt 0.625000 1.000000
vt 0.875000 0.750000
s 0
f 551/649/559 552/650/559 550/651/559
f 553/652/560 559/653/560 552/650/560
f 568/654/561 570/655/561 567/656/561
f 561/657/562 550/658/562 560/659/562
f 559/653/563 550/660/563 552/661/563
f 553/662/564 561/657/564 558/663/564
f 562/664/561 559/653/561 558/663/561
f 563/665/561 560/659/561 559/653/561
f 564/666/561 558/663/561 561/657/561
f 565/667/561 561/657/561 560/659/561
f 576/668/561 578/669/561 575/670/561
f 580/671/561 582/672/561 579/673/561
f 572/674/561 574/675/561 571/676/561
f 564/666/565 567/656/565 566/677/565
f 555/678/566 568/654/566 564/666/566
f 565/667/567 569/679/567 555/678/567
f 566/677/568 570/655/568 565/667/568
f 557/680/565 571/676/565 562/664/565
f 564/666/566 572/674/566 557/680/566
f 566/677/567 573/681/567 564/666/567
f 562/664/568 574/675/568 566/677/568
f 566/677/569 575/670/569 563/665/569
f 565/667/570 576/668/570 566/677/570
f 565/667/571 578/669/571 577/682/571
f 554/683/572 575/670/572 578/669/572
f 556/684/569 580/671/569 579/673/569
f 566/677/570 580/671/570 562/664/570
f 563/665/571 581/685/571 566/677/571
f 563/665/572 579/673/572 582/672/572
f 551/649/559 553/652/559 552/650/559
f 553/652/560 558/663/560 559/653/560
f 568/654/561 569/679/561 570/655/561
f 561/657/562 551/686/562 550/658/562
f 559/653/563 560/659/563 550/660/563
f 553/662/564 551/687/564 561/657/564
f 558/663/561 557/680/561 562/664/561
f 562/664/561 556/684/561 559/653/561
f 559/653/561 556/684/561 563/665/561
f 563/665/561 554/683/561 560/659/561
f 561/657/561 555/678/561 564/666/561
f 564/666/561 557/680/561 558/663/561
f 560/659/561 554/683/561 565/667/561
f 565/667/561 555/678/561 561/657/561
f 576/668/561 577/682/561 578/669/561
f 580/671/561 581/685/561 582/672/561
f 572/674/561 573/681/561 574/675/561
f 564/666/565 568/654/565 567/656/565
f 555/678/566 569/679/566 568/654/566
f 565/667/567 570/655/567 569/679/567
f 566/677/568 567/656/568 570/655/568
f 557/680/565 572/674/565 571/676/565
f 564/666/566 573/681/566 572/674/566
f 566/677/567 574/675/567 573/681/567
f 562/664/568 571/676/568 574/675/568
f 566/677/569 576/668/569 575/670/569
f 565/667/570 577/682/570 576/668/570
f 565/667/571 554/683/571 578/669/571
f 554/683/572 563/665/572 575/670/572
f 556/684/569 562/664/569 580/671/569
f 566/677/570 581/685/570 580/671/570
f 563/665/571 582/672/571 581/685/571
f 563/665/572 556/684/572 579/673/572
o Cube.003
v 0.959277 1.237265 0.103399
v 0.959277 1.812556 0.103399
v 0.959277 1.237265 -0.124245
v 0.959277 1.812556 -0.124245
v 1.040723 1.250032 0.098347
v 1.040723 1.799790 0.098347
v 1.040723 1.250032 -0.119194
v 1.040723 1.799790 -0.119194
v 1.040723 1.812556 -0.124245
v 1.040723 1.237265 -0.124245
v 1.040723 1.237265 0.103399
v 1.040723 1.812556 0.103399
v 1.040723 1.524911 -0.119194
v 1.040723 1.250032 -0.010423
v 1.040723 1.799790 -0.010423
v 1.040723 1.524911 0.098347
v 1.040723 1.524911 -0.010423
v 1.032813 1.534565 -0.006603
v 1.032813 1.790136 -0.006603
v 1.032813 1.790136 0.094527
v 1.032813 1.534565 0.094527
v 1.032813 1.534565 -0.115374
v 1.032813 1.790136 -0.115374
v 1.032813 1.790136 -0.014244
v 1.032813 1.534565 -0.014244
v 1.032813 1.258630 -0.007021
v 1.032813 1.516312 -0.007021
v 1.032813 1.516312 0.094945
v 1.032813 1.258630 0.094945
v 1.032813 1.258630 -0.115791
v 1.032813 1.516312 -0.115791
v 1.032813 1.516312 -0.013826
v 1.032813 1.258630 -0.013826
vn -1.0000 -0.0000 -0.0000
vn -0.0000 -0.0000 -1.0000
vn 1.0000 -0.0000 -0.0000
vn -0.0000 -0.0000 1.0000
vn -0.0000 -1.0000 -0.0000
vn -0.0000 1.0000 -0.0000
vn 0.4349 -0.0000 0.9005
vn 0.7735 -0.6338 -0.0000
vn 0.4349 -0.0000 -0.9005
vn 0.7735 0.6338 -0.0000
vn 0.3951 -0.0000 0.9186
vn 0.7360 -0.6770 -0.0000
vn 0.3951 -0.0000 -0.9186
vn 0.7360 0.6770 -0.0000
vt 0.625000 0.000000
vt 0.375000 0.250000
vt 0.375000 0.000000
vt 0.625000 0.250000
vt 0.375000 0.500000
vt 0.615257 0.629195
vt 0.504195 0.740257
vt 0.504195 0.629195
vt 0.625000 0.750000
vt 0.375000 1.000000
vt 0.375000 0.750000
vt 0.125000 0.750000
vt 0.125000 0.500000
vt 0.875000 0.500000
vt 0.625000 0.500000
vt 0.500000 0.505548
vt 0.380548 0.625000
vt 0.619452 0.625000
vt 0.500000 0.744452
vt 0.496263 0.628737
vt 0.384284 0.740716
vt 0.384284 0.628737
vt 0.496263 0.509284
vt 0.384284 0.621263
vt 0.384284 0.509284
vt 0.615257 0.509743
vt 0.504195 0.620805
vt 0.504195 0.509743
vt 0.500000 0.625000
vt 0.619452 0.744452
vt 0.615257 0.740257
vt 0.619452 0.505548
vt 0.615257 0.620805
vt 0.496263 0.740716
vt 0.380548 0.744452
vt 0.380548 0.505548
vt 0.496263 0.621263
vt 0.625000 1.000000
vt 0.875000 0.750000
s 0
f 584/688/573 585/689/573 583/690/573
f 586/691/574 592/692/574 585/689/574
f 601/693/575 603/694/575 600/695/575
f 594/696/576 583/697/576 593/698/576
f 592/692/577 583/699/577 585/700/577
f 586/701/578 594/696/578 591/702/578
f 595/703/575 592/692/575 591/702/575
f 596/704/575 593/698/575 592/692/575
f 597/705/575 591/702/575 594/696/575
f 598/706/575 594/696/575 593/698/575
f 609/707/575 611/708/575 608/709/575
f 613/710/575 615/711/575 612/712/575
f 605/713/575 607/714/575 604/715/575
f 597/705/579 600/695/579 599/716/579
f 588/717/580 601/693/580 597/705/580
f 598/706/581 602/718/581 588/717/581
f 599/716/582 603/694/582 598/706/582
f 590/719/579 604/715/579 595/703/579
f 597/705/580 605/713/580 590/719/580
f 599/716/581 606/720/581 597/705/581
f 595/703/582 607/714/582 599/716/582
f 599/716/583 608/709/583 596/704/583
f 598/706/584 609/707/584 599/716/584
f 598/706/585 611/708/585 610/721/585
f 587/722/586 608/709/586 611/708/586
f 589/723/583 613/710/583 612/712/583
f 599/716/584 613/710/584 595/703/584
f 596/704/585 614/724/585 599/716/585
f 596/704/586 612/712/586 615/711/586
f 584/688/573 586/691/573 585/689/573
f 586/691/574 591/702/574 592/692/574
f 601/693/575 602/718/575 603/694/575
f 594/696/576 584/725/576 583/697/576
f 592/692/577 593/698/577 583/699/577
f 586/701/578 584/726/578 594/696/578
f 591/702/575 590/719/575 595/703/575
f 595/703/575 589/723/575 592/692/575
f 592/692/575 589/723/575 596/704/575
f 596/704/575 587/722/575 593/698/575
f 594/696/575 588/717/575 597/705/575
f 597/705/575 590/719/575 591/702/575
f 593/698/575 587/722/575 598/706/575
f 598/706/575 588/717/575 594/696/575
f 609/707/575 610/721/575 611/708/575
f 613/710/575 614/724/575 615/711/575
f 605/713/575 606/720/575 607/714/575
f 597/705/579 601/693/579 600/695/579
f 588/717/580 602/718/580 601/693/580
f 598/706/581 603/694/581 602/718/581
f 599/716/582 600/695/582 603/694/582
f 590/719/579 605/713/579 604/715/579
f 597/705/580 606/720/580 605/713/580
f 599/716/581 607/714/581 606/720/581
f 595/703/582 604/715/582 607/714/582
f 599/716/583 609/707/583 608/709/583
f 598/706/584 610/721/584 609/707/584
f 598/706/585 587/722/585 611/708/585
f 587/722/586 596/704/586 608/709/586
f 589/723/583 595/703/583 613/710/583
f 599/716/584 614/724/584 613/710/584
f 596/704/585 615/711/585 614/724/585
f 596/704/586 589/723/586 612/712/586
